<mxfile host="app.diagrams.net" agent="Mozilla/5.0 (X11; Ubuntu; Linux x86_64; rv:132.0) Gecko/20100101 Firefox/132.0" version="24.8.6" pages="20">
  <diagram id="pwBAmaQ0iMDTgi8jjtZy" name="desktop-header">
    <mxGraphModel dx="1386" dy="910" grid="1" gridSize="10" guides="1" tooltips="1" connect="1" arrows="1" fold="1" page="1" pageScale="1" pageWidth="1600" pageHeight="900" background="none" math="0" shadow="0">
      <root>
        <mxCell id="0" />
        <mxCell id="1" style="locked=1;" parent="0" />
        <mxCell id="7YqNu8k0UD2kvPxJVRAt-10" value="Header" style="locked=1;" parent="0" />
        <mxCell id="7YqNu8k0UD2kvPxJVRAt-11" value="LOGO" style="whiteSpace=wrap;html=1;rounded=0;shadow=0;labelBackgroundColor=none;strokeWidth=1;fontFamily=Verdana;fontSize=28;align=center;comic=1;" parent="7YqNu8k0UD2kvPxJVRAt-10" vertex="1">
          <mxGeometry x="30" y="20" width="190" height="50" as="geometry" />
        </mxCell>
        <mxCell id="7YqNu8k0UD2kvPxJVRAt-12" value="Menu 1" style="text;html=1;points=[];align=left;verticalAlign=top;spacingTop=-4;fontSize=14;fontFamily=Verdana" parent="7YqNu8k0UD2kvPxJVRAt-10" vertex="1">
          <mxGeometry x="1290" y="35" width="60" height="20" as="geometry" />
        </mxCell>
        <mxCell id="7YqNu8k0UD2kvPxJVRAt-13" value="Menu 2" style="text;html=1;points=[];align=left;verticalAlign=top;spacingTop=-4;fontSize=14;fontFamily=Verdana" parent="7YqNu8k0UD2kvPxJVRAt-10" vertex="1">
          <mxGeometry x="1370" y="35" width="60" height="20" as="geometry" />
        </mxCell>
        <mxCell id="7YqNu8k0UD2kvPxJVRAt-14" value="Menu 3" style="text;html=1;points=[];align=left;verticalAlign=top;spacingTop=-4;fontSize=14;fontFamily=Verdana" parent="7YqNu8k0UD2kvPxJVRAt-10" vertex="1">
          <mxGeometry x="1440" y="35" width="60" height="20" as="geometry" />
        </mxCell>
        <mxCell id="7YqNu8k0UD2kvPxJVRAt-15" value="Menu 4" style="text;html=1;points=[];align=left;verticalAlign=top;spacingTop=-4;fontSize=14;fontFamily=Verdana" parent="7YqNu8k0UD2kvPxJVRAt-10" vertex="1">
          <mxGeometry x="1510" y="35" width="60" height="20" as="geometry" />
        </mxCell>
        <mxCell id="7YqNu8k0UD2kvPxJVRAt-16" value="" style="line;strokeWidth=1;html=1;rounded=0;shadow=0;labelBackgroundColor=none;fillColor=none;fontFamily=Verdana;fontSize=14;fontColor=#000000;align=center;comic=1;" parent="7YqNu8k0UD2kvPxJVRAt-10" vertex="1">
          <mxGeometry x="30" y="63" width="1540" height="50" as="geometry" />
        </mxCell>
        <mxCell id="7YqNu8k0UD2kvPxJVRAt-17" value="" style="whiteSpace=wrap;html=1;rounded=0;shadow=0;labelBackgroundColor=none;strokeWidth=1;fillColor=none;fontFamily=Verdana;fontSize=12;align=center;comic=1;" parent="7YqNu8k0UD2kvPxJVRAt-10" vertex="1">
          <mxGeometry x="280" y="150" width="1040" height="50" as="geometry" />
        </mxCell>
        <mxCell id="7YqNu8k0UD2kvPxJVRAt-18" value="HEADER" style="text;html=1;points=[];align=left;verticalAlign=top;spacingTop=-4;fontSize=14;fontFamily=Verdana" parent="7YqNu8k0UD2kvPxJVRAt-10" vertex="1">
          <mxGeometry x="770" y="165" width="60" height="20" as="geometry" />
        </mxCell>
        <mxCell id="7YqNu8k0UD2kvPxJVRAt-19" value="" style="verticalLabelPosition=bottom;shadow=0;dashed=0;align=center;html=1;verticalAlign=top;strokeWidth=1;shape=mxgraph.mockup.graphics.simpleIcon;strokeColor=#999999;" parent="7YqNu8k0UD2kvPxJVRAt-10" vertex="1">
          <mxGeometry x="665" y="210" width="270" height="50" as="geometry" />
        </mxCell>
      </root>
    </mxGraphModel>
  </diagram>
  <diagram name="mobile-header" id="05eSF24TcUiADn40OOa4">
    <mxGraphModel dx="706" dy="862" grid="1" gridSize="10" guides="1" tooltips="1" connect="1" arrows="1" fold="1" page="1" pageScale="1" pageWidth="340" pageHeight="480" background="none" math="0" shadow="0">
      <root>
        <mxCell id="OZeFwBwhYnvyTXCxdsO8-0" />
        <mxCell id="OZeFwBwhYnvyTXCxdsO8-1" style="locked=1;" parent="OZeFwBwhYnvyTXCxdsO8-0" />
        <mxCell id="OZeFwBwhYnvyTXCxdsO8-2" value="Header" style="" parent="OZeFwBwhYnvyTXCxdsO8-0" />
        <mxCell id="OZeFwBwhYnvyTXCxdsO8-3" value="LOGO" style="whiteSpace=wrap;html=1;rounded=0;shadow=0;labelBackgroundColor=none;strokeWidth=1;fontFamily=Verdana;fontSize=28;align=center;comic=1;" parent="OZeFwBwhYnvyTXCxdsO8-2" vertex="1">
          <mxGeometry x="690" y="10" width="190" height="50" as="geometry" />
        </mxCell>
        <mxCell id="OZeFwBwhYnvyTXCxdsO8-8" value="" style="line;strokeWidth=1;html=1;rounded=0;shadow=0;labelBackgroundColor=none;fillColor=none;fontFamily=Verdana;fontSize=14;fontColor=#000000;align=center;comic=1;" parent="OZeFwBwhYnvyTXCxdsO8-2" vertex="1">
          <mxGeometry x="680" y="63" width="340" height="50" as="geometry" />
        </mxCell>
        <mxCell id="OZeFwBwhYnvyTXCxdsO8-9" value="&lt;span style=&quot;font-size: 14px; text-align: left; text-wrap: nowrap;&quot;&gt;HEADER&lt;/span&gt;" style="whiteSpace=wrap;html=1;rounded=0;shadow=0;labelBackgroundColor=none;strokeWidth=1;fillColor=none;fontFamily=Verdana;fontSize=12;align=center;comic=1;" parent="OZeFwBwhYnvyTXCxdsO8-2" vertex="1">
          <mxGeometry x="720" y="110" width="260" height="50" as="geometry" />
        </mxCell>
        <mxCell id="OZeFwBwhYnvyTXCxdsO8-11" value="" style="verticalLabelPosition=bottom;shadow=0;dashed=0;align=center;html=1;verticalAlign=top;strokeWidth=1;shape=mxgraph.mockup.graphics.simpleIcon;strokeColor=#999999;" parent="OZeFwBwhYnvyTXCxdsO8-2" vertex="1">
          <mxGeometry x="752" y="170" width="197" height="20" as="geometry" />
        </mxCell>
        <mxCell id="ilD3SBuY0OjZTYAmqnx5-0" value="" style="editableCssRules=path;shape=image;aspect=fixed;image=data:image/svg+xml,PHN2ZyB4bWxucz0iaHR0cDovL3d3dy53My5vcmcvMjAwMC9zdmciIHZpZXdCb3g9IjAgMCA0NDggNTEyIj48IS0tISBGb250IEF3ZXNvbWUgRnJlZSA2LjEuMSBieSBAZm9udGF3ZXNvbWUgLSBodHRwczovL2ZvbnRhd2Vzb21lLmNvbSBMaWNlbnNlIC0gaHR0cHM6Ly9mb250YXdlc29tZS5jb20vbGljZW5zZS9mcmVlIChJY29uczogQ0MgQlkgNC4wLCBGb250czogU0lMIE9GTCAxLjEsIENvZGU6IE1JVCBMaWNlbnNlKSBDb3B5cmlnaHQgMjAyMiBGb250aWNvbnMsIEluYy4gLS0+PHN0eWxlIHR5cGU9InRleHQvY3NzIj5wYXRoIHsgZmlsbDogcmdiKDI2LCAyNiwgMjYpOyB9IDwvc3R5bGU+PHBhdGggZD0iTTAgOTZDMCA3OC4zMyAxNC4zMyA2NCAzMiA2NEg0MTZDNDMzLjcgNjQgNDQ4IDc4LjMzIDQ0OCA5NkM0NDggMTEzLjcgNDMzLjcgMTI4IDQxNiAxMjhIMzJDMTQuMzMgMTI4IDAgMTEzLjcgMCA5NnpNMCAyNTZDMCAyMzguMyAxNC4zMyAyMjQgMzIgMjI0SDQxNkM0MzMuNyAyMjQgNDQ4IDIzOC4zIDQ0OCAyNTZDNDQ4IDI3My43IDQzMy43IDI4OCA0MTYgMjg4SDMyQzE0LjMzIDI4OCAwIDI3My43IDAgMjU2ek00MTYgNDQ4SDMyQzE0LjMzIDQ0OCAwIDQzMy43IDAgNDE2QzAgMzk4LjMgMTQuMzMgMzg0IDMyIDM4NEg0MTZDNDMzLjcgMzg0IDQ0OCAzOTguMyA0NDggNDE2QzQ0OCA0MzMuNyA0MzMuNyA0NDggNDE2IDQ0OHoiLz48L3N2Zz4=;connectable=0;movable=1;verticalLabelPosition=bottom;resizable=1;rotatable=0;cloneable=0;deletable=1;recursiveResize=0;imageBackground=none;verticalAlign=top;shadow=0;dashed=0;comic=1;strokeColor=default;strokeWidth=1;align=left;spacingLeft=3;fontFamily=Helvetica;fontSize=17;fontColor=#666666;fillColor=default;" parent="OZeFwBwhYnvyTXCxdsO8-2" vertex="1">
          <mxGeometry x="950" y="10" width="53" height="53" as="geometry" />
        </mxCell>
      </root>
    </mxGraphModel>
  </diagram>
  <diagram name="mobile-backoffice" id="hOFTWobdBuNyk1soY5Xj">
    <mxGraphModel dx="706" dy="862" grid="1" gridSize="10" guides="1" tooltips="1" connect="1" arrows="1" fold="1" page="1" pageScale="1" pageWidth="340" pageHeight="480" background="none" math="0" shadow="0">
      <root>
        <mxCell id="T1Zt6zgpqxA5bwvITpLL-0" />
        <mxCell id="T1Zt6zgpqxA5bwvITpLL-1" style="locked=1;" parent="T1Zt6zgpqxA5bwvITpLL-0" />
        <mxCell id="T1Zt6zgpqxA5bwvITpLL-2" value="Header" style="" parent="T1Zt6zgpqxA5bwvITpLL-0" />
        <mxCell id="T1Zt6zgpqxA5bwvITpLL-3" value="LOGO" style="whiteSpace=wrap;html=1;rounded=0;shadow=0;labelBackgroundColor=none;strokeWidth=1;fontFamily=Verdana;fontSize=28;align=center;comic=1;" parent="T1Zt6zgpqxA5bwvITpLL-2" vertex="1">
          <mxGeometry x="690" y="10" width="190" height="50" as="geometry" />
        </mxCell>
        <mxCell id="T1Zt6zgpqxA5bwvITpLL-4" value="" style="line;strokeWidth=1;html=1;rounded=0;shadow=0;labelBackgroundColor=none;fillColor=none;fontFamily=Verdana;fontSize=14;fontColor=#000000;align=center;comic=1;" parent="T1Zt6zgpqxA5bwvITpLL-2" vertex="1">
          <mxGeometry x="680" y="63" width="340" height="50" as="geometry" />
        </mxCell>
        <mxCell id="T1Zt6zgpqxA5bwvITpLL-5" value="&lt;span style=&quot;font-size: 14px; text-align: left; text-wrap: nowrap;&quot;&gt;HEADER&lt;/span&gt;" style="whiteSpace=wrap;html=1;rounded=0;shadow=0;labelBackgroundColor=none;strokeWidth=1;fillColor=none;fontFamily=Verdana;fontSize=12;align=center;comic=1;" parent="T1Zt6zgpqxA5bwvITpLL-2" vertex="1">
          <mxGeometry x="720" y="110" width="260" height="50" as="geometry" />
        </mxCell>
        <mxCell id="T1Zt6zgpqxA5bwvITpLL-6" value="" style="verticalLabelPosition=bottom;shadow=0;dashed=0;align=center;html=1;verticalAlign=top;strokeWidth=1;shape=mxgraph.mockup.graphics.simpleIcon;strokeColor=#999999;" parent="T1Zt6zgpqxA5bwvITpLL-2" vertex="1">
          <mxGeometry x="752" y="170" width="197" height="20" as="geometry" />
        </mxCell>
        <mxCell id="T1Zt6zgpqxA5bwvITpLL-7" value="" style="editableCssRules=path;shape=image;aspect=fixed;image=data:image/svg+xml,PHN2ZyB4bWxucz0iaHR0cDovL3d3dy53My5vcmcvMjAwMC9zdmciIHZpZXdCb3g9IjAgMCA0NDggNTEyIj48IS0tISBGb250IEF3ZXNvbWUgRnJlZSA2LjEuMSBieSBAZm9udGF3ZXNvbWUgLSBodHRwczovL2ZvbnRhd2Vzb21lLmNvbSBMaWNlbnNlIC0gaHR0cHM6Ly9mb250YXdlc29tZS5jb20vbGljZW5zZS9mcmVlIChJY29uczogQ0MgQlkgNC4wLCBGb250czogU0lMIE9GTCAxLjEsIENvZGU6IE1JVCBMaWNlbnNlKSBDb3B5cmlnaHQgMjAyMiBGb250aWNvbnMsIEluYy4gLS0+PHN0eWxlIHR5cGU9InRleHQvY3NzIj5wYXRoIHsgZmlsbDogcmdiKDI2LCAyNiwgMjYpOyB9IDwvc3R5bGU+PHBhdGggZD0iTTAgOTZDMCA3OC4zMyAxNC4zMyA2NCAzMiA2NEg0MTZDNDMzLjcgNjQgNDQ4IDc4LjMzIDQ0OCA5NkM0NDggMTEzLjcgNDMzLjcgMTI4IDQxNiAxMjhIMzJDMTQuMzMgMTI4IDAgMTEzLjcgMCA5NnpNMCAyNTZDMCAyMzguMyAxNC4zMyAyMjQgMzIgMjI0SDQxNkM0MzMuNyAyMjQgNDQ4IDIzOC4zIDQ0OCAyNTZDNDQ4IDI3My43IDQzMy43IDI4OCA0MTYgMjg4SDMyQzE0LjMzIDI4OCAwIDI3My43IDAgMjU2ek00MTYgNDQ4SDMyQzE0LjMzIDQ0OCAwIDQzMy43IDAgNDE2QzAgMzk4LjMgMTQuMzMgMzg0IDMyIDM4NEg0MTZDNDMzLjcgMzg0IDQ0OCAzOTguMyA0NDggNDE2QzQ0OCA0MzMuNyA0MzMuNyA0NDggNDE2IDQ0OHoiLz48L3N2Zz4=;connectable=0;movable=1;verticalLabelPosition=bottom;resizable=1;rotatable=0;cloneable=0;deletable=1;recursiveResize=0;imageBackground=none;verticalAlign=top;shadow=0;dashed=0;comic=1;strokeColor=default;strokeWidth=1;align=left;spacingLeft=3;fontFamily=Helvetica;fontSize=17;fontColor=#666666;fillColor=default;" parent="T1Zt6zgpqxA5bwvITpLL-2" vertex="1">
          <mxGeometry x="950" y="10" width="53" height="53" as="geometry" />
        </mxCell>
        <mxCell id="rPBeAzwLpmXzjXTyW1pQ-0" value="Content" style="locked=1;" parent="T1Zt6zgpqxA5bwvITpLL-0" />
        <mxCell id="QMBF1FnHgQcAjr6BAjBn-0" value="MENU 1" style="whiteSpace=wrap;html=1;rounded=0;shadow=0;labelBackgroundColor=none;strokeWidth=1;fillColor=none;fontFamily=Verdana;fontSize=12;align=center;comic=1;verticalAlign=top;" parent="rPBeAzwLpmXzjXTyW1pQ-0" vertex="1">
          <mxGeometry x="760" y="210" width="80" height="70" as="geometry" />
        </mxCell>
        <mxCell id="QMBF1FnHgQcAjr6BAjBn-4" value="" style="verticalLabelPosition=bottom;shadow=0;dashed=0;align=center;html=1;verticalAlign=top;strokeWidth=1;shape=mxgraph.mockup.graphics.simpleIcon;strokeColor=#999999;" parent="rPBeAzwLpmXzjXTyW1pQ-0" vertex="1">
          <mxGeometry x="786.25" y="239" width="27.5" height="21" as="geometry" />
        </mxCell>
        <mxCell id="QMBF1FnHgQcAjr6BAjBn-18" value="MENU 2" style="whiteSpace=wrap;html=1;rounded=0;shadow=0;labelBackgroundColor=none;strokeWidth=1;fillColor=none;fontFamily=Verdana;fontSize=12;align=center;comic=1;verticalAlign=top;" parent="rPBeAzwLpmXzjXTyW1pQ-0" vertex="1">
          <mxGeometry x="850" y="210" width="80" height="70" as="geometry" />
        </mxCell>
        <mxCell id="QMBF1FnHgQcAjr6BAjBn-19" value="" style="verticalLabelPosition=bottom;shadow=0;dashed=0;align=center;html=1;verticalAlign=top;strokeWidth=1;shape=mxgraph.mockup.graphics.simpleIcon;strokeColor=#999999;" parent="rPBeAzwLpmXzjXTyW1pQ-0" vertex="1">
          <mxGeometry x="876.25" y="239" width="27.5" height="21" as="geometry" />
        </mxCell>
        <mxCell id="QMBF1FnHgQcAjr6BAjBn-20" value="MENU 3" style="whiteSpace=wrap;html=1;rounded=0;shadow=0;labelBackgroundColor=none;strokeWidth=1;fillColor=none;fontFamily=Verdana;fontSize=12;align=center;comic=1;verticalAlign=top;" parent="rPBeAzwLpmXzjXTyW1pQ-0" vertex="1">
          <mxGeometry x="760" y="290" width="80" height="70" as="geometry" />
        </mxCell>
        <mxCell id="QMBF1FnHgQcAjr6BAjBn-21" value="" style="verticalLabelPosition=bottom;shadow=0;dashed=0;align=center;html=1;verticalAlign=top;strokeWidth=1;shape=mxgraph.mockup.graphics.simpleIcon;strokeColor=#999999;" parent="rPBeAzwLpmXzjXTyW1pQ-0" vertex="1">
          <mxGeometry x="786.25" y="319" width="27.5" height="21" as="geometry" />
        </mxCell>
        <mxCell id="QMBF1FnHgQcAjr6BAjBn-22" value="MENU 4" style="whiteSpace=wrap;html=1;rounded=0;shadow=0;labelBackgroundColor=none;strokeWidth=1;fillColor=none;fontFamily=Verdana;fontSize=12;align=center;comic=1;verticalAlign=top;" parent="rPBeAzwLpmXzjXTyW1pQ-0" vertex="1">
          <mxGeometry x="850" y="290" width="80" height="70" as="geometry" />
        </mxCell>
        <mxCell id="QMBF1FnHgQcAjr6BAjBn-23" value="" style="verticalLabelPosition=bottom;shadow=0;dashed=0;align=center;html=1;verticalAlign=top;strokeWidth=1;shape=mxgraph.mockup.graphics.simpleIcon;strokeColor=#999999;" parent="rPBeAzwLpmXzjXTyW1pQ-0" vertex="1">
          <mxGeometry x="876.25" y="319" width="27.5" height="21" as="geometry" />
        </mxCell>
        <mxCell id="QMBF1FnHgQcAjr6BAjBn-40" value="MENU 5" style="whiteSpace=wrap;html=1;rounded=0;shadow=0;labelBackgroundColor=none;strokeWidth=1;fillColor=none;fontFamily=Verdana;fontSize=12;align=center;comic=1;verticalAlign=top;" parent="rPBeAzwLpmXzjXTyW1pQ-0" vertex="1">
          <mxGeometry x="760" y="370" width="80" height="70" as="geometry" />
        </mxCell>
        <mxCell id="QMBF1FnHgQcAjr6BAjBn-41" value="" style="verticalLabelPosition=bottom;shadow=0;dashed=0;align=center;html=1;verticalAlign=top;strokeWidth=1;shape=mxgraph.mockup.graphics.simpleIcon;strokeColor=#999999;" parent="rPBeAzwLpmXzjXTyW1pQ-0" vertex="1">
          <mxGeometry x="786.25" y="399" width="27.5" height="21" as="geometry" />
        </mxCell>
        <mxCell id="QMBF1FnHgQcAjr6BAjBn-42" value="MENU 6" style="whiteSpace=wrap;html=1;rounded=0;shadow=0;labelBackgroundColor=none;strokeWidth=1;fillColor=none;fontFamily=Verdana;fontSize=12;align=center;comic=1;verticalAlign=top;" parent="rPBeAzwLpmXzjXTyW1pQ-0" vertex="1">
          <mxGeometry x="850" y="370" width="80" height="70" as="geometry" />
        </mxCell>
        <mxCell id="QMBF1FnHgQcAjr6BAjBn-43" value="" style="verticalLabelPosition=bottom;shadow=0;dashed=0;align=center;html=1;verticalAlign=top;strokeWidth=1;shape=mxgraph.mockup.graphics.simpleIcon;strokeColor=#999999;" parent="rPBeAzwLpmXzjXTyW1pQ-0" vertex="1">
          <mxGeometry x="876.25" y="399" width="27.5" height="21" as="geometry" />
        </mxCell>
      </root>
    </mxGraphModel>
  </diagram>
  <diagram name="desktop-backoffice" id="BBjtkSE-DOwGxtZAvHXW">
    <mxGraphModel dx="1386" dy="910" grid="1" gridSize="10" guides="1" tooltips="1" connect="1" arrows="1" fold="1" page="1" pageScale="1" pageWidth="1600" pageHeight="900" background="none" math="0" shadow="0">
      <root>
        <mxCell id="u5tXyJ6_sJYEL4rUWsX_-0" />
        <mxCell id="u5tXyJ6_sJYEL4rUWsX_-1" style="locked=1;" parent="u5tXyJ6_sJYEL4rUWsX_-0" />
        <mxCell id="u5tXyJ6_sJYEL4rUWsX_-2" value="Header" style="locked=1;" parent="u5tXyJ6_sJYEL4rUWsX_-0" />
        <mxCell id="u5tXyJ6_sJYEL4rUWsX_-3" value="LOGO" style="whiteSpace=wrap;html=1;rounded=0;shadow=0;labelBackgroundColor=none;strokeWidth=1;fontFamily=Verdana;fontSize=28;align=center;comic=1;" parent="u5tXyJ6_sJYEL4rUWsX_-2" vertex="1">
          <mxGeometry x="30" y="20" width="190" height="50" as="geometry" />
        </mxCell>
        <mxCell id="u5tXyJ6_sJYEL4rUWsX_-4" value="Menu 1" style="text;html=1;points=[];align=left;verticalAlign=top;spacingTop=-4;fontSize=14;fontFamily=Verdana" parent="u5tXyJ6_sJYEL4rUWsX_-2" vertex="1">
          <mxGeometry x="1290" y="35" width="60" height="20" as="geometry" />
        </mxCell>
        <mxCell id="u5tXyJ6_sJYEL4rUWsX_-5" value="Menu 2" style="text;html=1;points=[];align=left;verticalAlign=top;spacingTop=-4;fontSize=14;fontFamily=Verdana" parent="u5tXyJ6_sJYEL4rUWsX_-2" vertex="1">
          <mxGeometry x="1370" y="35" width="60" height="20" as="geometry" />
        </mxCell>
        <mxCell id="u5tXyJ6_sJYEL4rUWsX_-6" value="Menu 3" style="text;html=1;points=[];align=left;verticalAlign=top;spacingTop=-4;fontSize=14;fontFamily=Verdana" parent="u5tXyJ6_sJYEL4rUWsX_-2" vertex="1">
          <mxGeometry x="1440" y="35" width="60" height="20" as="geometry" />
        </mxCell>
        <mxCell id="u5tXyJ6_sJYEL4rUWsX_-7" value="Menu 4" style="text;html=1;points=[];align=left;verticalAlign=top;spacingTop=-4;fontSize=14;fontFamily=Verdana" parent="u5tXyJ6_sJYEL4rUWsX_-2" vertex="1">
          <mxGeometry x="1510" y="35" width="60" height="20" as="geometry" />
        </mxCell>
        <mxCell id="u5tXyJ6_sJYEL4rUWsX_-8" value="" style="line;strokeWidth=1;html=1;rounded=0;shadow=0;labelBackgroundColor=none;fillColor=none;fontFamily=Verdana;fontSize=14;fontColor=#000000;align=center;comic=1;" parent="u5tXyJ6_sJYEL4rUWsX_-2" vertex="1">
          <mxGeometry x="30" y="63" width="1540" height="50" as="geometry" />
        </mxCell>
        <mxCell id="u5tXyJ6_sJYEL4rUWsX_-9" value="" style="whiteSpace=wrap;html=1;rounded=0;shadow=0;labelBackgroundColor=none;strokeWidth=1;fillColor=none;fontFamily=Verdana;fontSize=12;align=center;comic=1;" parent="u5tXyJ6_sJYEL4rUWsX_-2" vertex="1">
          <mxGeometry x="280" y="150" width="1040" height="50" as="geometry" />
        </mxCell>
        <mxCell id="u5tXyJ6_sJYEL4rUWsX_-10" value="HEADER" style="text;html=1;points=[];align=left;verticalAlign=top;spacingTop=-4;fontSize=14;fontFamily=Verdana" parent="u5tXyJ6_sJYEL4rUWsX_-2" vertex="1">
          <mxGeometry x="770" y="165" width="60" height="20" as="geometry" />
        </mxCell>
        <mxCell id="u5tXyJ6_sJYEL4rUWsX_-11" value="" style="verticalLabelPosition=bottom;shadow=0;dashed=0;align=center;html=1;verticalAlign=top;strokeWidth=1;shape=mxgraph.mockup.graphics.simpleIcon;strokeColor=#999999;" parent="u5tXyJ6_sJYEL4rUWsX_-2" vertex="1">
          <mxGeometry x="665" y="210" width="270" height="50" as="geometry" />
        </mxCell>
        <mxCell id="vedBJ0zM8l1TPhgyrFKi-12" value="Content" style="locked=1;" parent="u5tXyJ6_sJYEL4rUWsX_-0" />
        <mxCell id="vedBJ0zM8l1TPhgyrFKi-13" value="MENU 1" style="whiteSpace=wrap;html=1;rounded=0;shadow=0;labelBackgroundColor=none;strokeWidth=1;fillColor=none;fontFamily=Verdana;fontSize=12;align=center;comic=1;verticalAlign=top;" parent="vedBJ0zM8l1TPhgyrFKi-12" vertex="1">
          <mxGeometry x="445" y="344" width="230" height="180" as="geometry" />
        </mxCell>
        <mxCell id="vedBJ0zM8l1TPhgyrFKi-14" value="MENU 2" style="whiteSpace=wrap;html=1;rounded=0;shadow=0;labelBackgroundColor=none;strokeWidth=1;fillColor=none;fontFamily=Verdana;fontSize=12;align=center;comic=1;movableLabel=1;verticalAlign=top;" parent="vedBJ0zM8l1TPhgyrFKi-12" vertex="1">
          <mxGeometry x="685" y="345" width="230" height="180" as="geometry" />
        </mxCell>
        <mxCell id="vedBJ0zM8l1TPhgyrFKi-15" value="MENU 4" style="whiteSpace=wrap;html=1;rounded=0;shadow=0;labelBackgroundColor=none;strokeWidth=1;fillColor=none;fontFamily=Verdana;fontSize=12;align=center;comic=1;verticalAlign=top;" parent="vedBJ0zM8l1TPhgyrFKi-12" vertex="1">
          <mxGeometry x="445" y="535" width="230" height="180" as="geometry" />
        </mxCell>
        <mxCell id="vedBJ0zM8l1TPhgyrFKi-16" value="MENU 5" style="whiteSpace=wrap;html=1;rounded=0;shadow=0;labelBackgroundColor=none;strokeWidth=1;fillColor=none;fontFamily=Verdana;fontSize=12;align=center;comic=1;verticalAlign=top;" parent="vedBJ0zM8l1TPhgyrFKi-12" vertex="1">
          <mxGeometry x="685" y="536" width="230" height="180" as="geometry" />
        </mxCell>
        <mxCell id="vedBJ0zM8l1TPhgyrFKi-17" value="" style="verticalLabelPosition=bottom;shadow=0;dashed=0;align=center;html=1;verticalAlign=top;strokeWidth=1;shape=mxgraph.mockup.graphics.simpleIcon;strokeColor=#999999;" parent="vedBJ0zM8l1TPhgyrFKi-12" vertex="1">
          <mxGeometry x="477.5" y="383" width="165" height="125" as="geometry" />
        </mxCell>
        <mxCell id="vedBJ0zM8l1TPhgyrFKi-18" value="" style="verticalLabelPosition=bottom;shadow=0;dashed=0;align=center;html=1;verticalAlign=top;strokeWidth=1;shape=mxgraph.mockup.graphics.simpleIcon;strokeColor=#999999;" parent="vedBJ0zM8l1TPhgyrFKi-12" vertex="1">
          <mxGeometry x="717.5" y="383" width="165" height="125" as="geometry" />
        </mxCell>
        <mxCell id="vedBJ0zM8l1TPhgyrFKi-19" value="" style="verticalLabelPosition=bottom;shadow=0;dashed=0;align=center;html=1;verticalAlign=top;strokeWidth=1;shape=mxgraph.mockup.graphics.simpleIcon;strokeColor=#999999;" parent="vedBJ0zM8l1TPhgyrFKi-12" vertex="1">
          <mxGeometry x="477.5" y="575" width="165" height="125" as="geometry" />
        </mxCell>
        <mxCell id="vedBJ0zM8l1TPhgyrFKi-20" value="" style="verticalLabelPosition=bottom;shadow=0;dashed=0;align=center;html=1;verticalAlign=top;strokeWidth=1;shape=mxgraph.mockup.graphics.simpleIcon;strokeColor=#999999;" parent="vedBJ0zM8l1TPhgyrFKi-12" vertex="1">
          <mxGeometry x="717.5" y="575" width="165" height="125" as="geometry" />
        </mxCell>
        <mxCell id="vedBJ0zM8l1TPhgyrFKi-21" value="MENU 3" style="whiteSpace=wrap;html=1;rounded=0;shadow=0;labelBackgroundColor=none;strokeWidth=1;fillColor=none;fontFamily=Verdana;fontSize=12;align=center;comic=1;movableLabel=1;verticalAlign=top;" parent="vedBJ0zM8l1TPhgyrFKi-12" vertex="1">
          <mxGeometry x="925" y="344" width="230" height="180" as="geometry" />
        </mxCell>
        <mxCell id="vedBJ0zM8l1TPhgyrFKi-22" value="MENU 6" style="whiteSpace=wrap;html=1;rounded=0;shadow=0;labelBackgroundColor=none;strokeWidth=1;fillColor=none;fontFamily=Verdana;fontSize=12;align=center;comic=1;verticalAlign=top;" parent="vedBJ0zM8l1TPhgyrFKi-12" vertex="1">
          <mxGeometry x="925" y="535" width="230" height="180" as="geometry" />
        </mxCell>
        <mxCell id="vedBJ0zM8l1TPhgyrFKi-23" value="" style="verticalLabelPosition=bottom;shadow=0;dashed=0;align=center;html=1;verticalAlign=top;strokeWidth=1;shape=mxgraph.mockup.graphics.simpleIcon;strokeColor=#999999;" parent="vedBJ0zM8l1TPhgyrFKi-12" vertex="1">
          <mxGeometry x="957.5" y="382" width="165" height="125" as="geometry" />
        </mxCell>
        <mxCell id="vedBJ0zM8l1TPhgyrFKi-24" value="" style="verticalLabelPosition=bottom;shadow=0;dashed=0;align=center;html=1;verticalAlign=top;strokeWidth=1;shape=mxgraph.mockup.graphics.simpleIcon;strokeColor=#999999;" parent="vedBJ0zM8l1TPhgyrFKi-12" vertex="1">
          <mxGeometry x="957.5" y="574" width="165" height="125" as="geometry" />
        </mxCell>
      </root>
    </mxGraphModel>
  </diagram>
  <diagram name="mobile-animals" id="hXKaGxmr4RZ-k2qIATxm">
    <mxGraphModel dx="706" dy="862" grid="1" gridSize="10" guides="1" tooltips="1" connect="1" arrows="1" fold="1" page="1" pageScale="1" pageWidth="340" pageHeight="480" background="none" math="0" shadow="0">
      <root>
        <mxCell id="UbxVl1P6XpURnpthgCEg-0" />
        <mxCell id="UbxVl1P6XpURnpthgCEg-1" style="locked=1;" parent="UbxVl1P6XpURnpthgCEg-0" />
        <mxCell id="UbxVl1P6XpURnpthgCEg-2" value="Header" style="" parent="UbxVl1P6XpURnpthgCEg-0" />
        <mxCell id="UbxVl1P6XpURnpthgCEg-3" value="LOGO" style="whiteSpace=wrap;html=1;rounded=0;shadow=0;labelBackgroundColor=none;strokeWidth=1;fontFamily=Verdana;fontSize=28;align=center;comic=1;" parent="UbxVl1P6XpURnpthgCEg-2" vertex="1">
          <mxGeometry x="690" y="10" width="190" height="50" as="geometry" />
        </mxCell>
        <mxCell id="UbxVl1P6XpURnpthgCEg-4" value="" style="line;strokeWidth=1;html=1;rounded=0;shadow=0;labelBackgroundColor=none;fillColor=none;fontFamily=Verdana;fontSize=14;fontColor=#000000;align=center;comic=1;" parent="UbxVl1P6XpURnpthgCEg-2" vertex="1">
          <mxGeometry x="680" y="63" width="340" height="50" as="geometry" />
        </mxCell>
        <mxCell id="UbxVl1P6XpURnpthgCEg-5" value="&lt;span style=&quot;font-size: 14px; text-align: left; text-wrap: nowrap;&quot;&gt;HEADER&lt;/span&gt;" style="whiteSpace=wrap;html=1;rounded=0;shadow=0;labelBackgroundColor=none;strokeWidth=1;fillColor=none;fontFamily=Verdana;fontSize=12;align=center;comic=1;" parent="UbxVl1P6XpURnpthgCEg-2" vertex="1">
          <mxGeometry x="720" y="110" width="260" height="50" as="geometry" />
        </mxCell>
        <mxCell id="UbxVl1P6XpURnpthgCEg-6" value="" style="verticalLabelPosition=bottom;shadow=0;dashed=0;align=center;html=1;verticalAlign=top;strokeWidth=1;shape=mxgraph.mockup.graphics.simpleIcon;strokeColor=#999999;" parent="UbxVl1P6XpURnpthgCEg-2" vertex="1">
          <mxGeometry x="752" y="170" width="197" height="20" as="geometry" />
        </mxCell>
        <mxCell id="UbxVl1P6XpURnpthgCEg-7" value="" style="editableCssRules=path;shape=image;aspect=fixed;image=data:image/svg+xml,PHN2ZyB4bWxucz0iaHR0cDovL3d3dy53My5vcmcvMjAwMC9zdmciIHZpZXdCb3g9IjAgMCA0NDggNTEyIj48IS0tISBGb250IEF3ZXNvbWUgRnJlZSA2LjEuMSBieSBAZm9udGF3ZXNvbWUgLSBodHRwczovL2ZvbnRhd2Vzb21lLmNvbSBMaWNlbnNlIC0gaHR0cHM6Ly9mb250YXdlc29tZS5jb20vbGljZW5zZS9mcmVlIChJY29uczogQ0MgQlkgNC4wLCBGb250czogU0lMIE9GTCAxLjEsIENvZGU6IE1JVCBMaWNlbnNlKSBDb3B5cmlnaHQgMjAyMiBGb250aWNvbnMsIEluYy4gLS0+PHN0eWxlIHR5cGU9InRleHQvY3NzIj5wYXRoIHsgZmlsbDogcmdiKDI2LCAyNiwgMjYpOyB9IDwvc3R5bGU+PHBhdGggZD0iTTAgOTZDMCA3OC4zMyAxNC4zMyA2NCAzMiA2NEg0MTZDNDMzLjcgNjQgNDQ4IDc4LjMzIDQ0OCA5NkM0NDggMTEzLjcgNDMzLjcgMTI4IDQxNiAxMjhIMzJDMTQuMzMgMTI4IDAgMTEzLjcgMCA5NnpNMCAyNTZDMCAyMzguMyAxNC4zMyAyMjQgMzIgMjI0SDQxNkM0MzMuNyAyMjQgNDQ4IDIzOC4zIDQ0OCAyNTZDNDQ4IDI3My43IDQzMy43IDI4OCA0MTYgMjg4SDMyQzE0LjMzIDI4OCAwIDI3My43IDAgMjU2ek00MTYgNDQ4SDMyQzE0LjMzIDQ0OCAwIDQzMy43IDAgNDE2QzAgMzk4LjMgMTQuMzMgMzg0IDMyIDM4NEg0MTZDNDMzLjcgMzg0IDQ0OCAzOTguMyA0NDggNDE2QzQ0OCA0MzMuNyA0MzMuNyA0NDggNDE2IDQ0OHoiLz48L3N2Zz4=;connectable=0;movable=1;verticalLabelPosition=bottom;resizable=1;rotatable=0;cloneable=0;deletable=1;recursiveResize=0;imageBackground=none;verticalAlign=top;shadow=0;dashed=0;comic=1;strokeColor=default;strokeWidth=1;align=left;spacingLeft=3;fontFamily=Helvetica;fontSize=17;fontColor=#1A1A1A;fillColor=default;" parent="UbxVl1P6XpURnpthgCEg-2" vertex="1">
          <mxGeometry x="950" y="10" width="53" height="53" as="geometry" />
        </mxCell>
        <mxCell id="7PteX6oxhd5rP_fcGun2-0" value="Content" style="locked=1;" parent="UbxVl1P6XpURnpthgCEg-0" />
        <mxCell id="v1wT2zptg9y1boaLSMFx-0" value="&lt;font style=&quot;font-size: 20px;&quot;&gt;Button 1&lt;/font&gt;" style="whiteSpace=wrap;html=1;rounded=0;shadow=0;labelBackgroundColor=none;strokeWidth=1;fontFamily=Verdana;fontSize=20;align=center;comic=1;verticalAlign=middle;" parent="7PteX6oxhd5rP_fcGun2-0" vertex="1">
          <mxGeometry x="725" y="206" width="125" height="34" as="geometry" />
        </mxCell>
        <mxCell id="v1wT2zptg9y1boaLSMFx-1" value="&lt;font style=&quot;font-size: 20px;&quot;&gt;Button 2&lt;/font&gt;" style="whiteSpace=wrap;html=1;rounded=0;shadow=0;labelBackgroundColor=none;strokeWidth=1;fontFamily=Verdana;fontSize=20;align=center;comic=1;verticalAlign=middle;" parent="7PteX6oxhd5rP_fcGun2-0" vertex="1">
          <mxGeometry x="860" y="206" width="124" height="34" as="geometry" />
        </mxCell>
        <mxCell id="v1wT2zptg9y1boaLSMFx-2" value="" style="shape=table;startSize=0;container=1;collapsible=0;childLayout=tableLayout;comic=1;fontSize=2;" parent="7PteX6oxhd5rP_fcGun2-0" vertex="1">
          <mxGeometry x="690" y="310" width="320" height="90" as="geometry" />
        </mxCell>
        <mxCell id="v1wT2zptg9y1boaLSMFx-3" value="" style="shape=tableRow;horizontal=0;startSize=0;swimlaneHead=0;swimlaneBody=0;strokeColor=inherit;top=0;left=0;bottom=0;right=0;collapsible=0;dropTarget=0;fillColor=none;points=[[0,0.5],[1,0.5]];portConstraint=eastwest;" parent="v1wT2zptg9y1boaLSMFx-2" vertex="1">
          <mxGeometry width="320" height="45" as="geometry" />
        </mxCell>
        <mxCell id="v1wT2zptg9y1boaLSMFx-4" value="Column 1" style="shape=partialRectangle;html=1;whiteSpace=wrap;connectable=0;strokeColor=inherit;overflow=hidden;fillColor=none;top=0;left=0;bottom=0;right=0;pointerEvents=1;fontSize=10;" parent="v1wT2zptg9y1boaLSMFx-3" vertex="1">
          <mxGeometry width="53" height="45" as="geometry">
            <mxRectangle width="53" height="45" as="alternateBounds" />
          </mxGeometry>
        </mxCell>
        <mxCell id="v1wT2zptg9y1boaLSMFx-5" value="Column 2" style="shape=partialRectangle;html=1;whiteSpace=wrap;connectable=0;strokeColor=inherit;overflow=hidden;fillColor=none;top=0;left=0;bottom=0;right=0;pointerEvents=1;fontSize=10;" parent="v1wT2zptg9y1boaLSMFx-3" vertex="1">
          <mxGeometry x="53" width="53" height="45" as="geometry">
            <mxRectangle width="53" height="45" as="alternateBounds" />
          </mxGeometry>
        </mxCell>
        <mxCell id="v1wT2zptg9y1boaLSMFx-6" value="Column 3" style="shape=partialRectangle;html=1;whiteSpace=wrap;connectable=0;strokeColor=inherit;overflow=hidden;fillColor=none;top=0;left=0;bottom=0;right=0;pointerEvents=1;fontSize=10;" parent="v1wT2zptg9y1boaLSMFx-3" vertex="1">
          <mxGeometry x="106" width="55" height="45" as="geometry">
            <mxRectangle width="55" height="45" as="alternateBounds" />
          </mxGeometry>
        </mxCell>
        <mxCell id="v1wT2zptg9y1boaLSMFx-7" value="Column 4" style="shape=partialRectangle;html=1;whiteSpace=wrap;connectable=0;strokeColor=inherit;overflow=hidden;fillColor=none;top=0;left=0;bottom=0;right=0;pointerEvents=1;fontSize=10;" parent="v1wT2zptg9y1boaLSMFx-3" vertex="1">
          <mxGeometry x="161" width="53" height="45" as="geometry">
            <mxRectangle width="53" height="45" as="alternateBounds" />
          </mxGeometry>
        </mxCell>
        <mxCell id="v1wT2zptg9y1boaLSMFx-8" value="Column 5" style="shape=partialRectangle;html=1;whiteSpace=wrap;connectable=0;strokeColor=inherit;overflow=hidden;fillColor=none;top=0;left=0;bottom=0;right=0;pointerEvents=1;fontSize=10;" parent="v1wT2zptg9y1boaLSMFx-3" vertex="1">
          <mxGeometry x="214" width="53" height="45" as="geometry">
            <mxRectangle width="53" height="45" as="alternateBounds" />
          </mxGeometry>
        </mxCell>
        <mxCell id="v1wT2zptg9y1boaLSMFx-9" value="Column 6" style="shape=partialRectangle;html=1;whiteSpace=wrap;connectable=0;strokeColor=inherit;overflow=hidden;fillColor=none;top=0;left=0;bottom=0;right=0;pointerEvents=1;fontSize=10;" parent="v1wT2zptg9y1boaLSMFx-3" vertex="1">
          <mxGeometry x="267" width="53" height="45" as="geometry">
            <mxRectangle width="53" height="45" as="alternateBounds" />
          </mxGeometry>
        </mxCell>
        <mxCell id="v1wT2zptg9y1boaLSMFx-10" value="" style="shape=tableRow;horizontal=0;startSize=0;swimlaneHead=0;swimlaneBody=0;strokeColor=inherit;top=0;left=0;bottom=0;right=0;collapsible=0;dropTarget=0;fillColor=none;points=[[0,0.5],[1,0.5]];portConstraint=eastwest;" parent="v1wT2zptg9y1boaLSMFx-2" vertex="1">
          <mxGeometry y="45" width="320" height="45" as="geometry" />
        </mxCell>
        <mxCell id="v1wT2zptg9y1boaLSMFx-11" value="Row 1" style="shape=partialRectangle;html=1;whiteSpace=wrap;connectable=0;strokeColor=inherit;overflow=hidden;fillColor=none;top=0;left=0;bottom=0;right=0;pointerEvents=1;fontSize=10;" parent="v1wT2zptg9y1boaLSMFx-10" vertex="1">
          <mxGeometry width="53" height="45" as="geometry">
            <mxRectangle width="53" height="45" as="alternateBounds" />
          </mxGeometry>
        </mxCell>
        <mxCell id="v1wT2zptg9y1boaLSMFx-12" value="Row 1" style="shape=partialRectangle;html=1;whiteSpace=wrap;connectable=0;strokeColor=inherit;overflow=hidden;fillColor=none;top=0;left=0;bottom=0;right=0;pointerEvents=1;fontSize=10;" parent="v1wT2zptg9y1boaLSMFx-10" vertex="1">
          <mxGeometry x="53" width="53" height="45" as="geometry">
            <mxRectangle width="53" height="45" as="alternateBounds" />
          </mxGeometry>
        </mxCell>
        <mxCell id="v1wT2zptg9y1boaLSMFx-13" value="Row 1" style="shape=partialRectangle;html=1;whiteSpace=wrap;connectable=0;strokeColor=inherit;overflow=hidden;fillColor=none;top=0;left=0;bottom=0;right=0;pointerEvents=1;fontSize=10;" parent="v1wT2zptg9y1boaLSMFx-10" vertex="1">
          <mxGeometry x="106" width="55" height="45" as="geometry">
            <mxRectangle width="55" height="45" as="alternateBounds" />
          </mxGeometry>
        </mxCell>
        <mxCell id="v1wT2zptg9y1boaLSMFx-14" value="Row 1" style="shape=partialRectangle;html=1;whiteSpace=wrap;connectable=0;strokeColor=inherit;overflow=hidden;fillColor=none;top=0;left=0;bottom=0;right=0;pointerEvents=1;fontSize=10;" parent="v1wT2zptg9y1boaLSMFx-10" vertex="1">
          <mxGeometry x="161" width="53" height="45" as="geometry">
            <mxRectangle width="53" height="45" as="alternateBounds" />
          </mxGeometry>
        </mxCell>
        <mxCell id="v1wT2zptg9y1boaLSMFx-15" value="Row 1" style="shape=partialRectangle;html=1;whiteSpace=wrap;connectable=0;strokeColor=inherit;overflow=hidden;fillColor=none;top=0;left=0;bottom=0;right=0;pointerEvents=1;fontSize=10;" parent="v1wT2zptg9y1boaLSMFx-10" vertex="1">
          <mxGeometry x="214" width="53" height="45" as="geometry">
            <mxRectangle width="53" height="45" as="alternateBounds" />
          </mxGeometry>
        </mxCell>
        <mxCell id="v1wT2zptg9y1boaLSMFx-16" value="Row 1" style="shape=partialRectangle;html=1;whiteSpace=wrap;connectable=0;strokeColor=inherit;overflow=hidden;fillColor=none;top=0;left=0;bottom=0;right=0;pointerEvents=1;fontSize=10;" parent="v1wT2zptg9y1boaLSMFx-10" vertex="1">
          <mxGeometry x="267" width="53" height="45" as="geometry">
            <mxRectangle width="53" height="45" as="alternateBounds" />
          </mxGeometry>
        </mxCell>
      </root>
    </mxGraphModel>
  </diagram>
  <diagram name="desktop-animals" id="C6t-3RBE0cOxXUbPyu9J">
    <mxGraphModel dx="1386" dy="910" grid="1" gridSize="10" guides="1" tooltips="1" connect="1" arrows="1" fold="1" page="1" pageScale="1" pageWidth="1600" pageHeight="900" background="none" math="0" shadow="0">
      <root>
        <mxCell id="ybhmMPaV8ckDlRvjS4hh-0" />
        <mxCell id="ybhmMPaV8ckDlRvjS4hh-1" style="locked=1;" parent="ybhmMPaV8ckDlRvjS4hh-0" />
        <mxCell id="ybhmMPaV8ckDlRvjS4hh-2" value="Header" style="locked=1;" parent="ybhmMPaV8ckDlRvjS4hh-0" />
        <mxCell id="ybhmMPaV8ckDlRvjS4hh-3" value="LOGO" style="whiteSpace=wrap;html=1;rounded=0;shadow=0;labelBackgroundColor=none;strokeWidth=1;fontFamily=Verdana;fontSize=28;align=center;comic=1;" parent="ybhmMPaV8ckDlRvjS4hh-2" vertex="1">
          <mxGeometry x="30" y="20" width="190" height="50" as="geometry" />
        </mxCell>
        <mxCell id="ybhmMPaV8ckDlRvjS4hh-4" value="Menu 1" style="text;html=1;points=[];align=left;verticalAlign=top;spacingTop=-4;fontSize=14;fontFamily=Verdana" parent="ybhmMPaV8ckDlRvjS4hh-2" vertex="1">
          <mxGeometry x="1290" y="35" width="60" height="20" as="geometry" />
        </mxCell>
        <mxCell id="ybhmMPaV8ckDlRvjS4hh-5" value="Menu 2" style="text;html=1;points=[];align=left;verticalAlign=top;spacingTop=-4;fontSize=14;fontFamily=Verdana" parent="ybhmMPaV8ckDlRvjS4hh-2" vertex="1">
          <mxGeometry x="1370" y="35" width="60" height="20" as="geometry" />
        </mxCell>
        <mxCell id="ybhmMPaV8ckDlRvjS4hh-6" value="Menu 3" style="text;html=1;points=[];align=left;verticalAlign=top;spacingTop=-4;fontSize=14;fontFamily=Verdana" parent="ybhmMPaV8ckDlRvjS4hh-2" vertex="1">
          <mxGeometry x="1440" y="35" width="60" height="20" as="geometry" />
        </mxCell>
        <mxCell id="ybhmMPaV8ckDlRvjS4hh-7" value="Menu 4" style="text;html=1;points=[];align=left;verticalAlign=top;spacingTop=-4;fontSize=14;fontFamily=Verdana" parent="ybhmMPaV8ckDlRvjS4hh-2" vertex="1">
          <mxGeometry x="1510" y="35" width="60" height="20" as="geometry" />
        </mxCell>
        <mxCell id="ybhmMPaV8ckDlRvjS4hh-8" value="" style="line;strokeWidth=1;html=1;rounded=0;shadow=0;labelBackgroundColor=none;fillColor=none;fontFamily=Verdana;fontSize=14;fontColor=#000000;align=center;comic=1;" parent="ybhmMPaV8ckDlRvjS4hh-2" vertex="1">
          <mxGeometry x="30" y="63" width="1540" height="50" as="geometry" />
        </mxCell>
        <mxCell id="ybhmMPaV8ckDlRvjS4hh-9" value="" style="whiteSpace=wrap;html=1;rounded=0;shadow=0;labelBackgroundColor=none;strokeWidth=1;fillColor=none;fontFamily=Verdana;fontSize=12;align=center;comic=1;" parent="ybhmMPaV8ckDlRvjS4hh-2" vertex="1">
          <mxGeometry x="280" y="150" width="1040" height="50" as="geometry" />
        </mxCell>
        <mxCell id="ybhmMPaV8ckDlRvjS4hh-10" value="HEADER" style="text;html=1;points=[];align=left;verticalAlign=top;spacingTop=-4;fontSize=14;fontFamily=Verdana" parent="ybhmMPaV8ckDlRvjS4hh-2" vertex="1">
          <mxGeometry x="770" y="165" width="60" height="20" as="geometry" />
        </mxCell>
        <mxCell id="ybhmMPaV8ckDlRvjS4hh-11" value="" style="verticalLabelPosition=bottom;shadow=0;dashed=0;align=center;html=1;verticalAlign=top;strokeWidth=1;shape=mxgraph.mockup.graphics.simpleIcon;strokeColor=#999999;" parent="ybhmMPaV8ckDlRvjS4hh-2" vertex="1">
          <mxGeometry x="665" y="210" width="270" height="50" as="geometry" />
        </mxCell>
        <mxCell id="_hJdyAHGnpdggQTVWJaW-0" value="Content" style="locked=1;" parent="ybhmMPaV8ckDlRvjS4hh-0" />
        <mxCell id="_hJdyAHGnpdggQTVWJaW-1" value="&lt;font style=&quot;font-size: 20px;&quot;&gt;Button 1&lt;/font&gt;" style="whiteSpace=wrap;html=1;rounded=0;shadow=0;labelBackgroundColor=none;strokeWidth=1;fontFamily=Verdana;fontSize=20;align=center;comic=1;verticalAlign=middle;" parent="_hJdyAHGnpdggQTVWJaW-0" vertex="1">
          <mxGeometry x="620" y="296" width="165" height="30" as="geometry" />
        </mxCell>
        <mxCell id="_hJdyAHGnpdggQTVWJaW-2" value="&lt;font style=&quot;font-size: 20px;&quot;&gt;Button 2&lt;/font&gt;" style="whiteSpace=wrap;html=1;rounded=0;shadow=0;labelBackgroundColor=none;strokeWidth=1;fontFamily=Verdana;fontSize=20;align=center;comic=1;verticalAlign=middle;" parent="_hJdyAHGnpdggQTVWJaW-0" vertex="1">
          <mxGeometry x="815" y="296" width="165" height="30" as="geometry" />
        </mxCell>
        <mxCell id="_hJdyAHGnpdggQTVWJaW-3" value="" style="shape=table;startSize=0;container=1;collapsible=0;childLayout=tableLayout;comic=1;" parent="_hJdyAHGnpdggQTVWJaW-0" vertex="1">
          <mxGeometry x="395" y="350" width="810" height="100" as="geometry" />
        </mxCell>
        <mxCell id="_hJdyAHGnpdggQTVWJaW-4" value="" style="shape=tableRow;horizontal=0;startSize=0;swimlaneHead=0;swimlaneBody=0;strokeColor=inherit;top=0;left=0;bottom=0;right=0;collapsible=0;dropTarget=0;fillColor=none;points=[[0,0.5],[1,0.5]];portConstraint=eastwest;" parent="_hJdyAHGnpdggQTVWJaW-3" vertex="1">
          <mxGeometry width="810" height="50" as="geometry" />
        </mxCell>
        <mxCell id="_hJdyAHGnpdggQTVWJaW-5" value="Column 1" style="shape=partialRectangle;html=1;whiteSpace=wrap;connectable=0;strokeColor=inherit;overflow=hidden;fillColor=none;top=0;left=0;bottom=0;right=0;pointerEvents=1;" parent="_hJdyAHGnpdggQTVWJaW-4" vertex="1">
          <mxGeometry width="135" height="50" as="geometry">
            <mxRectangle width="135" height="50" as="alternateBounds" />
          </mxGeometry>
        </mxCell>
        <mxCell id="_hJdyAHGnpdggQTVWJaW-6" value="Column 2" style="shape=partialRectangle;html=1;whiteSpace=wrap;connectable=0;strokeColor=inherit;overflow=hidden;fillColor=none;top=0;left=0;bottom=0;right=0;pointerEvents=1;" parent="_hJdyAHGnpdggQTVWJaW-4" vertex="1">
          <mxGeometry x="135" width="135" height="50" as="geometry">
            <mxRectangle width="135" height="50" as="alternateBounds" />
          </mxGeometry>
        </mxCell>
        <mxCell id="_hJdyAHGnpdggQTVWJaW-7" value="Column 3" style="shape=partialRectangle;html=1;whiteSpace=wrap;connectable=0;strokeColor=inherit;overflow=hidden;fillColor=none;top=0;left=0;bottom=0;right=0;pointerEvents=1;" parent="_hJdyAHGnpdggQTVWJaW-4" vertex="1">
          <mxGeometry x="270" width="135" height="50" as="geometry">
            <mxRectangle width="135" height="50" as="alternateBounds" />
          </mxGeometry>
        </mxCell>
        <mxCell id="_hJdyAHGnpdggQTVWJaW-8" value="Column 4" style="shape=partialRectangle;html=1;whiteSpace=wrap;connectable=0;strokeColor=inherit;overflow=hidden;fillColor=none;top=0;left=0;bottom=0;right=0;pointerEvents=1;" parent="_hJdyAHGnpdggQTVWJaW-4" vertex="1">
          <mxGeometry x="405" width="135" height="50" as="geometry">
            <mxRectangle width="135" height="50" as="alternateBounds" />
          </mxGeometry>
        </mxCell>
        <mxCell id="_hJdyAHGnpdggQTVWJaW-9" value="Column 5" style="shape=partialRectangle;html=1;whiteSpace=wrap;connectable=0;strokeColor=inherit;overflow=hidden;fillColor=none;top=0;left=0;bottom=0;right=0;pointerEvents=1;" parent="_hJdyAHGnpdggQTVWJaW-4" vertex="1">
          <mxGeometry x="540" width="135" height="50" as="geometry">
            <mxRectangle width="135" height="50" as="alternateBounds" />
          </mxGeometry>
        </mxCell>
        <mxCell id="_hJdyAHGnpdggQTVWJaW-10" value="Column 6" style="shape=partialRectangle;html=1;whiteSpace=wrap;connectable=0;strokeColor=inherit;overflow=hidden;fillColor=none;top=0;left=0;bottom=0;right=0;pointerEvents=1;" parent="_hJdyAHGnpdggQTVWJaW-4" vertex="1">
          <mxGeometry x="675" width="135" height="50" as="geometry">
            <mxRectangle width="135" height="50" as="alternateBounds" />
          </mxGeometry>
        </mxCell>
        <mxCell id="_hJdyAHGnpdggQTVWJaW-11" value="" style="shape=tableRow;horizontal=0;startSize=0;swimlaneHead=0;swimlaneBody=0;strokeColor=inherit;top=0;left=0;bottom=0;right=0;collapsible=0;dropTarget=0;fillColor=none;points=[[0,0.5],[1,0.5]];portConstraint=eastwest;" parent="_hJdyAHGnpdggQTVWJaW-3" vertex="1">
          <mxGeometry y="50" width="810" height="50" as="geometry" />
        </mxCell>
        <mxCell id="_hJdyAHGnpdggQTVWJaW-12" value="Row 1" style="shape=partialRectangle;html=1;whiteSpace=wrap;connectable=0;strokeColor=inherit;overflow=hidden;fillColor=none;top=0;left=0;bottom=0;right=0;pointerEvents=1;" parent="_hJdyAHGnpdggQTVWJaW-11" vertex="1">
          <mxGeometry width="135" height="50" as="geometry">
            <mxRectangle width="135" height="50" as="alternateBounds" />
          </mxGeometry>
        </mxCell>
        <mxCell id="_hJdyAHGnpdggQTVWJaW-13" value="Row 1" style="shape=partialRectangle;html=1;whiteSpace=wrap;connectable=0;strokeColor=inherit;overflow=hidden;fillColor=none;top=0;left=0;bottom=0;right=0;pointerEvents=1;" parent="_hJdyAHGnpdggQTVWJaW-11" vertex="1">
          <mxGeometry x="135" width="135" height="50" as="geometry">
            <mxRectangle width="135" height="50" as="alternateBounds" />
          </mxGeometry>
        </mxCell>
        <mxCell id="_hJdyAHGnpdggQTVWJaW-14" value="Row 1" style="shape=partialRectangle;html=1;whiteSpace=wrap;connectable=0;strokeColor=inherit;overflow=hidden;fillColor=none;top=0;left=0;bottom=0;right=0;pointerEvents=1;" parent="_hJdyAHGnpdggQTVWJaW-11" vertex="1">
          <mxGeometry x="270" width="135" height="50" as="geometry">
            <mxRectangle width="135" height="50" as="alternateBounds" />
          </mxGeometry>
        </mxCell>
        <mxCell id="_hJdyAHGnpdggQTVWJaW-15" value="Row 1" style="shape=partialRectangle;html=1;whiteSpace=wrap;connectable=0;strokeColor=inherit;overflow=hidden;fillColor=none;top=0;left=0;bottom=0;right=0;pointerEvents=1;" parent="_hJdyAHGnpdggQTVWJaW-11" vertex="1">
          <mxGeometry x="405" width="135" height="50" as="geometry">
            <mxRectangle width="135" height="50" as="alternateBounds" />
          </mxGeometry>
        </mxCell>
        <mxCell id="_hJdyAHGnpdggQTVWJaW-16" value="Row 1" style="shape=partialRectangle;html=1;whiteSpace=wrap;connectable=0;strokeColor=inherit;overflow=hidden;fillColor=none;top=0;left=0;bottom=0;right=0;pointerEvents=1;" parent="_hJdyAHGnpdggQTVWJaW-11" vertex="1">
          <mxGeometry x="540" width="135" height="50" as="geometry">
            <mxRectangle width="135" height="50" as="alternateBounds" />
          </mxGeometry>
        </mxCell>
        <mxCell id="_hJdyAHGnpdggQTVWJaW-17" value="Row 1" style="shape=partialRectangle;html=1;whiteSpace=wrap;connectable=0;strokeColor=inherit;overflow=hidden;fillColor=none;top=0;left=0;bottom=0;right=0;pointerEvents=1;" parent="_hJdyAHGnpdggQTVWJaW-11" vertex="1">
          <mxGeometry x="675" width="135" height="50" as="geometry">
            <mxRectangle width="135" height="50" as="alternateBounds" />
          </mxGeometry>
        </mxCell>
      </root>
    </mxGraphModel>
  </diagram>
  <diagram name="mobile-sponsor-list" id="J6d0qUkzBIBIkWtjZ8f3">
    <mxGraphModel dx="706" dy="862" grid="1" gridSize="10" guides="1" tooltips="1" connect="1" arrows="1" fold="1" page="1" pageScale="1" pageWidth="340" pageHeight="480" background="none" math="0" shadow="0">
      <root>
        <mxCell id="GNnyf3h3qem7HU1mR-5U-0" />
        <mxCell id="GNnyf3h3qem7HU1mR-5U-1" style="locked=1;" parent="GNnyf3h3qem7HU1mR-5U-0" />
        <mxCell id="GNnyf3h3qem7HU1mR-5U-2" value="Header" style="" parent="GNnyf3h3qem7HU1mR-5U-0" />
        <mxCell id="GNnyf3h3qem7HU1mR-5U-3" value="LOGO" style="whiteSpace=wrap;html=1;rounded=0;shadow=0;labelBackgroundColor=none;strokeWidth=1;fontFamily=Verdana;fontSize=28;align=center;comic=1;" parent="GNnyf3h3qem7HU1mR-5U-2" vertex="1">
          <mxGeometry x="690" y="10" width="190" height="50" as="geometry" />
        </mxCell>
        <mxCell id="GNnyf3h3qem7HU1mR-5U-4" value="" style="line;strokeWidth=1;html=1;rounded=0;shadow=0;labelBackgroundColor=none;fillColor=none;fontFamily=Verdana;fontSize=14;fontColor=#000000;align=center;comic=1;" parent="GNnyf3h3qem7HU1mR-5U-2" vertex="1">
          <mxGeometry x="680" y="63" width="340" height="50" as="geometry" />
        </mxCell>
        <mxCell id="GNnyf3h3qem7HU1mR-5U-5" value="&lt;span style=&quot;font-size: 14px; text-align: left; text-wrap: nowrap;&quot;&gt;HEADER&lt;/span&gt;" style="whiteSpace=wrap;html=1;rounded=0;shadow=0;labelBackgroundColor=none;strokeWidth=1;fillColor=none;fontFamily=Verdana;fontSize=12;align=center;comic=1;" parent="GNnyf3h3qem7HU1mR-5U-2" vertex="1">
          <mxGeometry x="720" y="110" width="260" height="50" as="geometry" />
        </mxCell>
        <mxCell id="GNnyf3h3qem7HU1mR-5U-6" value="" style="verticalLabelPosition=bottom;shadow=0;dashed=0;align=center;html=1;verticalAlign=top;strokeWidth=1;shape=mxgraph.mockup.graphics.simpleIcon;strokeColor=#999999;" parent="GNnyf3h3qem7HU1mR-5U-2" vertex="1">
          <mxGeometry x="752" y="170" width="197" height="20" as="geometry" />
        </mxCell>
        <mxCell id="GNnyf3h3qem7HU1mR-5U-7" value="" style="editableCssRules=path;shape=image;aspect=fixed;image=data:image/svg+xml,PHN2ZyB4bWxucz0iaHR0cDovL3d3dy53My5vcmcvMjAwMC9zdmciIHZpZXdCb3g9IjAgMCA0NDggNTEyIj48IS0tISBGb250IEF3ZXNvbWUgRnJlZSA2LjEuMSBieSBAZm9udGF3ZXNvbWUgLSBodHRwczovL2ZvbnRhd2Vzb21lLmNvbSBMaWNlbnNlIC0gaHR0cHM6Ly9mb250YXdlc29tZS5jb20vbGljZW5zZS9mcmVlIChJY29uczogQ0MgQlkgNC4wLCBGb250czogU0lMIE9GTCAxLjEsIENvZGU6IE1JVCBMaWNlbnNlKSBDb3B5cmlnaHQgMjAyMiBGb250aWNvbnMsIEluYy4gLS0+PHN0eWxlIHR5cGU9InRleHQvY3NzIj5wYXRoIHsgZmlsbDogcmdiKDI2LCAyNiwgMjYpOyB9IDwvc3R5bGU+PHBhdGggZD0iTTAgOTZDMCA3OC4zMyAxNC4zMyA2NCAzMiA2NEg0MTZDNDMzLjcgNjQgNDQ4IDc4LjMzIDQ0OCA5NkM0NDggMTEzLjcgNDMzLjcgMTI4IDQxNiAxMjhIMzJDMTQuMzMgMTI4IDAgMTEzLjcgMCA5NnpNMCAyNTZDMCAyMzguMyAxNC4zMyAyMjQgMzIgMjI0SDQxNkM0MzMuNyAyMjQgNDQ4IDIzOC4zIDQ0OCAyNTZDNDQ4IDI3My43IDQzMy43IDI4OCA0MTYgMjg4SDMyQzE0LjMzIDI4OCAwIDI3My43IDAgMjU2ek00MTYgNDQ4SDMyQzE0LjMzIDQ0OCAwIDQzMy43IDAgNDE2QzAgMzk4LjMgMTQuMzMgMzg0IDMyIDM4NEg0MTZDNDMzLjcgMzg0IDQ0OCAzOTguMyA0NDggNDE2QzQ0OCA0MzMuNyA0MzMuNyA0NDggNDE2IDQ0OHoiLz48L3N2Zz4=;connectable=0;movable=1;verticalLabelPosition=bottom;resizable=1;rotatable=0;cloneable=0;deletable=1;recursiveResize=0;imageBackground=none;verticalAlign=top;shadow=0;dashed=0;comic=1;strokeColor=default;strokeWidth=1;align=left;spacingLeft=3;fontFamily=Helvetica;fontSize=17;fontColor=#666666;fillColor=default;" parent="GNnyf3h3qem7HU1mR-5U-2" vertex="1">
          <mxGeometry x="950" y="10" width="53" height="53" as="geometry" />
        </mxCell>
        <mxCell id="0-xhYqv1YRFNhyUm6l8T-0" value="Content" style="locked=1;" parent="GNnyf3h3qem7HU1mR-5U-0" />
        <mxCell id="xDtM4q8XTOgFcwYc4Dm--0" value="&lt;font style=&quot;font-size: 20px;&quot;&gt;Button 1&lt;/font&gt;" style="whiteSpace=wrap;html=1;rounded=0;shadow=0;labelBackgroundColor=none;strokeWidth=1;fontFamily=Verdana;fontSize=20;align=center;comic=1;verticalAlign=middle;" parent="0-xhYqv1YRFNhyUm6l8T-0" vertex="1">
          <mxGeometry x="730" y="210" width="110" height="40" as="geometry" />
        </mxCell>
        <mxCell id="xDtM4q8XTOgFcwYc4Dm--1" value="&lt;font style=&quot;font-size: 20px;&quot;&gt;Button 2&lt;/font&gt;" style="whiteSpace=wrap;html=1;rounded=0;shadow=0;labelBackgroundColor=none;strokeWidth=1;fontFamily=Verdana;fontSize=20;align=center;comic=1;verticalAlign=middle;" parent="0-xhYqv1YRFNhyUm6l8T-0" vertex="1">
          <mxGeometry x="860" y="210" width="110" height="40" as="geometry" />
        </mxCell>
        <mxCell id="xDtM4q8XTOgFcwYc4Dm--2" value="" style="shape=table;startSize=0;container=1;collapsible=0;childLayout=tableLayout;comic=1;" parent="0-xhYqv1YRFNhyUm6l8T-0" vertex="1">
          <mxGeometry x="690" y="280" width="320" height="70" as="geometry" />
        </mxCell>
        <mxCell id="xDtM4q8XTOgFcwYc4Dm--3" value="" style="shape=tableRow;horizontal=0;startSize=0;swimlaneHead=0;swimlaneBody=0;strokeColor=inherit;top=0;left=0;bottom=0;right=0;collapsible=0;dropTarget=0;fillColor=none;points=[[0,0.5],[1,0.5]];portConstraint=eastwest;comic=1;" parent="xDtM4q8XTOgFcwYc4Dm--2" vertex="1">
          <mxGeometry width="320" height="35" as="geometry" />
        </mxCell>
        <mxCell id="xDtM4q8XTOgFcwYc4Dm--4" value="Column 1" style="shape=partialRectangle;html=1;whiteSpace=wrap;connectable=0;strokeColor=inherit;overflow=hidden;fillColor=none;top=0;left=0;bottom=0;right=0;pointerEvents=1;comic=1;" parent="xDtM4q8XTOgFcwYc4Dm--3" vertex="1">
          <mxGeometry width="80" height="35" as="geometry">
            <mxRectangle width="80" height="35" as="alternateBounds" />
          </mxGeometry>
        </mxCell>
        <mxCell id="xDtM4q8XTOgFcwYc4Dm--5" value="Column 2" style="shape=partialRectangle;html=1;whiteSpace=wrap;connectable=0;strokeColor=inherit;overflow=hidden;fillColor=none;top=0;left=0;bottom=0;right=0;pointerEvents=1;comic=1;" parent="xDtM4q8XTOgFcwYc4Dm--3" vertex="1">
          <mxGeometry x="80" width="80" height="35" as="geometry">
            <mxRectangle width="80" height="35" as="alternateBounds" />
          </mxGeometry>
        </mxCell>
        <mxCell id="xDtM4q8XTOgFcwYc4Dm--6" value="Column 3" style="shape=partialRectangle;html=1;whiteSpace=wrap;connectable=0;strokeColor=inherit;overflow=hidden;fillColor=none;top=0;left=0;bottom=0;right=0;pointerEvents=1;comic=1;" parent="xDtM4q8XTOgFcwYc4Dm--3" vertex="1">
          <mxGeometry x="160" width="80" height="35" as="geometry">
            <mxRectangle width="80" height="35" as="alternateBounds" />
          </mxGeometry>
        </mxCell>
        <mxCell id="xDtM4q8XTOgFcwYc4Dm--7" value="Column 4" style="shape=partialRectangle;html=1;whiteSpace=wrap;connectable=0;strokeColor=inherit;overflow=hidden;fillColor=none;top=0;left=0;bottom=0;right=0;pointerEvents=1;comic=1;" parent="xDtM4q8XTOgFcwYc4Dm--3" vertex="1">
          <mxGeometry x="240" width="80" height="35" as="geometry">
            <mxRectangle width="80" height="35" as="alternateBounds" />
          </mxGeometry>
        </mxCell>
        <mxCell id="xDtM4q8XTOgFcwYc4Dm--8" value="" style="shape=tableRow;horizontal=0;startSize=0;swimlaneHead=0;swimlaneBody=0;strokeColor=inherit;top=0;left=0;bottom=0;right=0;collapsible=0;dropTarget=0;fillColor=none;points=[[0,0.5],[1,0.5]];portConstraint=eastwest;comic=1;" parent="xDtM4q8XTOgFcwYc4Dm--2" vertex="1">
          <mxGeometry y="35" width="320" height="35" as="geometry" />
        </mxCell>
        <mxCell id="xDtM4q8XTOgFcwYc4Dm--9" value="Row 1" style="shape=partialRectangle;html=1;whiteSpace=wrap;connectable=0;strokeColor=inherit;overflow=hidden;fillColor=none;top=0;left=0;bottom=0;right=0;pointerEvents=1;comic=1;" parent="xDtM4q8XTOgFcwYc4Dm--8" vertex="1">
          <mxGeometry width="80" height="35" as="geometry">
            <mxRectangle width="80" height="35" as="alternateBounds" />
          </mxGeometry>
        </mxCell>
        <mxCell id="xDtM4q8XTOgFcwYc4Dm--10" value="Row 1" style="shape=partialRectangle;html=1;whiteSpace=wrap;connectable=0;strokeColor=inherit;overflow=hidden;fillColor=none;top=0;left=0;bottom=0;right=0;pointerEvents=1;comic=1;" parent="xDtM4q8XTOgFcwYc4Dm--8" vertex="1">
          <mxGeometry x="80" width="80" height="35" as="geometry">
            <mxRectangle width="80" height="35" as="alternateBounds" />
          </mxGeometry>
        </mxCell>
        <mxCell id="xDtM4q8XTOgFcwYc4Dm--11" value="Row 1" style="shape=partialRectangle;html=1;whiteSpace=wrap;connectable=0;strokeColor=inherit;overflow=hidden;fillColor=none;top=0;left=0;bottom=0;right=0;pointerEvents=1;comic=1;" parent="xDtM4q8XTOgFcwYc4Dm--8" vertex="1">
          <mxGeometry x="160" width="80" height="35" as="geometry">
            <mxRectangle width="80" height="35" as="alternateBounds" />
          </mxGeometry>
        </mxCell>
        <mxCell id="xDtM4q8XTOgFcwYc4Dm--12" value="Row 1" style="shape=partialRectangle;html=1;whiteSpace=wrap;connectable=0;strokeColor=inherit;overflow=hidden;fillColor=none;top=0;left=0;bottom=0;right=0;pointerEvents=1;comic=1;" parent="xDtM4q8XTOgFcwYc4Dm--8" vertex="1">
          <mxGeometry x="240" width="80" height="35" as="geometry">
            <mxRectangle width="80" height="35" as="alternateBounds" />
          </mxGeometry>
        </mxCell>
      </root>
    </mxGraphModel>
  </diagram>
  <diagram name="desktop-sponsor-list" id="PqDhkZ9NH_WJZoqCeqA-">
    <mxGraphModel dx="1386" dy="910" grid="1" gridSize="10" guides="1" tooltips="1" connect="1" arrows="1" fold="1" page="1" pageScale="1" pageWidth="1600" pageHeight="900" background="none" math="0" shadow="0">
      <root>
        <mxCell id="rB7OaC4YI7ZBG-0mkZoL-0" />
        <mxCell id="rB7OaC4YI7ZBG-0mkZoL-1" style="locked=1;" parent="rB7OaC4YI7ZBG-0mkZoL-0" />
        <mxCell id="rB7OaC4YI7ZBG-0mkZoL-2" value="Header" style="locked=1;" parent="rB7OaC4YI7ZBG-0mkZoL-0" />
        <mxCell id="rB7OaC4YI7ZBG-0mkZoL-3" value="LOGO" style="whiteSpace=wrap;html=1;rounded=0;shadow=0;labelBackgroundColor=none;strokeWidth=1;fontFamily=Verdana;fontSize=28;align=center;comic=1;" parent="rB7OaC4YI7ZBG-0mkZoL-2" vertex="1">
          <mxGeometry x="30" y="20" width="190" height="50" as="geometry" />
        </mxCell>
        <mxCell id="rB7OaC4YI7ZBG-0mkZoL-4" value="Menu 1" style="text;html=1;points=[];align=left;verticalAlign=top;spacingTop=-4;fontSize=14;fontFamily=Verdana" parent="rB7OaC4YI7ZBG-0mkZoL-2" vertex="1">
          <mxGeometry x="1290" y="35" width="60" height="20" as="geometry" />
        </mxCell>
        <mxCell id="rB7OaC4YI7ZBG-0mkZoL-5" value="Menu 2" style="text;html=1;points=[];align=left;verticalAlign=top;spacingTop=-4;fontSize=14;fontFamily=Verdana" parent="rB7OaC4YI7ZBG-0mkZoL-2" vertex="1">
          <mxGeometry x="1370" y="35" width="60" height="20" as="geometry" />
        </mxCell>
        <mxCell id="rB7OaC4YI7ZBG-0mkZoL-6" value="Menu 3" style="text;html=1;points=[];align=left;verticalAlign=top;spacingTop=-4;fontSize=14;fontFamily=Verdana" parent="rB7OaC4YI7ZBG-0mkZoL-2" vertex="1">
          <mxGeometry x="1440" y="35" width="60" height="20" as="geometry" />
        </mxCell>
        <mxCell id="rB7OaC4YI7ZBG-0mkZoL-7" value="Menu 4" style="text;html=1;points=[];align=left;verticalAlign=top;spacingTop=-4;fontSize=14;fontFamily=Verdana" parent="rB7OaC4YI7ZBG-0mkZoL-2" vertex="1">
          <mxGeometry x="1510" y="35" width="60" height="20" as="geometry" />
        </mxCell>
        <mxCell id="rB7OaC4YI7ZBG-0mkZoL-8" value="" style="line;strokeWidth=1;html=1;rounded=0;shadow=0;labelBackgroundColor=none;fillColor=none;fontFamily=Verdana;fontSize=14;fontColor=#000000;align=center;comic=1;" parent="rB7OaC4YI7ZBG-0mkZoL-2" vertex="1">
          <mxGeometry x="30" y="63" width="1540" height="50" as="geometry" />
        </mxCell>
        <mxCell id="rB7OaC4YI7ZBG-0mkZoL-9" value="" style="whiteSpace=wrap;html=1;rounded=0;shadow=0;labelBackgroundColor=none;strokeWidth=1;fillColor=none;fontFamily=Verdana;fontSize=12;align=center;comic=1;" parent="rB7OaC4YI7ZBG-0mkZoL-2" vertex="1">
          <mxGeometry x="280" y="150" width="1040" height="50" as="geometry" />
        </mxCell>
        <mxCell id="rB7OaC4YI7ZBG-0mkZoL-10" value="HEADER" style="text;html=1;points=[];align=left;verticalAlign=top;spacingTop=-4;fontSize=14;fontFamily=Verdana" parent="rB7OaC4YI7ZBG-0mkZoL-2" vertex="1">
          <mxGeometry x="770" y="165" width="60" height="20" as="geometry" />
        </mxCell>
        <mxCell id="rB7OaC4YI7ZBG-0mkZoL-11" value="" style="verticalLabelPosition=bottom;shadow=0;dashed=0;align=center;html=1;verticalAlign=top;strokeWidth=1;shape=mxgraph.mockup.graphics.simpleIcon;strokeColor=#999999;" parent="rB7OaC4YI7ZBG-0mkZoL-2" vertex="1">
          <mxGeometry x="665" y="210" width="270" height="50" as="geometry" />
        </mxCell>
        <mxCell id="rB7OaC4YI7ZBG-0mkZoL-12" value="Content" style="locked=1;" parent="rB7OaC4YI7ZBG-0mkZoL-0" />
        <mxCell id="Xrw1J69acfW39Dsr0UyR-0" value="&lt;font style=&quot;font-size: 20px;&quot;&gt;Button 1&lt;/font&gt;" style="whiteSpace=wrap;html=1;rounded=0;shadow=0;labelBackgroundColor=none;strokeWidth=1;fontFamily=Verdana;fontSize=20;align=center;comic=1;verticalAlign=middle;" parent="rB7OaC4YI7ZBG-0mkZoL-12" vertex="1">
          <mxGeometry x="625" y="320" width="165" height="30" as="geometry" />
        </mxCell>
        <mxCell id="Xrw1J69acfW39Dsr0UyR-1" value="&lt;font style=&quot;font-size: 20px;&quot;&gt;Button 2&lt;/font&gt;" style="whiteSpace=wrap;html=1;rounded=0;shadow=0;labelBackgroundColor=none;strokeWidth=1;fontFamily=Verdana;fontSize=20;align=center;comic=1;verticalAlign=middle;" parent="rB7OaC4YI7ZBG-0mkZoL-12" vertex="1">
          <mxGeometry x="810" y="320" width="165" height="30" as="geometry" />
        </mxCell>
        <mxCell id="Xrw1J69acfW39Dsr0UyR-2" value="" style="shape=table;startSize=0;container=1;collapsible=0;childLayout=tableLayout;comic=1;" parent="rB7OaC4YI7ZBG-0mkZoL-12" vertex="1">
          <mxGeometry x="420" y="370" width="760" height="80" as="geometry" />
        </mxCell>
        <mxCell id="Xrw1J69acfW39Dsr0UyR-3" value="" style="shape=tableRow;horizontal=0;startSize=0;swimlaneHead=0;swimlaneBody=0;strokeColor=inherit;top=0;left=0;bottom=0;right=0;collapsible=0;dropTarget=0;fillColor=none;points=[[0,0.5],[1,0.5]];portConstraint=eastwest;comic=1;" parent="Xrw1J69acfW39Dsr0UyR-2" vertex="1">
          <mxGeometry width="760" height="40" as="geometry" />
        </mxCell>
        <mxCell id="Xrw1J69acfW39Dsr0UyR-4" value="Column 1" style="shape=partialRectangle;html=1;whiteSpace=wrap;connectable=0;strokeColor=inherit;overflow=hidden;fillColor=none;top=0;left=0;bottom=0;right=0;pointerEvents=1;comic=1;" parent="Xrw1J69acfW39Dsr0UyR-3" vertex="1">
          <mxGeometry width="190" height="40" as="geometry">
            <mxRectangle width="190" height="40" as="alternateBounds" />
          </mxGeometry>
        </mxCell>
        <mxCell id="Xrw1J69acfW39Dsr0UyR-5" value="Column 2" style="shape=partialRectangle;html=1;whiteSpace=wrap;connectable=0;strokeColor=inherit;overflow=hidden;fillColor=none;top=0;left=0;bottom=0;right=0;pointerEvents=1;comic=1;" parent="Xrw1J69acfW39Dsr0UyR-3" vertex="1">
          <mxGeometry x="190" width="190" height="40" as="geometry">
            <mxRectangle width="190" height="40" as="alternateBounds" />
          </mxGeometry>
        </mxCell>
        <mxCell id="Xrw1J69acfW39Dsr0UyR-6" value="Column 3" style="shape=partialRectangle;html=1;whiteSpace=wrap;connectable=0;strokeColor=inherit;overflow=hidden;fillColor=none;top=0;left=0;bottom=0;right=0;pointerEvents=1;comic=1;" parent="Xrw1J69acfW39Dsr0UyR-3" vertex="1">
          <mxGeometry x="380" width="190" height="40" as="geometry">
            <mxRectangle width="190" height="40" as="alternateBounds" />
          </mxGeometry>
        </mxCell>
        <mxCell id="Xrw1J69acfW39Dsr0UyR-7" value="Column 4" style="shape=partialRectangle;html=1;whiteSpace=wrap;connectable=0;strokeColor=inherit;overflow=hidden;fillColor=none;top=0;left=0;bottom=0;right=0;pointerEvents=1;comic=1;" parent="Xrw1J69acfW39Dsr0UyR-3" vertex="1">
          <mxGeometry x="570" width="190" height="40" as="geometry">
            <mxRectangle width="190" height="40" as="alternateBounds" />
          </mxGeometry>
        </mxCell>
        <mxCell id="Xrw1J69acfW39Dsr0UyR-8" value="" style="shape=tableRow;horizontal=0;startSize=0;swimlaneHead=0;swimlaneBody=0;strokeColor=inherit;top=0;left=0;bottom=0;right=0;collapsible=0;dropTarget=0;fillColor=none;points=[[0,0.5],[1,0.5]];portConstraint=eastwest;comic=1;" parent="Xrw1J69acfW39Dsr0UyR-2" vertex="1">
          <mxGeometry y="40" width="760" height="40" as="geometry" />
        </mxCell>
        <mxCell id="Xrw1J69acfW39Dsr0UyR-9" value="Row 1" style="shape=partialRectangle;html=1;whiteSpace=wrap;connectable=0;strokeColor=inherit;overflow=hidden;fillColor=none;top=0;left=0;bottom=0;right=0;pointerEvents=1;comic=1;" parent="Xrw1J69acfW39Dsr0UyR-8" vertex="1">
          <mxGeometry width="190" height="40" as="geometry">
            <mxRectangle width="190" height="40" as="alternateBounds" />
          </mxGeometry>
        </mxCell>
        <mxCell id="Xrw1J69acfW39Dsr0UyR-10" value="Row 1" style="shape=partialRectangle;html=1;whiteSpace=wrap;connectable=0;strokeColor=inherit;overflow=hidden;fillColor=none;top=0;left=0;bottom=0;right=0;pointerEvents=1;comic=1;" parent="Xrw1J69acfW39Dsr0UyR-8" vertex="1">
          <mxGeometry x="190" width="190" height="40" as="geometry">
            <mxRectangle width="190" height="40" as="alternateBounds" />
          </mxGeometry>
        </mxCell>
        <mxCell id="Xrw1J69acfW39Dsr0UyR-11" value="Row 1" style="shape=partialRectangle;html=1;whiteSpace=wrap;connectable=0;strokeColor=inherit;overflow=hidden;fillColor=none;top=0;left=0;bottom=0;right=0;pointerEvents=1;comic=1;" parent="Xrw1J69acfW39Dsr0UyR-8" vertex="1">
          <mxGeometry x="380" width="190" height="40" as="geometry">
            <mxRectangle width="190" height="40" as="alternateBounds" />
          </mxGeometry>
        </mxCell>
        <mxCell id="Xrw1J69acfW39Dsr0UyR-12" value="Row 1" style="shape=partialRectangle;html=1;whiteSpace=wrap;connectable=0;strokeColor=inherit;overflow=hidden;fillColor=none;top=0;left=0;bottom=0;right=0;pointerEvents=1;comic=1;" parent="Xrw1J69acfW39Dsr0UyR-8" vertex="1">
          <mxGeometry x="570" width="190" height="40" as="geometry">
            <mxRectangle width="190" height="40" as="alternateBounds" />
          </mxGeometry>
        </mxCell>
      </root>
    </mxGraphModel>
  </diagram>
  <diagram name="mobile-adicionar-new-sponsor" id="JjZ_L12jNKRMKcIedH8f">
    <mxGraphModel dx="706" dy="862" grid="1" gridSize="10" guides="1" tooltips="1" connect="1" arrows="1" fold="1" page="1" pageScale="1" pageWidth="340" pageHeight="480" background="none" math="0" shadow="0">
      <root>
        <mxCell id="my-B4ti3C9QNr17qSUz4-0" />
        <mxCell id="my-B4ti3C9QNr17qSUz4-1" style="locked=1;" parent="my-B4ti3C9QNr17qSUz4-0" />
        <mxCell id="my-B4ti3C9QNr17qSUz4-2" value="Header" style="" parent="my-B4ti3C9QNr17qSUz4-0" />
        <mxCell id="my-B4ti3C9QNr17qSUz4-3" value="LOGO" style="whiteSpace=wrap;html=1;rounded=0;shadow=0;labelBackgroundColor=none;strokeWidth=1;fontFamily=Verdana;fontSize=28;align=center;comic=1;" parent="my-B4ti3C9QNr17qSUz4-2" vertex="1">
          <mxGeometry x="690" y="10" width="190" height="50" as="geometry" />
        </mxCell>
        <mxCell id="my-B4ti3C9QNr17qSUz4-4" value="" style="line;strokeWidth=1;html=1;rounded=0;shadow=0;labelBackgroundColor=none;fillColor=none;fontFamily=Verdana;fontSize=14;fontColor=#000000;align=center;comic=1;" parent="my-B4ti3C9QNr17qSUz4-2" vertex="1">
          <mxGeometry x="680" y="63" width="340" height="50" as="geometry" />
        </mxCell>
        <mxCell id="my-B4ti3C9QNr17qSUz4-5" value="&lt;span style=&quot;font-size: 14px; text-align: left; text-wrap: nowrap;&quot;&gt;HEADER&lt;/span&gt;" style="whiteSpace=wrap;html=1;rounded=0;shadow=0;labelBackgroundColor=none;strokeWidth=1;fillColor=none;fontFamily=Verdana;fontSize=12;align=center;comic=1;" parent="my-B4ti3C9QNr17qSUz4-2" vertex="1">
          <mxGeometry x="720" y="110" width="260" height="50" as="geometry" />
        </mxCell>
        <mxCell id="my-B4ti3C9QNr17qSUz4-6" value="" style="verticalLabelPosition=bottom;shadow=0;dashed=0;align=center;html=1;verticalAlign=top;strokeWidth=1;shape=mxgraph.mockup.graphics.simpleIcon;strokeColor=#999999;" parent="my-B4ti3C9QNr17qSUz4-2" vertex="1">
          <mxGeometry x="752" y="170" width="197" height="20" as="geometry" />
        </mxCell>
        <mxCell id="my-B4ti3C9QNr17qSUz4-7" value="" style="editableCssRules=path;shape=image;aspect=fixed;image=data:image/svg+xml,PHN2ZyB4bWxucz0iaHR0cDovL3d3dy53My5vcmcvMjAwMC9zdmciIHZpZXdCb3g9IjAgMCA0NDggNTEyIj48IS0tISBGb250IEF3ZXNvbWUgRnJlZSA2LjEuMSBieSBAZm9udGF3ZXNvbWUgLSBodHRwczovL2ZvbnRhd2Vzb21lLmNvbSBMaWNlbnNlIC0gaHR0cHM6Ly9mb250YXdlc29tZS5jb20vbGljZW5zZS9mcmVlIChJY29uczogQ0MgQlkgNC4wLCBGb250czogU0lMIE9GTCAxLjEsIENvZGU6IE1JVCBMaWNlbnNlKSBDb3B5cmlnaHQgMjAyMiBGb250aWNvbnMsIEluYy4gLS0+PHN0eWxlIHR5cGU9InRleHQvY3NzIj5wYXRoIHsgZmlsbDogcmdiKDI2LCAyNiwgMjYpOyB9IDwvc3R5bGU+PHBhdGggZD0iTTAgOTZDMCA3OC4zMyAxNC4zMyA2NCAzMiA2NEg0MTZDNDMzLjcgNjQgNDQ4IDc4LjMzIDQ0OCA5NkM0NDggMTEzLjcgNDMzLjcgMTI4IDQxNiAxMjhIMzJDMTQuMzMgMTI4IDAgMTEzLjcgMCA5NnpNMCAyNTZDMCAyMzguMyAxNC4zMyAyMjQgMzIgMjI0SDQxNkM0MzMuNyAyMjQgNDQ4IDIzOC4zIDQ0OCAyNTZDNDQ4IDI3My43IDQzMy43IDI4OCA0MTYgMjg4SDMyQzE0LjMzIDI4OCAwIDI3My43IDAgMjU2ek00MTYgNDQ4SDMyQzE0LjMzIDQ0OCAwIDQzMy43IDAgNDE2QzAgMzk4LjMgMTQuMzMgMzg0IDMyIDM4NEg0MTZDNDMzLjcgMzg0IDQ0OCAzOTguMyA0NDggNDE2QzQ0OCA0MzMuNyA0MzMuNyA0NDggNDE2IDQ0OHoiLz48L3N2Zz4=;connectable=0;movable=1;verticalLabelPosition=bottom;resizable=1;rotatable=0;cloneable=0;deletable=1;recursiveResize=0;imageBackground=none;verticalAlign=top;shadow=0;dashed=0;comic=1;strokeColor=default;strokeWidth=1;align=left;spacingLeft=3;fontFamily=Helvetica;fontSize=17;fontColor=#666666;fillColor=default;" parent="my-B4ti3C9QNr17qSUz4-2" vertex="1">
          <mxGeometry x="950" y="10" width="53" height="53" as="geometry" />
        </mxCell>
        <mxCell id="1MZnBSAuiF6gayV3EuST-0" value="Content" style="locked=1;" parent="my-B4ti3C9QNr17qSUz4-0" />
        <mxCell id="1MZnBSAuiF6gayV3EuST-1" value="&lt;font style=&quot;font-size: 17px;&quot;&gt;Button 1&lt;/font&gt;" style="whiteSpace=wrap;html=1;rounded=0;shadow=0;labelBackgroundColor=none;strokeWidth=1;fontFamily=Verdana;fontSize=17;align=center;comic=1;verticalAlign=middle;" parent="1MZnBSAuiF6gayV3EuST-0" vertex="1">
          <mxGeometry x="685" y="360.0042857142857" width="89.26229508196721" height="19.285714285714285" as="geometry" />
        </mxCell>
        <mxCell id="1MZnBSAuiF6gayV3EuST-2" value="&lt;font style=&quot;font-size: 17px;&quot;&gt;Button 2&lt;/font&gt;" style="whiteSpace=wrap;html=1;rounded=0;shadow=0;labelBackgroundColor=none;strokeWidth=1;fontFamily=Verdana;fontSize=17;align=center;comic=1;verticalAlign=middle;" parent="1MZnBSAuiF6gayV3EuST-0" vertex="1">
          <mxGeometry x="785.0819672131147" y="360.0042857142857" width="89.26229508196721" height="19.285714285714285" as="geometry" />
        </mxCell>
        <mxCell id="1MZnBSAuiF6gayV3EuST-3" value="Option 1" style="strokeWidth=1;shadow=0;dashed=0;align=center;html=1;shape=mxgraph.mockup.text.textBox;fontColor=#666666;align=left;fontSize=17;spacingLeft=4;spacingTop=-3;whiteSpace=wrap;strokeColor=#666666;mainText=;comic=1;fillColor=none;enumerate=0;" parent="1MZnBSAuiF6gayV3EuST-0" vertex="1">
          <mxGeometry x="685" y="220" width="330" height="19.285714285714285" as="geometry" />
        </mxCell>
        <mxCell id="1MZnBSAuiF6gayV3EuST-4" value="" style="verticalLabelPosition=bottom;shadow=0;dashed=0;align=center;html=1;verticalAlign=top;strokeWidth=1;shape=mxgraph.mockup.graphics.simpleIcon;strokeColor=#999999;" parent="1MZnBSAuiF6gayV3EuST-0" vertex="1">
          <mxGeometry x="998.7704918032787" y="223.21428571428572" width="13.524590163934425" height="12.857142857142856" as="geometry" />
        </mxCell>
        <mxCell id="1MZnBSAuiF6gayV3EuST-5" value="&lt;font style=&quot;font-size: 13px;&quot;&gt;&lt;font&gt;Lorem ipsum dolor sit amet, consectetur adipisicing elit, sed do eiusmod tempor incididunt ut labore et dolore magna aliqua. Ut enim ad minim veniam, quis nostrud exercitation ullamco laboris nisi ut aliquip ex ea commodo consequat.&amp;nbsp;&lt;/font&gt;&lt;/font&gt;" style="text;spacingTop=-5;whiteSpace=wrap;html=1;align=left;fontSize=12;fontFamily=Helvetica;fillColor=none;strokeColor=none;comic=1;strokeWidth=1;fontColor=default;" parent="1MZnBSAuiF6gayV3EuST-0" vertex="1">
          <mxGeometry x="685" y="271.43" width="330" height="78.57" as="geometry" />
        </mxCell>
        <mxCell id="1MZnBSAuiF6gayV3EuST-6" value="Option 1" style="strokeWidth=1;shadow=0;dashed=0;align=center;html=1;shape=mxgraph.mockup.text.textBox;fontColor=#666666;align=left;fontSize=17;spacingLeft=4;spacingTop=-3;whiteSpace=wrap;strokeColor=#666666;mainText=;comic=1;fillColor=none;enumerate=0;" parent="1MZnBSAuiF6gayV3EuST-0" vertex="1">
          <mxGeometry x="685" y="245.71428571428572" width="232.6229508196721" height="19.285714285714285" as="geometry" />
        </mxCell>
        <mxCell id="1MZnBSAuiF6gayV3EuST-7" value="" style="verticalLabelPosition=bottom;shadow=0;dashed=0;align=center;html=1;verticalAlign=top;strokeWidth=1;shape=mxgraph.mockup.graphics.simpleIcon;strokeColor=#999999;" parent="1MZnBSAuiF6gayV3EuST-0" vertex="1">
          <mxGeometry x="901.3934426229508" y="248.92857142857142" width="13.524590163934425" height="12.857142857142856" as="geometry" />
        </mxCell>
        <mxCell id="1MZnBSAuiF6gayV3EuST-8" value="&lt;font style=&quot;font-size: 10px;&quot;&gt;Button1&lt;/font&gt;" style="whiteSpace=wrap;html=1;rounded=0;shadow=0;labelBackgroundColor=none;strokeWidth=1;fontFamily=Verdana;fontSize=10;align=center;comic=1;verticalAlign=middle;" parent="1MZnBSAuiF6gayV3EuST-0" vertex="1">
          <mxGeometry x="923.0327868852459" y="245.71428571428572" width="43.278688524590166" height="19.285714285714285" as="geometry" />
        </mxCell>
        <mxCell id="1MZnBSAuiF6gayV3EuST-9" value="&lt;font style=&quot;font-size: 10px;&quot;&gt;Button2&lt;/font&gt;" style="whiteSpace=wrap;html=1;rounded=0;shadow=0;labelBackgroundColor=none;strokeWidth=1;fontFamily=Verdana;fontSize=10;align=center;comic=1;verticalAlign=middle;" parent="1MZnBSAuiF6gayV3EuST-0" vertex="1">
          <mxGeometry x="971.7213114754098" y="245.71428571428572" width="43.278688524590166" height="19.285714285714285" as="geometry" />
        </mxCell>
      </root>
    </mxGraphModel>
  </diagram>
  <diagram name="desktop-adicionar-new-sponsor" id="5I21d3aWMoI6HJb9QmEh">
    <mxGraphModel dx="1386" dy="910" grid="1" gridSize="10" guides="1" tooltips="1" connect="1" arrows="1" fold="1" page="1" pageScale="1" pageWidth="1600" pageHeight="900" background="none" math="0" shadow="0">
      <root>
        <mxCell id="TJkhNNNK4_uic69Dlc4S-0" />
        <mxCell id="TJkhNNNK4_uic69Dlc4S-1" style="locked=1;" parent="TJkhNNNK4_uic69Dlc4S-0" />
        <mxCell id="TJkhNNNK4_uic69Dlc4S-2" value="Header" style="locked=1;" parent="TJkhNNNK4_uic69Dlc4S-0" />
        <mxCell id="TJkhNNNK4_uic69Dlc4S-3" value="LOGO" style="whiteSpace=wrap;html=1;rounded=0;shadow=0;labelBackgroundColor=none;strokeWidth=1;fontFamily=Verdana;fontSize=28;align=center;comic=1;" parent="TJkhNNNK4_uic69Dlc4S-2" vertex="1">
          <mxGeometry x="30" y="20" width="190" height="50" as="geometry" />
        </mxCell>
        <mxCell id="TJkhNNNK4_uic69Dlc4S-4" value="Menu 1" style="text;html=1;points=[];align=left;verticalAlign=top;spacingTop=-4;fontSize=14;fontFamily=Verdana" parent="TJkhNNNK4_uic69Dlc4S-2" vertex="1">
          <mxGeometry x="1290" y="35" width="60" height="20" as="geometry" />
        </mxCell>
        <mxCell id="TJkhNNNK4_uic69Dlc4S-5" value="Menu 2" style="text;html=1;points=[];align=left;verticalAlign=top;spacingTop=-4;fontSize=14;fontFamily=Verdana" parent="TJkhNNNK4_uic69Dlc4S-2" vertex="1">
          <mxGeometry x="1370" y="35" width="60" height="20" as="geometry" />
        </mxCell>
        <mxCell id="TJkhNNNK4_uic69Dlc4S-6" value="Menu 3" style="text;html=1;points=[];align=left;verticalAlign=top;spacingTop=-4;fontSize=14;fontFamily=Verdana" parent="TJkhNNNK4_uic69Dlc4S-2" vertex="1">
          <mxGeometry x="1440" y="35" width="60" height="20" as="geometry" />
        </mxCell>
        <mxCell id="TJkhNNNK4_uic69Dlc4S-7" value="Menu 4" style="text;html=1;points=[];align=left;verticalAlign=top;spacingTop=-4;fontSize=14;fontFamily=Verdana" parent="TJkhNNNK4_uic69Dlc4S-2" vertex="1">
          <mxGeometry x="1510" y="35" width="60" height="20" as="geometry" />
        </mxCell>
        <mxCell id="TJkhNNNK4_uic69Dlc4S-8" value="" style="line;strokeWidth=1;html=1;rounded=0;shadow=0;labelBackgroundColor=none;fillColor=none;fontFamily=Verdana;fontSize=14;fontColor=#000000;align=center;comic=1;" parent="TJkhNNNK4_uic69Dlc4S-2" vertex="1">
          <mxGeometry x="30" y="63" width="1540" height="50" as="geometry" />
        </mxCell>
        <mxCell id="TJkhNNNK4_uic69Dlc4S-9" value="" style="whiteSpace=wrap;html=1;rounded=0;shadow=0;labelBackgroundColor=none;strokeWidth=1;fillColor=none;fontFamily=Verdana;fontSize=12;align=center;comic=1;" parent="TJkhNNNK4_uic69Dlc4S-2" vertex="1">
          <mxGeometry x="280" y="150" width="1040" height="50" as="geometry" />
        </mxCell>
        <mxCell id="TJkhNNNK4_uic69Dlc4S-10" value="HEADER" style="text;html=1;points=[];align=left;verticalAlign=top;spacingTop=-4;fontSize=14;fontFamily=Verdana" parent="TJkhNNNK4_uic69Dlc4S-2" vertex="1">
          <mxGeometry x="770" y="165" width="60" height="20" as="geometry" />
        </mxCell>
        <mxCell id="TJkhNNNK4_uic69Dlc4S-11" value="" style="verticalLabelPosition=bottom;shadow=0;dashed=0;align=center;html=1;verticalAlign=top;strokeWidth=1;shape=mxgraph.mockup.graphics.simpleIcon;strokeColor=#999999;" parent="TJkhNNNK4_uic69Dlc4S-2" vertex="1">
          <mxGeometry x="665" y="210" width="270" height="50" as="geometry" />
        </mxCell>
        <mxCell id="TJkhNNNK4_uic69Dlc4S-12" value="Content" style="locked=1;" parent="TJkhNNNK4_uic69Dlc4S-0" />
        <mxCell id="p5Ftqec2iVKPNPXAVZgR-0" value="&lt;font style=&quot;font-size: 20px;&quot;&gt;Button 1&lt;/font&gt;" style="whiteSpace=wrap;html=1;rounded=0;shadow=0;labelBackgroundColor=none;strokeWidth=1;fontFamily=Verdana;fontSize=20;align=center;comic=1;verticalAlign=middle;" parent="TJkhNNNK4_uic69Dlc4S-12" vertex="1">
          <mxGeometry x="495" y="560" width="165" height="30" as="geometry" />
        </mxCell>
        <mxCell id="p5Ftqec2iVKPNPXAVZgR-1" value="&lt;font style=&quot;font-size: 20px;&quot;&gt;Button 2&lt;/font&gt;" style="whiteSpace=wrap;html=1;rounded=0;shadow=0;labelBackgroundColor=none;strokeWidth=1;fontFamily=Verdana;fontSize=20;align=center;comic=1;verticalAlign=middle;" parent="TJkhNNNK4_uic69Dlc4S-12" vertex="1">
          <mxGeometry x="680" y="560" width="165" height="30" as="geometry" />
        </mxCell>
        <mxCell id="p5Ftqec2iVKPNPXAVZgR-2" value="Option 1" style="strokeWidth=1;shadow=0;dashed=0;align=center;html=1;shape=mxgraph.mockup.text.textBox;fontColor=#666666;align=left;fontSize=17;spacingLeft=4;spacingTop=-3;whiteSpace=wrap;strokeColor=#666666;mainText=;comic=1;fillColor=none;enumerate=0;" parent="TJkhNNNK4_uic69Dlc4S-12" vertex="1">
          <mxGeometry x="495" y="310" width="610" height="30" as="geometry" />
        </mxCell>
        <mxCell id="p5Ftqec2iVKPNPXAVZgR-3" value="" style="verticalLabelPosition=bottom;shadow=0;dashed=0;align=center;html=1;verticalAlign=top;strokeWidth=1;shape=mxgraph.mockup.graphics.simpleIcon;strokeColor=#999999;" parent="TJkhNNNK4_uic69Dlc4S-12" vertex="1">
          <mxGeometry x="1075" y="315" width="25" height="20" as="geometry" />
        </mxCell>
        <mxCell id="p5Ftqec2iVKPNPXAVZgR-4" value="&lt;font style=&quot;font-size: 13px;&quot;&gt;&lt;font&gt;Lorem ipsum dolor sit amet, consectetur adipisicing elit, sed do eiusmod tempor incididunt ut labore et dolore magna aliqua. Ut enim ad minim veniam, quis nostrud exercitation ullamco laboris nisi ut aliquip ex ea commodo consequat. Duis aute irure dolor in reprehenderit in voluptate velit esse cillum dolore eu fugiat nulla pariatur. Excepteur sint occaecat cupidatat non proident, sunt in culpa qui officia deserunt mollit anim id est laborum.&amp;nbsp;Excepteur sint occaecat cupidatat non proident, sunt in culpa qui officia deserunt mollit anim id est laborum.&lt;br style=&quot;&quot;&gt;&lt;/font&gt;&lt;span style=&quot;&quot;&gt;Sed ut perspiciatis unde omnis iste natus error sit voluptatem accusantium doloremque laudantium, totam rem aperiam, eaque ipsa quae ab illo inventore veritatis et quasi architecto beatae vitae dicta sunt explicabo.&lt;/span&gt;&lt;/font&gt;" style="text;spacingTop=-5;whiteSpace=wrap;html=1;align=left;fontSize=12;fontFamily=Helvetica;fillColor=none;strokeColor=none;comic=1;strokeWidth=1;fontColor=default;" parent="TJkhNNNK4_uic69Dlc4S-12" vertex="1">
          <mxGeometry x="495" y="390" width="610" height="160" as="geometry" />
        </mxCell>
        <mxCell id="p5Ftqec2iVKPNPXAVZgR-5" value="Option 1" style="strokeWidth=1;shadow=0;dashed=0;align=center;html=1;shape=mxgraph.mockup.text.textBox;fontColor=#666666;align=left;fontSize=17;spacingLeft=4;spacingTop=-3;whiteSpace=wrap;strokeColor=#666666;mainText=;comic=1;fillColor=none;enumerate=0;" parent="TJkhNNNK4_uic69Dlc4S-12" vertex="1">
          <mxGeometry x="495" y="350" width="430" height="30" as="geometry" />
        </mxCell>
        <mxCell id="p5Ftqec2iVKPNPXAVZgR-6" value="" style="verticalLabelPosition=bottom;shadow=0;dashed=0;align=center;html=1;verticalAlign=top;strokeWidth=1;shape=mxgraph.mockup.graphics.simpleIcon;strokeColor=#999999;" parent="TJkhNNNK4_uic69Dlc4S-12" vertex="1">
          <mxGeometry x="895" y="355" width="25" height="20" as="geometry" />
        </mxCell>
        <mxCell id="p5Ftqec2iVKPNPXAVZgR-7" value="&lt;font style=&quot;font-size: 20px;&quot;&gt;Button1&lt;/font&gt;" style="whiteSpace=wrap;html=1;rounded=0;shadow=0;labelBackgroundColor=none;strokeWidth=1;fontFamily=Verdana;fontSize=20;align=center;comic=1;verticalAlign=middle;" parent="TJkhNNNK4_uic69Dlc4S-12" vertex="1">
          <mxGeometry x="935" y="350" width="80" height="30" as="geometry" />
        </mxCell>
        <mxCell id="p5Ftqec2iVKPNPXAVZgR-8" value="&lt;font style=&quot;font-size: 20px;&quot;&gt;Button2&lt;/font&gt;" style="whiteSpace=wrap;html=1;rounded=0;shadow=0;labelBackgroundColor=none;strokeWidth=1;fontFamily=Verdana;fontSize=20;align=center;comic=1;verticalAlign=middle;" parent="TJkhNNNK4_uic69Dlc4S-12" vertex="1">
          <mxGeometry x="1025" y="350" width="80" height="30" as="geometry" />
        </mxCell>
      </root>
    </mxGraphModel>
  </diagram>
  <diagram name="mobile-adicionar-sponser-animal" id="eB_MHKtuPscuHJjR89bN">
    <mxGraphModel dx="706" dy="862" grid="1" gridSize="10" guides="1" tooltips="1" connect="1" arrows="1" fold="1" page="1" pageScale="1" pageWidth="340" pageHeight="480" background="none" math="0" shadow="0">
      <root>
        <mxCell id="I1zV_MND1oV74Reajqi3-0" />
        <mxCell id="I1zV_MND1oV74Reajqi3-1" style="locked=1;" parent="I1zV_MND1oV74Reajqi3-0" />
        <mxCell id="I1zV_MND1oV74Reajqi3-2" value="Header" style="" parent="I1zV_MND1oV74Reajqi3-0" />
        <mxCell id="I1zV_MND1oV74Reajqi3-3" value="LOGO" style="whiteSpace=wrap;html=1;rounded=0;shadow=0;labelBackgroundColor=none;strokeWidth=1;fontFamily=Verdana;fontSize=28;align=center;comic=1;" parent="I1zV_MND1oV74Reajqi3-2" vertex="1">
          <mxGeometry x="690" y="10" width="190" height="50" as="geometry" />
        </mxCell>
        <mxCell id="I1zV_MND1oV74Reajqi3-4" value="" style="line;strokeWidth=1;html=1;rounded=0;shadow=0;labelBackgroundColor=none;fillColor=none;fontFamily=Verdana;fontSize=14;fontColor=#000000;align=center;comic=1;" parent="I1zV_MND1oV74Reajqi3-2" vertex="1">
          <mxGeometry x="680" y="63" width="340" height="50" as="geometry" />
        </mxCell>
        <mxCell id="I1zV_MND1oV74Reajqi3-5" value="&lt;span style=&quot;font-size: 14px; text-align: left; text-wrap: nowrap;&quot;&gt;HEADER&lt;/span&gt;" style="whiteSpace=wrap;html=1;rounded=0;shadow=0;labelBackgroundColor=none;strokeWidth=1;fillColor=none;fontFamily=Verdana;fontSize=12;align=center;comic=1;" parent="I1zV_MND1oV74Reajqi3-2" vertex="1">
          <mxGeometry x="720" y="110" width="260" height="50" as="geometry" />
        </mxCell>
        <mxCell id="I1zV_MND1oV74Reajqi3-6" value="" style="verticalLabelPosition=bottom;shadow=0;dashed=0;align=center;html=1;verticalAlign=top;strokeWidth=1;shape=mxgraph.mockup.graphics.simpleIcon;strokeColor=#999999;" parent="I1zV_MND1oV74Reajqi3-2" vertex="1">
          <mxGeometry x="752" y="170" width="197" height="20" as="geometry" />
        </mxCell>
        <mxCell id="I1zV_MND1oV74Reajqi3-7" value="" style="editableCssRules=path;shape=image;aspect=fixed;image=data:image/svg+xml,PHN2ZyB4bWxucz0iaHR0cDovL3d3dy53My5vcmcvMjAwMC9zdmciIHZpZXdCb3g9IjAgMCA0NDggNTEyIj48IS0tISBGb250IEF3ZXNvbWUgRnJlZSA2LjEuMSBieSBAZm9udGF3ZXNvbWUgLSBodHRwczovL2ZvbnRhd2Vzb21lLmNvbSBMaWNlbnNlIC0gaHR0cHM6Ly9mb250YXdlc29tZS5jb20vbGljZW5zZS9mcmVlIChJY29uczogQ0MgQlkgNC4wLCBGb250czogU0lMIE9GTCAxLjEsIENvZGU6IE1JVCBMaWNlbnNlKSBDb3B5cmlnaHQgMjAyMiBGb250aWNvbnMsIEluYy4gLS0+PHN0eWxlIHR5cGU9InRleHQvY3NzIj5wYXRoIHsgZmlsbDogcmdiKDI2LCAyNiwgMjYpOyB9IDwvc3R5bGU+PHBhdGggZD0iTTAgOTZDMCA3OC4zMyAxNC4zMyA2NCAzMiA2NEg0MTZDNDMzLjcgNjQgNDQ4IDc4LjMzIDQ0OCA5NkM0NDggMTEzLjcgNDMzLjcgMTI4IDQxNiAxMjhIMzJDMTQuMzMgMTI4IDAgMTEzLjcgMCA5NnpNMCAyNTZDMCAyMzguMyAxNC4zMyAyMjQgMzIgMjI0SDQxNkM0MzMuNyAyMjQgNDQ4IDIzOC4zIDQ0OCAyNTZDNDQ4IDI3My43IDQzMy43IDI4OCA0MTYgMjg4SDMyQzE0LjMzIDI4OCAwIDI3My43IDAgMjU2ek00MTYgNDQ4SDMyQzE0LjMzIDQ0OCAwIDQzMy43IDAgNDE2QzAgMzk4LjMgMTQuMzMgMzg0IDMyIDM4NEg0MTZDNDMzLjcgMzg0IDQ0OCAzOTguMyA0NDggNDE2QzQ0OCA0MzMuNyA0MzMuNyA0NDggNDE2IDQ0OHoiLz48L3N2Zz4=;connectable=0;movable=1;verticalLabelPosition=bottom;resizable=1;rotatable=0;cloneable=0;deletable=1;recursiveResize=0;imageBackground=none;verticalAlign=top;shadow=0;dashed=0;comic=1;strokeColor=default;strokeWidth=1;align=left;spacingLeft=3;fontFamily=Helvetica;fontSize=17;fontColor=#666666;fillColor=default;" parent="I1zV_MND1oV74Reajqi3-2" vertex="1">
          <mxGeometry x="950" y="10" width="53" height="53" as="geometry" />
        </mxCell>
        <mxCell id="lA4nqWK-BkJNwYqBplnw-0" value="Content" style="locked=1;" parent="I1zV_MND1oV74Reajqi3-0" />
        <mxCell id="RKNZrb3-dkO0KXYi3PZI-0" value="&lt;font style=&quot;font-size: 10px;&quot;&gt;Button 1&lt;/font&gt;" style="whiteSpace=wrap;html=1;rounded=0;shadow=0;labelBackgroundColor=none;strokeWidth=1;fontFamily=Verdana;fontSize=10;align=center;comic=1;verticalAlign=middle;" parent="lA4nqWK-BkJNwYqBplnw-0" vertex="1">
          <mxGeometry x="714.4444444444445" y="418.4375" width="73.33333333333333" height="21.5625" as="geometry" />
        </mxCell>
        <mxCell id="RKNZrb3-dkO0KXYi3PZI-1" value="&lt;font style=&quot;font-size: 10px;&quot;&gt;Button 2&lt;/font&gt;" style="whiteSpace=wrap;html=1;rounded=0;shadow=0;labelBackgroundColor=none;strokeWidth=1;fontFamily=Verdana;fontSize=10;align=center;comic=1;verticalAlign=middle;" parent="lA4nqWK-BkJNwYqBplnw-0" vertex="1">
          <mxGeometry x="796.6666666666666" y="418.4375" width="73.33333333333333" height="21.5625" as="geometry" />
        </mxCell>
        <mxCell id="RKNZrb3-dkO0KXYi3PZI-2" value="Option 1" style="strokeWidth=1;shadow=0;dashed=0;align=center;html=1;shape=mxgraph.mockup.text.textBox;fontColor=#666666;align=left;fontSize=17;spacingLeft=4;spacingTop=-3;whiteSpace=wrap;strokeColor=#666666;mainText=;comic=1;fillColor=none;enumerate=0;" parent="lA4nqWK-BkJNwYqBplnw-0" vertex="1">
          <mxGeometry x="714.4444444444445" y="267.5" width="191.11111111111111" height="21.5625" as="geometry" />
        </mxCell>
        <mxCell id="RKNZrb3-dkO0KXYi3PZI-3" value="" style="verticalLabelPosition=bottom;shadow=0;dashed=0;align=center;html=1;verticalAlign=top;strokeWidth=1;shape=mxgraph.mockup.graphics.simpleIcon;strokeColor=#999999;" parent="lA4nqWK-BkJNwYqBplnw-0" vertex="1">
          <mxGeometry x="892.2222222222222" y="271.09375" width="11.11111111111111" height="14.375" as="geometry" />
        </mxCell>
        <mxCell id="RKNZrb3-dkO0KXYi3PZI-4" value="TITLE" style="whiteSpace=wrap;html=1;rounded=0;shadow=0;labelBackgroundColor=none;strokeWidth=1;fillColor=none;fontFamily=Verdana;fontSize=12;align=center;comic=1;" parent="lA4nqWK-BkJNwYqBplnw-0" vertex="1">
          <mxGeometry x="690" y="210" width="320" height="35.9375" as="geometry" />
        </mxCell>
        <mxCell id="RKNZrb3-dkO0KXYi3PZI-5" value="&lt;font style=&quot;font-size: 8px;&quot;&gt;Button1&lt;/font&gt;" style="whiteSpace=wrap;html=1;rounded=0;shadow=0;labelBackgroundColor=none;strokeWidth=1;fontFamily=Verdana;fontSize=8;align=center;comic=1;verticalAlign=middle;" parent="lA4nqWK-BkJNwYqBplnw-0" vertex="1">
          <mxGeometry x="910" y="267.5" width="35.55555555555556" height="21.5625" as="geometry" />
        </mxCell>
        <mxCell id="RKNZrb3-dkO0KXYi3PZI-6" value="&lt;font style=&quot;font-size: 8px;&quot;&gt;Button2&lt;/font&gt;" style="whiteSpace=wrap;html=1;rounded=0;shadow=0;labelBackgroundColor=none;strokeWidth=1;fontFamily=Verdana;fontSize=8;align=center;comic=1;verticalAlign=middle;" parent="lA4nqWK-BkJNwYqBplnw-0" vertex="1">
          <mxGeometry x="950" y="267.5" width="35.55555555555556" height="21.5625" as="geometry" />
        </mxCell>
        <mxCell id="RKNZrb3-dkO0KXYi3PZI-7" value="&lt;font style=&quot;font-size: 14px;&quot;&gt;&lt;font style=&quot;font-size: 14px;&quot;&gt;Lorem ipsum dolor sit amet, consectetur adipisicing elit, sed do eiusmod tempor incididunt ut labore et dolore magna aliqua. Ut enim ad minim veniam, quis nostrud exercitation ullamco laboris nisi ut aliquip ex ea commodo consequat.&amp;nbsp;&lt;/font&gt;&lt;/font&gt;" style="text;spacingTop=-5;whiteSpace=wrap;html=1;align=left;fontSize=14;fontFamily=Helvetica;fillColor=none;strokeColor=none;comic=1;strokeWidth=1;fontColor=default;" parent="lA4nqWK-BkJNwYqBplnw-0" vertex="1">
          <mxGeometry x="715.5555555555555" y="296.25" width="270" height="115" as="geometry" />
        </mxCell>
      </root>
    </mxGraphModel>
  </diagram>
  <diagram name="desktop-adicionar-sponser-animal" id="_j8hyA-kndimlRPLIdtb">
    <mxGraphModel dx="1386" dy="958" grid="1" gridSize="10" guides="1" tooltips="1" connect="1" arrows="1" fold="1" page="1" pageScale="1" pageWidth="1600" pageHeight="900" background="none" math="0" shadow="0">
      <root>
        <mxCell id="15DtUyI71nfreLbgptS7-0" />
        <mxCell id="15DtUyI71nfreLbgptS7-1" style="locked=1;" parent="15DtUyI71nfreLbgptS7-0" />
        <mxCell id="15DtUyI71nfreLbgptS7-2" value="Header" style="locked=1;" parent="15DtUyI71nfreLbgptS7-0" />
        <mxCell id="15DtUyI71nfreLbgptS7-3" value="LOGO" style="whiteSpace=wrap;html=1;rounded=0;shadow=0;labelBackgroundColor=none;strokeWidth=1;fontFamily=Verdana;fontSize=28;align=center;comic=1;" vertex="1" parent="15DtUyI71nfreLbgptS7-2">
          <mxGeometry x="30" y="20" width="190" height="50" as="geometry" />
        </mxCell>
        <mxCell id="15DtUyI71nfreLbgptS7-4" value="Menu 1" style="text;html=1;points=[];align=left;verticalAlign=top;spacingTop=-4;fontSize=14;fontFamily=Verdana" vertex="1" parent="15DtUyI71nfreLbgptS7-2">
          <mxGeometry x="1290" y="35" width="60" height="20" as="geometry" />
        </mxCell>
        <mxCell id="15DtUyI71nfreLbgptS7-5" value="Menu 2" style="text;html=1;points=[];align=left;verticalAlign=top;spacingTop=-4;fontSize=14;fontFamily=Verdana" vertex="1" parent="15DtUyI71nfreLbgptS7-2">
          <mxGeometry x="1370" y="35" width="60" height="20" as="geometry" />
        </mxCell>
        <mxCell id="15DtUyI71nfreLbgptS7-6" value="Menu 3" style="text;html=1;points=[];align=left;verticalAlign=top;spacingTop=-4;fontSize=14;fontFamily=Verdana" vertex="1" parent="15DtUyI71nfreLbgptS7-2">
          <mxGeometry x="1440" y="35" width="60" height="20" as="geometry" />
        </mxCell>
        <mxCell id="15DtUyI71nfreLbgptS7-7" value="Menu 4" style="text;html=1;points=[];align=left;verticalAlign=top;spacingTop=-4;fontSize=14;fontFamily=Verdana" vertex="1" parent="15DtUyI71nfreLbgptS7-2">
          <mxGeometry x="1510" y="35" width="60" height="20" as="geometry" />
        </mxCell>
        <mxCell id="15DtUyI71nfreLbgptS7-8" value="" style="line;strokeWidth=1;html=1;rounded=0;shadow=0;labelBackgroundColor=none;fillColor=none;fontFamily=Verdana;fontSize=14;fontColor=#000000;align=center;comic=1;" vertex="1" parent="15DtUyI71nfreLbgptS7-2">
          <mxGeometry x="30" y="63" width="1540" height="50" as="geometry" />
        </mxCell>
        <mxCell id="15DtUyI71nfreLbgptS7-9" value="" style="whiteSpace=wrap;html=1;rounded=0;shadow=0;labelBackgroundColor=none;strokeWidth=1;fillColor=none;fontFamily=Verdana;fontSize=12;align=center;comic=1;" vertex="1" parent="15DtUyI71nfreLbgptS7-2">
          <mxGeometry x="280" y="150" width="1040" height="50" as="geometry" />
        </mxCell>
        <mxCell id="15DtUyI71nfreLbgptS7-10" value="HEADER" style="text;html=1;points=[];align=left;verticalAlign=top;spacingTop=-4;fontSize=14;fontFamily=Verdana" vertex="1" parent="15DtUyI71nfreLbgptS7-2">
          <mxGeometry x="770" y="165" width="60" height="20" as="geometry" />
        </mxCell>
        <mxCell id="15DtUyI71nfreLbgptS7-11" value="" style="verticalLabelPosition=bottom;shadow=0;dashed=0;align=center;html=1;verticalAlign=top;strokeWidth=1;shape=mxgraph.mockup.graphics.simpleIcon;strokeColor=#999999;" vertex="1" parent="15DtUyI71nfreLbgptS7-2">
          <mxGeometry x="665" y="210" width="270" height="50" as="geometry" />
        </mxCell>
        <mxCell id="15DtUyI71nfreLbgptS7-12" value="Content" style="locked=1;" parent="15DtUyI71nfreLbgptS7-0" />
        <mxCell id="L7yXOEVTZvPsYCJ4F9X1-0" value="&lt;font style=&quot;font-size: 20px;&quot;&gt;Button 1&lt;/font&gt;" style="whiteSpace=wrap;html=1;rounded=0;shadow=0;labelBackgroundColor=none;strokeWidth=1;fontFamily=Verdana;fontSize=20;align=center;comic=1;verticalAlign=middle;" vertex="1" parent="15DtUyI71nfreLbgptS7-12">
          <mxGeometry x="495" y="580" width="165" height="30" as="geometry" />
        </mxCell>
        <mxCell id="L7yXOEVTZvPsYCJ4F9X1-1" value="&lt;font style=&quot;font-size: 20px;&quot;&gt;Button 2&lt;/font&gt;" style="whiteSpace=wrap;html=1;rounded=0;shadow=0;labelBackgroundColor=none;strokeWidth=1;fontFamily=Verdana;fontSize=20;align=center;comic=1;verticalAlign=middle;" vertex="1" parent="15DtUyI71nfreLbgptS7-12">
          <mxGeometry x="680" y="580" width="165" height="30" as="geometry" />
        </mxCell>
        <mxCell id="L7yXOEVTZvPsYCJ4F9X1-2" value="Option 1" style="strokeWidth=1;shadow=0;dashed=0;align=center;html=1;shape=mxgraph.mockup.text.textBox;fontColor=#666666;align=left;fontSize=17;spacingLeft=4;spacingTop=-3;whiteSpace=wrap;strokeColor=#666666;mainText=;comic=1;fillColor=none;enumerate=0;" vertex="1" parent="15DtUyI71nfreLbgptS7-12">
          <mxGeometry x="495" y="370" width="430" height="30" as="geometry" />
        </mxCell>
        <mxCell id="L7yXOEVTZvPsYCJ4F9X1-3" value="" style="verticalLabelPosition=bottom;shadow=0;dashed=0;align=center;html=1;verticalAlign=top;strokeWidth=1;shape=mxgraph.mockup.graphics.simpleIcon;strokeColor=#999999;" vertex="1" parent="15DtUyI71nfreLbgptS7-12">
          <mxGeometry x="895" y="375" width="25" height="20" as="geometry" />
        </mxCell>
        <mxCell id="L7yXOEVTZvPsYCJ4F9X1-4" value="TITLE" style="whiteSpace=wrap;html=1;rounded=0;shadow=0;labelBackgroundColor=none;strokeWidth=1;fillColor=none;fontFamily=Verdana;fontSize=12;align=center;comic=1;" vertex="1" parent="15DtUyI71nfreLbgptS7-12">
          <mxGeometry x="440" y="290" width="720" height="50" as="geometry" />
        </mxCell>
        <mxCell id="L7yXOEVTZvPsYCJ4F9X1-5" value="&lt;font style=&quot;font-size: 20px;&quot;&gt;Button1&lt;/font&gt;" style="whiteSpace=wrap;html=1;rounded=0;shadow=0;labelBackgroundColor=none;strokeWidth=1;fontFamily=Verdana;fontSize=20;align=center;comic=1;verticalAlign=middle;" vertex="1" parent="15DtUyI71nfreLbgptS7-12">
          <mxGeometry x="935" y="370" width="80" height="30" as="geometry" />
        </mxCell>
        <mxCell id="L7yXOEVTZvPsYCJ4F9X1-6" value="&lt;font style=&quot;font-size: 20px;&quot;&gt;Button2&lt;/font&gt;" style="whiteSpace=wrap;html=1;rounded=0;shadow=0;labelBackgroundColor=none;strokeWidth=1;fontFamily=Verdana;fontSize=20;align=center;comic=1;verticalAlign=middle;" vertex="1" parent="15DtUyI71nfreLbgptS7-12">
          <mxGeometry x="1025" y="370" width="80" height="30" as="geometry" />
        </mxCell>
        <mxCell id="L7yXOEVTZvPsYCJ4F9X1-7" value="&lt;font style=&quot;font-size: 14px;&quot;&gt;&lt;font style=&quot;font-size: 14px;&quot;&gt;Lorem ipsum dolor sit amet, consectetur adipisicing elit, sed do eiusmod tempor incididunt ut labore et dolore magna aliqua. Ut enim ad minim veniam, quis nostrud exercitation ullamco laboris nisi ut aliquip ex ea commodo consequat. Duis aute irure dolor in reprehenderit in voluptate velit esse cillum dolore eu fugiat nulla pariatur. Excepteur sint occaecat cupidatat non proident, sunt in culpa qui officia deserunt mollit anim id est laborum.&amp;nbsp;Excepteur sint occaecat cupidatat non proident, sunt in culpa qui officia deserunt mollit anim id est laborum.&lt;br style=&quot;font-size: 14px;&quot;&gt;&lt;/font&gt;&lt;span style=&quot;font-size: 14px;&quot;&gt;Sed ut perspiciatis unde omnis iste natus error sit voluptatem accusantium doloremque laudantium, totam rem aperiam, eaque ipsa quae ab illo inventore veritatis et quasi architecto beatae vitae dicta sunt explicabo.&lt;/span&gt;&lt;/font&gt;" style="text;spacingTop=-5;whiteSpace=wrap;html=1;align=left;fontSize=14;fontFamily=Helvetica;fillColor=none;strokeColor=none;comic=1;strokeWidth=1;fontColor=default;" vertex="1" parent="15DtUyI71nfreLbgptS7-12">
          <mxGeometry x="497.5" y="410" width="607.5" height="160" as="geometry" />
        </mxCell>
      </root>
    </mxGraphModel>
  </diagram>
  <diagram name="mobile-lista-sponsor-animal" id="BsA6AuFYedyqFgPDJT5j">
    <mxGraphModel dx="706" dy="862" grid="1" gridSize="10" guides="1" tooltips="1" connect="1" arrows="1" fold="1" page="1" pageScale="1" pageWidth="340" pageHeight="480" background="none" math="0" shadow="0">
      <root>
        <mxCell id="IxyZFukm3zhGJzMToGcJ-0" />
        <mxCell id="IxyZFukm3zhGJzMToGcJ-1" style="locked=1;" parent="IxyZFukm3zhGJzMToGcJ-0" />
        <mxCell id="IxyZFukm3zhGJzMToGcJ-2" value="Header" style="" parent="IxyZFukm3zhGJzMToGcJ-0" />
        <mxCell id="IxyZFukm3zhGJzMToGcJ-3" value="LOGO" style="whiteSpace=wrap;html=1;rounded=0;shadow=0;labelBackgroundColor=none;strokeWidth=1;fontFamily=Verdana;fontSize=28;align=center;comic=1;" parent="IxyZFukm3zhGJzMToGcJ-2" vertex="1">
          <mxGeometry x="690" y="10" width="190" height="50" as="geometry" />
        </mxCell>
        <mxCell id="IxyZFukm3zhGJzMToGcJ-4" value="" style="line;strokeWidth=1;html=1;rounded=0;shadow=0;labelBackgroundColor=none;fillColor=none;fontFamily=Verdana;fontSize=14;fontColor=#000000;align=center;comic=1;" parent="IxyZFukm3zhGJzMToGcJ-2" vertex="1">
          <mxGeometry x="680" y="63" width="340" height="50" as="geometry" />
        </mxCell>
        <mxCell id="IxyZFukm3zhGJzMToGcJ-5" value="&lt;span style=&quot;font-size: 14px; text-align: left; text-wrap: nowrap;&quot;&gt;HEADER&lt;/span&gt;" style="whiteSpace=wrap;html=1;rounded=0;shadow=0;labelBackgroundColor=none;strokeWidth=1;fillColor=none;fontFamily=Verdana;fontSize=12;align=center;comic=1;" parent="IxyZFukm3zhGJzMToGcJ-2" vertex="1">
          <mxGeometry x="720" y="110" width="260" height="50" as="geometry" />
        </mxCell>
        <mxCell id="IxyZFukm3zhGJzMToGcJ-6" value="" style="verticalLabelPosition=bottom;shadow=0;dashed=0;align=center;html=1;verticalAlign=top;strokeWidth=1;shape=mxgraph.mockup.graphics.simpleIcon;strokeColor=#999999;" parent="IxyZFukm3zhGJzMToGcJ-2" vertex="1">
          <mxGeometry x="752" y="170" width="197" height="20" as="geometry" />
        </mxCell>
        <mxCell id="IxyZFukm3zhGJzMToGcJ-7" value="" style="editableCssRules=path;shape=image;aspect=fixed;image=data:image/svg+xml,PHN2ZyB4bWxucz0iaHR0cDovL3d3dy53My5vcmcvMjAwMC9zdmciIHZpZXdCb3g9IjAgMCA0NDggNTEyIj48IS0tISBGb250IEF3ZXNvbWUgRnJlZSA2LjEuMSBieSBAZm9udGF3ZXNvbWUgLSBodHRwczovL2ZvbnRhd2Vzb21lLmNvbSBMaWNlbnNlIC0gaHR0cHM6Ly9mb250YXdlc29tZS5jb20vbGljZW5zZS9mcmVlIChJY29uczogQ0MgQlkgNC4wLCBGb250czogU0lMIE9GTCAxLjEsIENvZGU6IE1JVCBMaWNlbnNlKSBDb3B5cmlnaHQgMjAyMiBGb250aWNvbnMsIEluYy4gLS0+PHN0eWxlIHR5cGU9InRleHQvY3NzIj5wYXRoIHsgZmlsbDogcmdiKDI2LCAyNiwgMjYpOyB9IDwvc3R5bGU+PHBhdGggZD0iTTAgOTZDMCA3OC4zMyAxNC4zMyA2NCAzMiA2NEg0MTZDNDMzLjcgNjQgNDQ4IDc4LjMzIDQ0OCA5NkM0NDggMTEzLjcgNDMzLjcgMTI4IDQxNiAxMjhIMzJDMTQuMzMgMTI4IDAgMTEzLjcgMCA5NnpNMCAyNTZDMCAyMzguMyAxNC4zMyAyMjQgMzIgMjI0SDQxNkM0MzMuNyAyMjQgNDQ4IDIzOC4zIDQ0OCAyNTZDNDQ4IDI3My43IDQzMy43IDI4OCA0MTYgMjg4SDMyQzE0LjMzIDI4OCAwIDI3My43IDAgMjU2ek00MTYgNDQ4SDMyQzE0LjMzIDQ0OCAwIDQzMy43IDAgNDE2QzAgMzk4LjMgMTQuMzMgMzg0IDMyIDM4NEg0MTZDNDMzLjcgMzg0IDQ0OCAzOTguMyA0NDggNDE2QzQ0OCA0MzMuNyA0MzMuNyA0NDggNDE2IDQ0OHoiLz48L3N2Zz4=;connectable=0;movable=1;verticalLabelPosition=bottom;resizable=1;rotatable=0;cloneable=0;deletable=1;recursiveResize=0;imageBackground=none;verticalAlign=top;shadow=0;dashed=0;comic=1;strokeColor=default;strokeWidth=1;align=left;spacingLeft=3;fontFamily=Helvetica;fontSize=17;fontColor=#666666;fillColor=default;" parent="IxyZFukm3zhGJzMToGcJ-2" vertex="1">
          <mxGeometry x="950" y="10" width="53" height="53" as="geometry" />
        </mxCell>
        <mxCell id="IxyZFukm3zhGJzMToGcJ-8" value="Content" style="locked=1;" parent="IxyZFukm3zhGJzMToGcJ-0" />
        <mxCell id="xTaZqC6k9bQP1kqMP70z-0" value="" style="shape=table;startSize=0;container=1;collapsible=0;childLayout=tableLayout;comic=1;" parent="IxyZFukm3zhGJzMToGcJ-8" vertex="1">
          <mxGeometry x="740.5405405405405" y="293.52941176470586" width="218.91891891891888" height="76.47058823529412" as="geometry" />
        </mxCell>
        <mxCell id="xTaZqC6k9bQP1kqMP70z-1" value="" style="shape=tableRow;horizontal=0;startSize=0;swimlaneHead=0;swimlaneBody=0;strokeColor=inherit;top=0;left=0;bottom=0;right=0;collapsible=0;dropTarget=0;fillColor=none;points=[[0,0.5],[1,0.5]];portConstraint=eastwest;" parent="xTaZqC6k9bQP1kqMP70z-0" vertex="1">
          <mxGeometry width="218.91891891891888" height="38" as="geometry" />
        </mxCell>
        <mxCell id="xTaZqC6k9bQP1kqMP70z-2" value="Column 1" style="shape=partialRectangle;html=1;whiteSpace=wrap;connectable=0;strokeColor=inherit;overflow=hidden;fillColor=none;top=0;left=0;bottom=0;right=0;pointerEvents=1;fontSize=10;" parent="xTaZqC6k9bQP1kqMP70z-1" vertex="1">
          <mxGeometry width="55" height="38" as="geometry">
            <mxRectangle width="55" height="38" as="alternateBounds" />
          </mxGeometry>
        </mxCell>
        <mxCell id="xTaZqC6k9bQP1kqMP70z-3" value="Column 2" style="shape=partialRectangle;html=1;whiteSpace=wrap;connectable=0;strokeColor=inherit;overflow=hidden;fillColor=none;top=0;left=0;bottom=0;right=0;pointerEvents=1;fontSize=10;" parent="xTaZqC6k9bQP1kqMP70z-1" vertex="1">
          <mxGeometry x="55" width="56" height="38" as="geometry">
            <mxRectangle width="56" height="38" as="alternateBounds" />
          </mxGeometry>
        </mxCell>
        <mxCell id="xTaZqC6k9bQP1kqMP70z-4" value="Column 3" style="shape=partialRectangle;html=1;whiteSpace=wrap;connectable=0;strokeColor=inherit;overflow=hidden;fillColor=none;top=0;left=0;bottom=0;right=0;pointerEvents=1;fontSize=10;" parent="xTaZqC6k9bQP1kqMP70z-1" vertex="1">
          <mxGeometry x="111" width="53" height="38" as="geometry">
            <mxRectangle width="53" height="38" as="alternateBounds" />
          </mxGeometry>
        </mxCell>
        <mxCell id="xTaZqC6k9bQP1kqMP70z-5" value="Column 4" style="shape=partialRectangle;html=1;whiteSpace=wrap;connectable=0;strokeColor=inherit;overflow=hidden;fillColor=none;top=0;left=0;bottom=0;right=0;pointerEvents=1;fontSize=10;" parent="xTaZqC6k9bQP1kqMP70z-1" vertex="1">
          <mxGeometry x="164" width="55" height="38" as="geometry">
            <mxRectangle width="55" height="38" as="alternateBounds" />
          </mxGeometry>
        </mxCell>
        <mxCell id="xTaZqC6k9bQP1kqMP70z-6" value="" style="shape=tableRow;horizontal=0;startSize=0;swimlaneHead=0;swimlaneBody=0;strokeColor=inherit;top=0;left=0;bottom=0;right=0;collapsible=0;dropTarget=0;fillColor=none;points=[[0,0.5],[1,0.5]];portConstraint=eastwest;" parent="xTaZqC6k9bQP1kqMP70z-0" vertex="1">
          <mxGeometry y="38" width="218.91891891891888" height="38" as="geometry" />
        </mxCell>
        <mxCell id="xTaZqC6k9bQP1kqMP70z-7" value="Row 1" style="shape=partialRectangle;html=1;whiteSpace=wrap;connectable=0;strokeColor=inherit;overflow=hidden;fillColor=none;top=0;left=0;bottom=0;right=0;pointerEvents=1;fontSize=10;" parent="xTaZqC6k9bQP1kqMP70z-6" vertex="1">
          <mxGeometry width="55" height="38" as="geometry">
            <mxRectangle width="55" height="38" as="alternateBounds" />
          </mxGeometry>
        </mxCell>
        <mxCell id="xTaZqC6k9bQP1kqMP70z-8" value="Row 1" style="shape=partialRectangle;html=1;whiteSpace=wrap;connectable=0;strokeColor=inherit;overflow=hidden;fillColor=none;top=0;left=0;bottom=0;right=0;pointerEvents=1;fontSize=10;" parent="xTaZqC6k9bQP1kqMP70z-6" vertex="1">
          <mxGeometry x="55" width="56" height="38" as="geometry">
            <mxRectangle width="56" height="38" as="alternateBounds" />
          </mxGeometry>
        </mxCell>
        <mxCell id="xTaZqC6k9bQP1kqMP70z-9" value="Row 1" style="shape=partialRectangle;html=1;whiteSpace=wrap;connectable=0;strokeColor=inherit;overflow=hidden;fillColor=none;top=0;left=0;bottom=0;right=0;pointerEvents=1;fontSize=10;" parent="xTaZqC6k9bQP1kqMP70z-6" vertex="1">
          <mxGeometry x="111" width="53" height="38" as="geometry">
            <mxRectangle width="53" height="38" as="alternateBounds" />
          </mxGeometry>
        </mxCell>
        <mxCell id="xTaZqC6k9bQP1kqMP70z-10" value="Row 1" style="shape=partialRectangle;html=1;whiteSpace=wrap;connectable=0;strokeColor=inherit;overflow=hidden;fillColor=none;top=0;left=0;bottom=0;right=0;pointerEvents=1;fontSize=10;" parent="xTaZqC6k9bQP1kqMP70z-6" vertex="1">
          <mxGeometry x="164" width="55" height="38" as="geometry">
            <mxRectangle width="55" height="38" as="alternateBounds" />
          </mxGeometry>
        </mxCell>
        <mxCell id="xTaZqC6k9bQP1kqMP70z-11" value="TITLE" style="whiteSpace=wrap;html=1;rounded=0;shadow=0;labelBackgroundColor=none;strokeWidth=1;fillColor=none;fontFamily=Verdana;fontSize=12;align=center;comic=1;" parent="IxyZFukm3zhGJzMToGcJ-8" vertex="1">
          <mxGeometry x="700" y="240" width="300" height="38.23529411764706" as="geometry" />
        </mxCell>
      </root>
    </mxGraphModel>
  </diagram>
  <diagram name="desktop-lista-sponsor-animal" id="0jAjor-aGZYEeFLZiUOw">
    <mxGraphModel dx="1386" dy="910" grid="1" gridSize="10" guides="1" tooltips="1" connect="1" arrows="1" fold="1" page="1" pageScale="1" pageWidth="1600" pageHeight="900" background="none" math="0" shadow="0">
      <root>
        <mxCell id="6_EwgdKnPHdR83NdZkqo-0" />
        <mxCell id="6_EwgdKnPHdR83NdZkqo-1" style="locked=1;" parent="6_EwgdKnPHdR83NdZkqo-0" />
        <mxCell id="6_EwgdKnPHdR83NdZkqo-2" value="Header" style="locked=1;" parent="6_EwgdKnPHdR83NdZkqo-0" />
        <mxCell id="6_EwgdKnPHdR83NdZkqo-3" value="LOGO" style="whiteSpace=wrap;html=1;rounded=0;shadow=0;labelBackgroundColor=none;strokeWidth=1;fontFamily=Verdana;fontSize=28;align=center;comic=1;" parent="6_EwgdKnPHdR83NdZkqo-2" vertex="1">
          <mxGeometry x="30" y="20" width="190" height="50" as="geometry" />
        </mxCell>
        <mxCell id="6_EwgdKnPHdR83NdZkqo-4" value="Menu 1" style="text;html=1;points=[];align=left;verticalAlign=top;spacingTop=-4;fontSize=14;fontFamily=Verdana" parent="6_EwgdKnPHdR83NdZkqo-2" vertex="1">
          <mxGeometry x="1290" y="35" width="60" height="20" as="geometry" />
        </mxCell>
        <mxCell id="6_EwgdKnPHdR83NdZkqo-5" value="Menu 2" style="text;html=1;points=[];align=left;verticalAlign=top;spacingTop=-4;fontSize=14;fontFamily=Verdana" parent="6_EwgdKnPHdR83NdZkqo-2" vertex="1">
          <mxGeometry x="1370" y="35" width="60" height="20" as="geometry" />
        </mxCell>
        <mxCell id="6_EwgdKnPHdR83NdZkqo-6" value="Menu 3" style="text;html=1;points=[];align=left;verticalAlign=top;spacingTop=-4;fontSize=14;fontFamily=Verdana" parent="6_EwgdKnPHdR83NdZkqo-2" vertex="1">
          <mxGeometry x="1440" y="35" width="60" height="20" as="geometry" />
        </mxCell>
        <mxCell id="6_EwgdKnPHdR83NdZkqo-7" value="Menu 4" style="text;html=1;points=[];align=left;verticalAlign=top;spacingTop=-4;fontSize=14;fontFamily=Verdana" parent="6_EwgdKnPHdR83NdZkqo-2" vertex="1">
          <mxGeometry x="1510" y="35" width="60" height="20" as="geometry" />
        </mxCell>
        <mxCell id="6_EwgdKnPHdR83NdZkqo-8" value="" style="line;strokeWidth=1;html=1;rounded=0;shadow=0;labelBackgroundColor=none;fillColor=none;fontFamily=Verdana;fontSize=14;fontColor=#000000;align=center;comic=1;" parent="6_EwgdKnPHdR83NdZkqo-2" vertex="1">
          <mxGeometry x="30" y="63" width="1540" height="50" as="geometry" />
        </mxCell>
        <mxCell id="6_EwgdKnPHdR83NdZkqo-9" value="" style="whiteSpace=wrap;html=1;rounded=0;shadow=0;labelBackgroundColor=none;strokeWidth=1;fillColor=none;fontFamily=Verdana;fontSize=12;align=center;comic=1;" parent="6_EwgdKnPHdR83NdZkqo-2" vertex="1">
          <mxGeometry x="280" y="150" width="1040" height="50" as="geometry" />
        </mxCell>
        <mxCell id="6_EwgdKnPHdR83NdZkqo-10" value="HEADER" style="text;html=1;points=[];align=left;verticalAlign=top;spacingTop=-4;fontSize=14;fontFamily=Verdana" parent="6_EwgdKnPHdR83NdZkqo-2" vertex="1">
          <mxGeometry x="770" y="165" width="60" height="20" as="geometry" />
        </mxCell>
        <mxCell id="6_EwgdKnPHdR83NdZkqo-11" value="" style="verticalLabelPosition=bottom;shadow=0;dashed=0;align=center;html=1;verticalAlign=top;strokeWidth=1;shape=mxgraph.mockup.graphics.simpleIcon;strokeColor=#999999;" parent="6_EwgdKnPHdR83NdZkqo-2" vertex="1">
          <mxGeometry x="665" y="210" width="270" height="50" as="geometry" />
        </mxCell>
        <mxCell id="6_EwgdKnPHdR83NdZkqo-12" value="Content" style="locked=1;" parent="6_EwgdKnPHdR83NdZkqo-0" />
        <mxCell id="x42scFs1c-tQPF2BOJD6-0" value="" style="shape=table;startSize=0;container=1;collapsible=0;childLayout=tableLayout;comic=1;" parent="6_EwgdKnPHdR83NdZkqo-12" vertex="1">
          <mxGeometry x="530" y="350" width="540" height="100" as="geometry" />
        </mxCell>
        <mxCell id="x42scFs1c-tQPF2BOJD6-1" value="" style="shape=tableRow;horizontal=0;startSize=0;swimlaneHead=0;swimlaneBody=0;strokeColor=inherit;top=0;left=0;bottom=0;right=0;collapsible=0;dropTarget=0;fillColor=none;points=[[0,0.5],[1,0.5]];portConstraint=eastwest;" parent="x42scFs1c-tQPF2BOJD6-0" vertex="1">
          <mxGeometry width="540" height="50" as="geometry" />
        </mxCell>
        <mxCell id="x42scFs1c-tQPF2BOJD6-2" value="Column 1" style="shape=partialRectangle;html=1;whiteSpace=wrap;connectable=0;strokeColor=inherit;overflow=hidden;fillColor=none;top=0;left=0;bottom=0;right=0;pointerEvents=1;" parent="x42scFs1c-tQPF2BOJD6-1" vertex="1">
          <mxGeometry width="135" height="50" as="geometry">
            <mxRectangle width="135" height="50" as="alternateBounds" />
          </mxGeometry>
        </mxCell>
        <mxCell id="x42scFs1c-tQPF2BOJD6-3" value="Column 2" style="shape=partialRectangle;html=1;whiteSpace=wrap;connectable=0;strokeColor=inherit;overflow=hidden;fillColor=none;top=0;left=0;bottom=0;right=0;pointerEvents=1;" parent="x42scFs1c-tQPF2BOJD6-1" vertex="1">
          <mxGeometry x="135" width="135" height="50" as="geometry">
            <mxRectangle width="135" height="50" as="alternateBounds" />
          </mxGeometry>
        </mxCell>
        <mxCell id="x42scFs1c-tQPF2BOJD6-4" value="Column 3" style="shape=partialRectangle;html=1;whiteSpace=wrap;connectable=0;strokeColor=inherit;overflow=hidden;fillColor=none;top=0;left=0;bottom=0;right=0;pointerEvents=1;" parent="x42scFs1c-tQPF2BOJD6-1" vertex="1">
          <mxGeometry x="270" width="135" height="50" as="geometry">
            <mxRectangle width="135" height="50" as="alternateBounds" />
          </mxGeometry>
        </mxCell>
        <mxCell id="x42scFs1c-tQPF2BOJD6-5" value="Column 4" style="shape=partialRectangle;html=1;whiteSpace=wrap;connectable=0;strokeColor=inherit;overflow=hidden;fillColor=none;top=0;left=0;bottom=0;right=0;pointerEvents=1;" parent="x42scFs1c-tQPF2BOJD6-1" vertex="1">
          <mxGeometry x="405" width="135" height="50" as="geometry">
            <mxRectangle width="135" height="50" as="alternateBounds" />
          </mxGeometry>
        </mxCell>
        <mxCell id="x42scFs1c-tQPF2BOJD6-6" value="" style="shape=tableRow;horizontal=0;startSize=0;swimlaneHead=0;swimlaneBody=0;strokeColor=inherit;top=0;left=0;bottom=0;right=0;collapsible=0;dropTarget=0;fillColor=none;points=[[0,0.5],[1,0.5]];portConstraint=eastwest;" parent="x42scFs1c-tQPF2BOJD6-0" vertex="1">
          <mxGeometry y="50" width="540" height="50" as="geometry" />
        </mxCell>
        <mxCell id="x42scFs1c-tQPF2BOJD6-7" value="Row 1" style="shape=partialRectangle;html=1;whiteSpace=wrap;connectable=0;strokeColor=inherit;overflow=hidden;fillColor=none;top=0;left=0;bottom=0;right=0;pointerEvents=1;" parent="x42scFs1c-tQPF2BOJD6-6" vertex="1">
          <mxGeometry width="135" height="50" as="geometry">
            <mxRectangle width="135" height="50" as="alternateBounds" />
          </mxGeometry>
        </mxCell>
        <mxCell id="x42scFs1c-tQPF2BOJD6-8" value="Row 1" style="shape=partialRectangle;html=1;whiteSpace=wrap;connectable=0;strokeColor=inherit;overflow=hidden;fillColor=none;top=0;left=0;bottom=0;right=0;pointerEvents=1;" parent="x42scFs1c-tQPF2BOJD6-6" vertex="1">
          <mxGeometry x="135" width="135" height="50" as="geometry">
            <mxRectangle width="135" height="50" as="alternateBounds" />
          </mxGeometry>
        </mxCell>
        <mxCell id="x42scFs1c-tQPF2BOJD6-9" value="Row 1" style="shape=partialRectangle;html=1;whiteSpace=wrap;connectable=0;strokeColor=inherit;overflow=hidden;fillColor=none;top=0;left=0;bottom=0;right=0;pointerEvents=1;" parent="x42scFs1c-tQPF2BOJD6-6" vertex="1">
          <mxGeometry x="270" width="135" height="50" as="geometry">
            <mxRectangle width="135" height="50" as="alternateBounds" />
          </mxGeometry>
        </mxCell>
        <mxCell id="x42scFs1c-tQPF2BOJD6-10" value="Row 1" style="shape=partialRectangle;html=1;whiteSpace=wrap;connectable=0;strokeColor=inherit;overflow=hidden;fillColor=none;top=0;left=0;bottom=0;right=0;pointerEvents=1;" parent="x42scFs1c-tQPF2BOJD6-6" vertex="1">
          <mxGeometry x="405" width="135" height="50" as="geometry">
            <mxRectangle width="135" height="50" as="alternateBounds" />
          </mxGeometry>
        </mxCell>
        <mxCell id="x42scFs1c-tQPF2BOJD6-11" value="TITLE" style="whiteSpace=wrap;html=1;rounded=0;shadow=0;labelBackgroundColor=none;strokeWidth=1;fillColor=none;fontFamily=Verdana;fontSize=12;align=center;comic=1;" parent="6_EwgdKnPHdR83NdZkqo-12" vertex="1">
          <mxGeometry x="430" y="280" width="740" height="50" as="geometry" />
        </mxCell>
      </root>
    </mxGraphModel>
  </diagram>
  <diagram name="mobile-expert-list" id="Yiazo_JoFUsaYGlLK_VB">
    <mxGraphModel dx="706" dy="862" grid="1" gridSize="10" guides="1" tooltips="1" connect="1" arrows="1" fold="1" page="1" pageScale="1" pageWidth="340" pageHeight="480" background="none" math="0" shadow="0">
      <root>
        <mxCell id="izOlxlyPjDSlhkxPn7Ld-0" />
        <mxCell id="izOlxlyPjDSlhkxPn7Ld-1" style="locked=1;" parent="izOlxlyPjDSlhkxPn7Ld-0" />
        <mxCell id="izOlxlyPjDSlhkxPn7Ld-2" value="Header" style="" parent="izOlxlyPjDSlhkxPn7Ld-0" />
        <mxCell id="izOlxlyPjDSlhkxPn7Ld-3" value="LOGO" style="whiteSpace=wrap;html=1;rounded=0;shadow=0;labelBackgroundColor=none;strokeWidth=1;fontFamily=Verdana;fontSize=28;align=center;comic=1;" parent="izOlxlyPjDSlhkxPn7Ld-2" vertex="1">
          <mxGeometry x="690" y="10" width="190" height="50" as="geometry" />
        </mxCell>
        <mxCell id="izOlxlyPjDSlhkxPn7Ld-4" value="" style="line;strokeWidth=1;html=1;rounded=0;shadow=0;labelBackgroundColor=none;fillColor=none;fontFamily=Verdana;fontSize=14;fontColor=#000000;align=center;comic=1;" parent="izOlxlyPjDSlhkxPn7Ld-2" vertex="1">
          <mxGeometry x="680" y="63" width="340" height="50" as="geometry" />
        </mxCell>
        <mxCell id="izOlxlyPjDSlhkxPn7Ld-5" value="&lt;span style=&quot;font-size: 14px; text-align: left; text-wrap: nowrap;&quot;&gt;HEADER&lt;/span&gt;" style="whiteSpace=wrap;html=1;rounded=0;shadow=0;labelBackgroundColor=none;strokeWidth=1;fillColor=none;fontFamily=Verdana;fontSize=12;align=center;comic=1;" parent="izOlxlyPjDSlhkxPn7Ld-2" vertex="1">
          <mxGeometry x="720" y="110" width="260" height="50" as="geometry" />
        </mxCell>
        <mxCell id="izOlxlyPjDSlhkxPn7Ld-6" value="" style="verticalLabelPosition=bottom;shadow=0;dashed=0;align=center;html=1;verticalAlign=top;strokeWidth=1;shape=mxgraph.mockup.graphics.simpleIcon;strokeColor=#999999;" parent="izOlxlyPjDSlhkxPn7Ld-2" vertex="1">
          <mxGeometry x="752" y="170" width="197" height="20" as="geometry" />
        </mxCell>
        <mxCell id="izOlxlyPjDSlhkxPn7Ld-7" value="" style="editableCssRules=path;shape=image;aspect=fixed;image=data:image/svg+xml,PHN2ZyB4bWxucz0iaHR0cDovL3d3dy53My5vcmcvMjAwMC9zdmciIHZpZXdCb3g9IjAgMCA0NDggNTEyIj48IS0tISBGb250IEF3ZXNvbWUgRnJlZSA2LjEuMSBieSBAZm9udGF3ZXNvbWUgLSBodHRwczovL2ZvbnRhd2Vzb21lLmNvbSBMaWNlbnNlIC0gaHR0cHM6Ly9mb250YXdlc29tZS5jb20vbGljZW5zZS9mcmVlIChJY29uczogQ0MgQlkgNC4wLCBGb250czogU0lMIE9GTCAxLjEsIENvZGU6IE1JVCBMaWNlbnNlKSBDb3B5cmlnaHQgMjAyMiBGb250aWNvbnMsIEluYy4gLS0+PHN0eWxlIHR5cGU9InRleHQvY3NzIj5wYXRoIHsgZmlsbDogcmdiKDI2LCAyNiwgMjYpOyB9IDwvc3R5bGU+PHBhdGggZD0iTTAgOTZDMCA3OC4zMyAxNC4zMyA2NCAzMiA2NEg0MTZDNDMzLjcgNjQgNDQ4IDc4LjMzIDQ0OCA5NkM0NDggMTEzLjcgNDMzLjcgMTI4IDQxNiAxMjhIMzJDMTQuMzMgMTI4IDAgMTEzLjcgMCA5NnpNMCAyNTZDMCAyMzguMyAxNC4zMyAyMjQgMzIgMjI0SDQxNkM0MzMuNyAyMjQgNDQ4IDIzOC4zIDQ0OCAyNTZDNDQ4IDI3My43IDQzMy43IDI4OCA0MTYgMjg4SDMyQzE0LjMzIDI4OCAwIDI3My43IDAgMjU2ek00MTYgNDQ4SDMyQzE0LjMzIDQ0OCAwIDQzMy43IDAgNDE2QzAgMzk4LjMgMTQuMzMgMzg0IDMyIDM4NEg0MTZDNDMzLjcgMzg0IDQ0OCAzOTguMyA0NDggNDE2QzQ0OCA0MzMuNyA0MzMuNyA0NDggNDE2IDQ0OHoiLz48L3N2Zz4=;connectable=0;movable=1;verticalLabelPosition=bottom;resizable=1;rotatable=0;cloneable=0;deletable=1;recursiveResize=0;imageBackground=none;verticalAlign=top;shadow=0;dashed=0;comic=1;strokeColor=default;strokeWidth=1;align=left;spacingLeft=3;fontFamily=Helvetica;fontSize=17;fontColor=#666666;fillColor=default;" parent="izOlxlyPjDSlhkxPn7Ld-2" vertex="1">
          <mxGeometry x="950" y="10" width="53" height="53" as="geometry" />
        </mxCell>
        <mxCell id="izOlxlyPjDSlhkxPn7Ld-8" value="Content" style="locked=1;" parent="izOlxlyPjDSlhkxPn7Ld-0" />
        <mxCell id="izOlxlyPjDSlhkxPn7Ld-9" value="" style="shape=table;startSize=0;container=1;collapsible=0;childLayout=tableLayout;comic=1;" parent="izOlxlyPjDSlhkxPn7Ld-8" vertex="1">
          <mxGeometry x="741.0005405405406" y="269.9994117647059" width="218.91891891891888" height="76.47058823529412" as="geometry" />
        </mxCell>
        <mxCell id="izOlxlyPjDSlhkxPn7Ld-10" value="" style="shape=tableRow;horizontal=0;startSize=0;swimlaneHead=0;swimlaneBody=0;strokeColor=inherit;top=0;left=0;bottom=0;right=0;collapsible=0;dropTarget=0;fillColor=none;points=[[0,0.5],[1,0.5]];portConstraint=eastwest;" parent="izOlxlyPjDSlhkxPn7Ld-9" vertex="1">
          <mxGeometry width="218.91891891891888" height="38" as="geometry" />
        </mxCell>
        <mxCell id="izOlxlyPjDSlhkxPn7Ld-11" value="Column 1" style="shape=partialRectangle;html=1;whiteSpace=wrap;connectable=0;strokeColor=inherit;overflow=hidden;fillColor=none;top=0;left=0;bottom=0;right=0;pointerEvents=1;fontSize=10;" parent="izOlxlyPjDSlhkxPn7Ld-10" vertex="1">
          <mxGeometry width="55" height="38" as="geometry">
            <mxRectangle width="55" height="38" as="alternateBounds" />
          </mxGeometry>
        </mxCell>
        <mxCell id="izOlxlyPjDSlhkxPn7Ld-12" value="Column 2" style="shape=partialRectangle;html=1;whiteSpace=wrap;connectable=0;strokeColor=inherit;overflow=hidden;fillColor=none;top=0;left=0;bottom=0;right=0;pointerEvents=1;fontSize=10;" parent="izOlxlyPjDSlhkxPn7Ld-10" vertex="1">
          <mxGeometry x="55" width="56" height="38" as="geometry">
            <mxRectangle width="56" height="38" as="alternateBounds" />
          </mxGeometry>
        </mxCell>
        <mxCell id="izOlxlyPjDSlhkxPn7Ld-13" value="Column 3" style="shape=partialRectangle;html=1;whiteSpace=wrap;connectable=0;strokeColor=inherit;overflow=hidden;fillColor=none;top=0;left=0;bottom=0;right=0;pointerEvents=1;fontSize=10;" parent="izOlxlyPjDSlhkxPn7Ld-10" vertex="1">
          <mxGeometry x="111" width="53" height="38" as="geometry">
            <mxRectangle width="53" height="38" as="alternateBounds" />
          </mxGeometry>
        </mxCell>
        <mxCell id="izOlxlyPjDSlhkxPn7Ld-14" value="Column 4" style="shape=partialRectangle;html=1;whiteSpace=wrap;connectable=0;strokeColor=inherit;overflow=hidden;fillColor=none;top=0;left=0;bottom=0;right=0;pointerEvents=1;fontSize=10;" parent="izOlxlyPjDSlhkxPn7Ld-10" vertex="1">
          <mxGeometry x="164" width="55" height="38" as="geometry">
            <mxRectangle width="55" height="38" as="alternateBounds" />
          </mxGeometry>
        </mxCell>
        <mxCell id="izOlxlyPjDSlhkxPn7Ld-15" value="" style="shape=tableRow;horizontal=0;startSize=0;swimlaneHead=0;swimlaneBody=0;strokeColor=inherit;top=0;left=0;bottom=0;right=0;collapsible=0;dropTarget=0;fillColor=none;points=[[0,0.5],[1,0.5]];portConstraint=eastwest;" parent="izOlxlyPjDSlhkxPn7Ld-9" vertex="1">
          <mxGeometry y="38" width="218.91891891891888" height="38" as="geometry" />
        </mxCell>
        <mxCell id="izOlxlyPjDSlhkxPn7Ld-16" value="Row 1" style="shape=partialRectangle;html=1;whiteSpace=wrap;connectable=0;strokeColor=inherit;overflow=hidden;fillColor=none;top=0;left=0;bottom=0;right=0;pointerEvents=1;fontSize=10;" parent="izOlxlyPjDSlhkxPn7Ld-15" vertex="1">
          <mxGeometry width="55" height="38" as="geometry">
            <mxRectangle width="55" height="38" as="alternateBounds" />
          </mxGeometry>
        </mxCell>
        <mxCell id="izOlxlyPjDSlhkxPn7Ld-17" value="Row 1" style="shape=partialRectangle;html=1;whiteSpace=wrap;connectable=0;strokeColor=inherit;overflow=hidden;fillColor=none;top=0;left=0;bottom=0;right=0;pointerEvents=1;fontSize=10;" parent="izOlxlyPjDSlhkxPn7Ld-15" vertex="1">
          <mxGeometry x="55" width="56" height="38" as="geometry">
            <mxRectangle width="56" height="38" as="alternateBounds" />
          </mxGeometry>
        </mxCell>
        <mxCell id="izOlxlyPjDSlhkxPn7Ld-18" value="Row 1" style="shape=partialRectangle;html=1;whiteSpace=wrap;connectable=0;strokeColor=inherit;overflow=hidden;fillColor=none;top=0;left=0;bottom=0;right=0;pointerEvents=1;fontSize=10;" parent="izOlxlyPjDSlhkxPn7Ld-15" vertex="1">
          <mxGeometry x="111" width="53" height="38" as="geometry">
            <mxRectangle width="53" height="38" as="alternateBounds" />
          </mxGeometry>
        </mxCell>
        <mxCell id="izOlxlyPjDSlhkxPn7Ld-19" value="Row 1" style="shape=partialRectangle;html=1;whiteSpace=wrap;connectable=0;strokeColor=inherit;overflow=hidden;fillColor=none;top=0;left=0;bottom=0;right=0;pointerEvents=1;fontSize=10;" parent="izOlxlyPjDSlhkxPn7Ld-15" vertex="1">
          <mxGeometry x="164" width="55" height="38" as="geometry">
            <mxRectangle width="55" height="38" as="alternateBounds" />
          </mxGeometry>
        </mxCell>
        <mxCell id="yH9OTyDOYiAgJ-w5xGOi-0" value="&lt;font style=&quot;font-size: 17px;&quot;&gt;Button 1&lt;/font&gt;" style="whiteSpace=wrap;html=1;rounded=0;shadow=0;labelBackgroundColor=none;strokeWidth=1;fontFamily=Verdana;fontSize=17;align=center;comic=1;verticalAlign=middle;" parent="izOlxlyPjDSlhkxPn7Ld-8" vertex="1">
          <mxGeometry x="755" y="221.0042857142857" width="89.26229508196721" height="19.285714285714285" as="geometry" />
        </mxCell>
        <mxCell id="yH9OTyDOYiAgJ-w5xGOi-1" value="&lt;font style=&quot;font-size: 17px;&quot;&gt;Button 2&lt;/font&gt;" style="whiteSpace=wrap;html=1;rounded=0;shadow=0;labelBackgroundColor=none;strokeWidth=1;fontFamily=Verdana;fontSize=17;align=center;comic=1;verticalAlign=middle;" parent="izOlxlyPjDSlhkxPn7Ld-8" vertex="1">
          <mxGeometry x="855.0819672131147" y="221.0042857142857" width="89.26229508196721" height="19.285714285714285" as="geometry" />
        </mxCell>
      </root>
    </mxGraphModel>
  </diagram>
  <diagram name="desktop-expert-list" id="4Y4T_npYmeDbd8_kjEeU">
    <mxGraphModel dx="1386" dy="910" grid="1" gridSize="10" guides="1" tooltips="1" connect="1" arrows="1" fold="1" page="1" pageScale="1" pageWidth="1600" pageHeight="900" background="none" math="0" shadow="0">
      <root>
        <mxCell id="Cx_b--HRgNTYqLrXlxKZ-0" />
        <mxCell id="Cx_b--HRgNTYqLrXlxKZ-1" style="locked=1;" parent="Cx_b--HRgNTYqLrXlxKZ-0" />
        <mxCell id="Cx_b--HRgNTYqLrXlxKZ-2" value="Header" style="locked=1;" parent="Cx_b--HRgNTYqLrXlxKZ-0" />
        <mxCell id="Cx_b--HRgNTYqLrXlxKZ-3" value="LOGO" style="whiteSpace=wrap;html=1;rounded=0;shadow=0;labelBackgroundColor=none;strokeWidth=1;fontFamily=Verdana;fontSize=28;align=center;comic=1;" parent="Cx_b--HRgNTYqLrXlxKZ-2" vertex="1">
          <mxGeometry x="30" y="20" width="190" height="50" as="geometry" />
        </mxCell>
        <mxCell id="Cx_b--HRgNTYqLrXlxKZ-4" value="Menu 1" style="text;html=1;points=[];align=left;verticalAlign=top;spacingTop=-4;fontSize=14;fontFamily=Verdana" parent="Cx_b--HRgNTYqLrXlxKZ-2" vertex="1">
          <mxGeometry x="1290" y="35" width="60" height="20" as="geometry" />
        </mxCell>
        <mxCell id="Cx_b--HRgNTYqLrXlxKZ-5" value="Menu 2" style="text;html=1;points=[];align=left;verticalAlign=top;spacingTop=-4;fontSize=14;fontFamily=Verdana" parent="Cx_b--HRgNTYqLrXlxKZ-2" vertex="1">
          <mxGeometry x="1370" y="35" width="60" height="20" as="geometry" />
        </mxCell>
        <mxCell id="Cx_b--HRgNTYqLrXlxKZ-6" value="Menu 3" style="text;html=1;points=[];align=left;verticalAlign=top;spacingTop=-4;fontSize=14;fontFamily=Verdana" parent="Cx_b--HRgNTYqLrXlxKZ-2" vertex="1">
          <mxGeometry x="1440" y="35" width="60" height="20" as="geometry" />
        </mxCell>
        <mxCell id="Cx_b--HRgNTYqLrXlxKZ-7" value="Menu 4" style="text;html=1;points=[];align=left;verticalAlign=top;spacingTop=-4;fontSize=14;fontFamily=Verdana" parent="Cx_b--HRgNTYqLrXlxKZ-2" vertex="1">
          <mxGeometry x="1510" y="35" width="60" height="20" as="geometry" />
        </mxCell>
        <mxCell id="Cx_b--HRgNTYqLrXlxKZ-8" value="" style="line;strokeWidth=1;html=1;rounded=0;shadow=0;labelBackgroundColor=none;fillColor=none;fontFamily=Verdana;fontSize=14;fontColor=#000000;align=center;comic=1;" parent="Cx_b--HRgNTYqLrXlxKZ-2" vertex="1">
          <mxGeometry x="30" y="63" width="1540" height="50" as="geometry" />
        </mxCell>
        <mxCell id="Cx_b--HRgNTYqLrXlxKZ-9" value="" style="whiteSpace=wrap;html=1;rounded=0;shadow=0;labelBackgroundColor=none;strokeWidth=1;fillColor=none;fontFamily=Verdana;fontSize=12;align=center;comic=1;" parent="Cx_b--HRgNTYqLrXlxKZ-2" vertex="1">
          <mxGeometry x="280" y="150" width="1040" height="50" as="geometry" />
        </mxCell>
        <mxCell id="Cx_b--HRgNTYqLrXlxKZ-10" value="HEADER" style="text;html=1;points=[];align=left;verticalAlign=top;spacingTop=-4;fontSize=14;fontFamily=Verdana" parent="Cx_b--HRgNTYqLrXlxKZ-2" vertex="1">
          <mxGeometry x="770" y="165" width="60" height="20" as="geometry" />
        </mxCell>
        <mxCell id="Cx_b--HRgNTYqLrXlxKZ-11" value="" style="verticalLabelPosition=bottom;shadow=0;dashed=0;align=center;html=1;verticalAlign=top;strokeWidth=1;shape=mxgraph.mockup.graphics.simpleIcon;strokeColor=#999999;" parent="Cx_b--HRgNTYqLrXlxKZ-2" vertex="1">
          <mxGeometry x="665" y="210" width="270" height="50" as="geometry" />
        </mxCell>
        <mxCell id="Cx_b--HRgNTYqLrXlxKZ-12" value="Content" style="locked=1;" parent="Cx_b--HRgNTYqLrXlxKZ-0" />
        <mxCell id="x5Y_TW9DAle7iMPcegt2-0" value="&lt;font style=&quot;font-size: 20px;&quot;&gt;Button 1&lt;/font&gt;" style="whiteSpace=wrap;html=1;rounded=0;shadow=0;labelBackgroundColor=none;strokeWidth=1;fontFamily=Verdana;fontSize=20;align=center;comic=1;verticalAlign=middle;" parent="Cx_b--HRgNTYqLrXlxKZ-12" vertex="1">
          <mxGeometry x="625" y="306" width="165" height="30" as="geometry" />
        </mxCell>
        <mxCell id="x5Y_TW9DAle7iMPcegt2-1" value="&lt;font style=&quot;font-size: 20px;&quot;&gt;Button 2&lt;/font&gt;" style="whiteSpace=wrap;html=1;rounded=0;shadow=0;labelBackgroundColor=none;strokeWidth=1;fontFamily=Verdana;fontSize=20;align=center;comic=1;verticalAlign=middle;" parent="Cx_b--HRgNTYqLrXlxKZ-12" vertex="1">
          <mxGeometry x="810" y="306" width="165" height="30" as="geometry" />
        </mxCell>
        <mxCell id="x5Y_TW9DAle7iMPcegt2-2" value="" style="shape=table;startSize=0;container=1;collapsible=0;childLayout=tableLayout;comic=1;" parent="Cx_b--HRgNTYqLrXlxKZ-12" vertex="1">
          <mxGeometry x="420" y="370" width="760" height="80" as="geometry" />
        </mxCell>
        <mxCell id="x5Y_TW9DAle7iMPcegt2-3" value="" style="shape=tableRow;horizontal=0;startSize=0;swimlaneHead=0;swimlaneBody=0;strokeColor=inherit;top=0;left=0;bottom=0;right=0;collapsible=0;dropTarget=0;fillColor=none;points=[[0,0.5],[1,0.5]];portConstraint=eastwest;comic=1;" parent="x5Y_TW9DAle7iMPcegt2-2" vertex="1">
          <mxGeometry width="760" height="40" as="geometry" />
        </mxCell>
        <mxCell id="x5Y_TW9DAle7iMPcegt2-4" value="Column 1" style="shape=partialRectangle;html=1;whiteSpace=wrap;connectable=0;strokeColor=inherit;overflow=hidden;fillColor=none;top=0;left=0;bottom=0;right=0;pointerEvents=1;comic=1;" parent="x5Y_TW9DAle7iMPcegt2-3" vertex="1">
          <mxGeometry width="190" height="40" as="geometry">
            <mxRectangle width="190" height="40" as="alternateBounds" />
          </mxGeometry>
        </mxCell>
        <mxCell id="x5Y_TW9DAle7iMPcegt2-5" value="Column 2" style="shape=partialRectangle;html=1;whiteSpace=wrap;connectable=0;strokeColor=inherit;overflow=hidden;fillColor=none;top=0;left=0;bottom=0;right=0;pointerEvents=1;comic=1;" parent="x5Y_TW9DAle7iMPcegt2-3" vertex="1">
          <mxGeometry x="190" width="190" height="40" as="geometry">
            <mxRectangle width="190" height="40" as="alternateBounds" />
          </mxGeometry>
        </mxCell>
        <mxCell id="x5Y_TW9DAle7iMPcegt2-6" value="Column 3" style="shape=partialRectangle;html=1;whiteSpace=wrap;connectable=0;strokeColor=inherit;overflow=hidden;fillColor=none;top=0;left=0;bottom=0;right=0;pointerEvents=1;comic=1;" parent="x5Y_TW9DAle7iMPcegt2-3" vertex="1">
          <mxGeometry x="380" width="190" height="40" as="geometry">
            <mxRectangle width="190" height="40" as="alternateBounds" />
          </mxGeometry>
        </mxCell>
        <mxCell id="x5Y_TW9DAle7iMPcegt2-7" value="Column 4" style="shape=partialRectangle;html=1;whiteSpace=wrap;connectable=0;strokeColor=inherit;overflow=hidden;fillColor=none;top=0;left=0;bottom=0;right=0;pointerEvents=1;comic=1;" parent="x5Y_TW9DAle7iMPcegt2-3" vertex="1">
          <mxGeometry x="570" width="190" height="40" as="geometry">
            <mxRectangle width="190" height="40" as="alternateBounds" />
          </mxGeometry>
        </mxCell>
        <mxCell id="x5Y_TW9DAle7iMPcegt2-8" value="" style="shape=tableRow;horizontal=0;startSize=0;swimlaneHead=0;swimlaneBody=0;strokeColor=inherit;top=0;left=0;bottom=0;right=0;collapsible=0;dropTarget=0;fillColor=none;points=[[0,0.5],[1,0.5]];portConstraint=eastwest;comic=1;" parent="x5Y_TW9DAle7iMPcegt2-2" vertex="1">
          <mxGeometry y="40" width="760" height="40" as="geometry" />
        </mxCell>
        <mxCell id="x5Y_TW9DAle7iMPcegt2-9" value="Row 1" style="shape=partialRectangle;html=1;whiteSpace=wrap;connectable=0;strokeColor=inherit;overflow=hidden;fillColor=none;top=0;left=0;bottom=0;right=0;pointerEvents=1;comic=1;" parent="x5Y_TW9DAle7iMPcegt2-8" vertex="1">
          <mxGeometry width="190" height="40" as="geometry">
            <mxRectangle width="190" height="40" as="alternateBounds" />
          </mxGeometry>
        </mxCell>
        <mxCell id="x5Y_TW9DAle7iMPcegt2-10" value="Row 1" style="shape=partialRectangle;html=1;whiteSpace=wrap;connectable=0;strokeColor=inherit;overflow=hidden;fillColor=none;top=0;left=0;bottom=0;right=0;pointerEvents=1;comic=1;" parent="x5Y_TW9DAle7iMPcegt2-8" vertex="1">
          <mxGeometry x="190" width="190" height="40" as="geometry">
            <mxRectangle width="190" height="40" as="alternateBounds" />
          </mxGeometry>
        </mxCell>
        <mxCell id="x5Y_TW9DAle7iMPcegt2-11" value="Row 1" style="shape=partialRectangle;html=1;whiteSpace=wrap;connectable=0;strokeColor=inherit;overflow=hidden;fillColor=none;top=0;left=0;bottom=0;right=0;pointerEvents=1;comic=1;" parent="x5Y_TW9DAle7iMPcegt2-8" vertex="1">
          <mxGeometry x="380" width="190" height="40" as="geometry">
            <mxRectangle width="190" height="40" as="alternateBounds" />
          </mxGeometry>
        </mxCell>
        <mxCell id="x5Y_TW9DAle7iMPcegt2-12" value="Row 1" style="shape=partialRectangle;html=1;whiteSpace=wrap;connectable=0;strokeColor=inherit;overflow=hidden;fillColor=none;top=0;left=0;bottom=0;right=0;pointerEvents=1;comic=1;" parent="x5Y_TW9DAle7iMPcegt2-8" vertex="1">
          <mxGeometry x="570" width="190" height="40" as="geometry">
            <mxRectangle width="190" height="40" as="alternateBounds" />
          </mxGeometry>
        </mxCell>
      </root>
    </mxGraphModel>
  </diagram>
  <diagram name="mobile-adicionar-expert" id="L54Pwfzmn7lFT-h8YPUQ">
    <mxGraphModel dx="706" dy="862" grid="1" gridSize="10" guides="1" tooltips="1" connect="1" arrows="1" fold="1" page="1" pageScale="1" pageWidth="340" pageHeight="480" background="none" math="0" shadow="0">
      <root>
        <mxCell id="DnzXJqtfUYeaVmlSsNCb-0" />
        <mxCell id="DnzXJqtfUYeaVmlSsNCb-1" style="locked=1;" parent="DnzXJqtfUYeaVmlSsNCb-0" />
        <mxCell id="DnzXJqtfUYeaVmlSsNCb-2" value="Header" style="" parent="DnzXJqtfUYeaVmlSsNCb-0" />
        <mxCell id="DnzXJqtfUYeaVmlSsNCb-3" value="LOGO" style="whiteSpace=wrap;html=1;rounded=0;shadow=0;labelBackgroundColor=none;strokeWidth=1;fontFamily=Verdana;fontSize=28;align=center;comic=1;" parent="DnzXJqtfUYeaVmlSsNCb-2" vertex="1">
          <mxGeometry x="690" y="10" width="190" height="50" as="geometry" />
        </mxCell>
        <mxCell id="DnzXJqtfUYeaVmlSsNCb-4" value="" style="line;strokeWidth=1;html=1;rounded=0;shadow=0;labelBackgroundColor=none;fillColor=none;fontFamily=Verdana;fontSize=14;fontColor=#000000;align=center;comic=1;" parent="DnzXJqtfUYeaVmlSsNCb-2" vertex="1">
          <mxGeometry x="680" y="63" width="340" height="50" as="geometry" />
        </mxCell>
        <mxCell id="DnzXJqtfUYeaVmlSsNCb-5" value="&lt;span style=&quot;font-size: 14px; text-align: left; text-wrap: nowrap;&quot;&gt;HEADER&lt;/span&gt;" style="whiteSpace=wrap;html=1;rounded=0;shadow=0;labelBackgroundColor=none;strokeWidth=1;fillColor=none;fontFamily=Verdana;fontSize=12;align=center;comic=1;" parent="DnzXJqtfUYeaVmlSsNCb-2" vertex="1">
          <mxGeometry x="720" y="110" width="260" height="50" as="geometry" />
        </mxCell>
        <mxCell id="DnzXJqtfUYeaVmlSsNCb-6" value="" style="verticalLabelPosition=bottom;shadow=0;dashed=0;align=center;html=1;verticalAlign=top;strokeWidth=1;shape=mxgraph.mockup.graphics.simpleIcon;strokeColor=#999999;" parent="DnzXJqtfUYeaVmlSsNCb-2" vertex="1">
          <mxGeometry x="752" y="170" width="197" height="20" as="geometry" />
        </mxCell>
        <mxCell id="DnzXJqtfUYeaVmlSsNCb-7" value="" style="editableCssRules=path;shape=image;aspect=fixed;image=data:image/svg+xml,PHN2ZyB4bWxucz0iaHR0cDovL3d3dy53My5vcmcvMjAwMC9zdmciIHZpZXdCb3g9IjAgMCA0NDggNTEyIj48IS0tISBGb250IEF3ZXNvbWUgRnJlZSA2LjEuMSBieSBAZm9udGF3ZXNvbWUgLSBodHRwczovL2ZvbnRhd2Vzb21lLmNvbSBMaWNlbnNlIC0gaHR0cHM6Ly9mb250YXdlc29tZS5jb20vbGljZW5zZS9mcmVlIChJY29uczogQ0MgQlkgNC4wLCBGb250czogU0lMIE9GTCAxLjEsIENvZGU6IE1JVCBMaWNlbnNlKSBDb3B5cmlnaHQgMjAyMiBGb250aWNvbnMsIEluYy4gLS0+PHN0eWxlIHR5cGU9InRleHQvY3NzIj5wYXRoIHsgZmlsbDogcmdiKDI2LCAyNiwgMjYpOyB9IDwvc3R5bGU+PHBhdGggZD0iTTAgOTZDMCA3OC4zMyAxNC4zMyA2NCAzMiA2NEg0MTZDNDMzLjcgNjQgNDQ4IDc4LjMzIDQ0OCA5NkM0NDggMTEzLjcgNDMzLjcgMTI4IDQxNiAxMjhIMzJDMTQuMzMgMTI4IDAgMTEzLjcgMCA5NnpNMCAyNTZDMCAyMzguMyAxNC4zMyAyMjQgMzIgMjI0SDQxNkM0MzMuNyAyMjQgNDQ4IDIzOC4zIDQ0OCAyNTZDNDQ4IDI3My43IDQzMy43IDI4OCA0MTYgMjg4SDMyQzE0LjMzIDI4OCAwIDI3My43IDAgMjU2ek00MTYgNDQ4SDMyQzE0LjMzIDQ0OCAwIDQzMy43IDAgNDE2QzAgMzk4LjMgMTQuMzMgMzg0IDMyIDM4NEg0MTZDNDMzLjcgMzg0IDQ0OCAzOTguMyA0NDggNDE2QzQ0OCA0MzMuNyA0MzMuNyA0NDggNDE2IDQ0OHoiLz48L3N2Zz4=;connectable=0;movable=1;verticalLabelPosition=bottom;resizable=1;rotatable=0;cloneable=0;deletable=1;recursiveResize=0;imageBackground=none;verticalAlign=top;shadow=0;dashed=0;comic=1;strokeColor=default;strokeWidth=1;align=left;spacingLeft=3;fontFamily=Helvetica;fontSize=17;fontColor=#666666;fillColor=default;" parent="DnzXJqtfUYeaVmlSsNCb-2" vertex="1">
          <mxGeometry x="950" y="10" width="53" height="53" as="geometry" />
        </mxCell>
        <mxCell id="DnzXJqtfUYeaVmlSsNCb-8" value="Content" style="locked=1;" parent="DnzXJqtfUYeaVmlSsNCb-0" />
        <mxCell id="o_33QXqcwG739E_GPKTJ-13" value="" style="group" parent="DnzXJqtfUYeaVmlSsNCb-8" vertex="1" connectable="0">
          <mxGeometry x="688" y="240" width="325" height="150" as="geometry" />
        </mxCell>
        <mxCell id="o_33QXqcwG739E_GPKTJ-0" value="&lt;font style=&quot;font-size: 20px;&quot;&gt;Button 1&lt;/font&gt;" style="whiteSpace=wrap;html=1;rounded=0;shadow=0;labelBackgroundColor=none;strokeWidth=1;fontFamily=Verdana;fontSize=20;align=center;comic=1;verticalAlign=middle;" parent="o_33QXqcwG739E_GPKTJ-13" vertex="1">
          <mxGeometry y="127.5" width="101.17924528301886" height="22.5" as="geometry" />
        </mxCell>
        <mxCell id="o_33QXqcwG739E_GPKTJ-1" value="&lt;font style=&quot;font-size: 20px;&quot;&gt;Button 2&lt;/font&gt;" style="whiteSpace=wrap;html=1;rounded=0;shadow=0;labelBackgroundColor=none;strokeWidth=1;fontFamily=Verdana;fontSize=20;align=center;comic=1;verticalAlign=middle;" parent="o_33QXqcwG739E_GPKTJ-13" vertex="1">
          <mxGeometry x="113.44339622641509" y="127.5" width="101.17924528301886" height="22.5" as="geometry" />
        </mxCell>
        <mxCell id="o_33QXqcwG739E_GPKTJ-2" value="Option 1" style="strokeWidth=1;shadow=0;dashed=0;align=center;html=1;shape=mxgraph.mockup.text.textBox;fontColor=#666666;align=left;fontSize=17;spacingLeft=4;spacingTop=-3;whiteSpace=wrap;strokeColor=#666666;mainText=;comic=1;fillColor=none;enumerate=0;" parent="o_33QXqcwG739E_GPKTJ-13" vertex="1">
          <mxGeometry width="325" height="22.5" as="geometry" />
        </mxCell>
        <mxCell id="o_33QXqcwG739E_GPKTJ-3" value="" style="verticalLabelPosition=bottom;shadow=0;dashed=0;align=center;html=1;verticalAlign=top;strokeWidth=1;shape=mxgraph.mockup.graphics.simpleIcon;strokeColor=#999999;" parent="o_33QXqcwG739E_GPKTJ-13" vertex="1">
          <mxGeometry x="305.0707547169811" y="3.75" width="15.330188679245282" height="15" as="geometry" />
        </mxCell>
        <mxCell id="o_33QXqcwG739E_GPKTJ-4" value="" style="swimlane;strokeColor=#999999;swimlaneFillColor=#FFFFFF;fillColor=#ffffff;fontColor=#666666;fontStyle=0;childLayout=stackLayout;horizontal=1;startSize=0;horizontalStack=0;resizeParent=1;resizeParentMax=0;resizeLast=0;collapsible=0;marginBottom=0;whiteSpace=wrap;html=1;shadow=0;dashed=0;comic=1;strokeWidth=1;align=left;verticalAlign=middle;spacingLeft=3;fontFamily=Helvetica;fontSize=17;" parent="o_33QXqcwG739E_GPKTJ-13" vertex="1">
          <mxGeometry y="30" width="91.98113207547169" height="90" as="geometry" />
        </mxCell>
        <mxCell id="o_33QXqcwG739E_GPKTJ-5" value="Option 1" style="text;strokeColor=none;align=left;verticalAlign=middle;spacingLeft=27;spacingRight=10;overflow=hidden;points=[[0,0.5],[1,0.5]];portConstraint=eastwest;rotatable=0;whiteSpace=wrap;html=1;fillColor=none;fontColor=#666666;fontSize=17;fontFamily=Helvetica;" parent="o_33QXqcwG739E_GPKTJ-4" vertex="1">
          <mxGeometry width="91.98113207547169" height="22.5" as="geometry" />
        </mxCell>
        <mxCell id="o_33QXqcwG739E_GPKTJ-6" value="" style="resizable=0;fillColor=#EEEEEE;strokeColor=#999999;gradientColor=#cccccc;html=1;shadow=0;dashed=0;comic=1;strokeWidth=1;align=left;verticalAlign=middle;spacingLeft=3;fontFamily=Helvetica;fontSize=17;fontColor=#666666;" parent="o_33QXqcwG739E_GPKTJ-5" vertex="1">
          <mxGeometry y="0.5" width="15" height="15" relative="1" as="geometry">
            <mxPoint x="8" y="-7.5" as="offset" />
          </mxGeometry>
        </mxCell>
        <mxCell id="o_33QXqcwG739E_GPKTJ-7" value="Option 2" style="text;strokeColor=none;align=left;verticalAlign=middle;spacingLeft=27;spacingRight=10;overflow=hidden;points=[[0,0.5],[1,0.5]];portConstraint=eastwest;rotatable=0;whiteSpace=wrap;html=1;rSize=5;fillColor=none;fontColor=#666666;fontSize=17;fontFamily=Helvetica;" parent="o_33QXqcwG739E_GPKTJ-4" vertex="1">
          <mxGeometry y="22.5" width="91.98113207547169" height="22.5" as="geometry" />
        </mxCell>
        <mxCell id="o_33QXqcwG739E_GPKTJ-8" value="" style="resizable=0;fillColor=#EEEEEE;strokeColor=#999999;gradientColor=#cccccc;html=1;shadow=0;dashed=0;comic=1;strokeWidth=1;align=left;verticalAlign=middle;spacingLeft=3;fontFamily=Helvetica;fontSize=17;fontColor=#666666;" parent="o_33QXqcwG739E_GPKTJ-7" vertex="1">
          <mxGeometry y="0.5" width="15" height="15" relative="1" as="geometry">
            <mxPoint x="8" y="-7.5" as="offset" />
          </mxGeometry>
        </mxCell>
        <mxCell id="o_33QXqcwG739E_GPKTJ-9" value="Option 3" style="text;strokeColor=none;align=left;verticalAlign=middle;spacingLeft=27;spacingRight=10;overflow=hidden;points=[[0,0.5],[1,0.5]];portConstraint=eastwest;rotatable=0;whiteSpace=wrap;html=1;rSize=5;fillColor=none;fontColor=#666666;fontSize=17;fontFamily=Helvetica;" parent="o_33QXqcwG739E_GPKTJ-4" vertex="1">
          <mxGeometry y="45" width="91.98113207547169" height="22.5" as="geometry" />
        </mxCell>
        <mxCell id="o_33QXqcwG739E_GPKTJ-10" value="" style="shape=mxgraph.mockup.forms.checkbox;resizable=0;fillColor=#AAAAAA;gradientColor=#666666;strokeColor=#444444;html=1;shadow=0;dashed=0;comic=1;strokeWidth=1;align=left;verticalAlign=middle;spacingLeft=3;fontFamily=Helvetica;fontSize=17;fontColor=#666666;" parent="o_33QXqcwG739E_GPKTJ-9" vertex="1">
          <mxGeometry y="0.5" width="15" height="15" relative="1" as="geometry">
            <mxPoint x="8" y="-7.5" as="offset" />
          </mxGeometry>
        </mxCell>
        <mxCell id="o_33QXqcwG739E_GPKTJ-11" value="Option 4" style="text;strokeColor=none;align=left;verticalAlign=middle;spacingLeft=27;spacingRight=10;overflow=hidden;points=[[0,0.5],[1,0.5]];portConstraint=eastwest;rotatable=0;whiteSpace=wrap;html=1;fillColor=none;fontColor=#666666;fontSize=17;fontFamily=Helvetica;" parent="o_33QXqcwG739E_GPKTJ-4" vertex="1">
          <mxGeometry y="67.5" width="91.98113207547169" height="22.5" as="geometry" />
        </mxCell>
        <mxCell id="o_33QXqcwG739E_GPKTJ-12" value="" style="resizable=0;fillColor=#EEEEEE;strokeColor=#999999;gradientColor=#cccccc;html=1;shadow=0;dashed=0;comic=1;strokeWidth=1;align=left;verticalAlign=middle;spacingLeft=3;fontFamily=Helvetica;fontSize=17;fontColor=#666666;" parent="o_33QXqcwG739E_GPKTJ-11" vertex="1">
          <mxGeometry y="0.5" width="15" height="15" relative="1" as="geometry">
            <mxPoint x="8" y="-7.5" as="offset" />
          </mxGeometry>
        </mxCell>
      </root>
    </mxGraphModel>
  </diagram>
  <diagram name="desktop-adicionar-expert" id="e9K0uWX1rs1xLSMpqUT0">
    <mxGraphModel dx="1386" dy="958" grid="1" gridSize="10" guides="1" tooltips="1" connect="1" arrows="1" fold="1" page="1" pageScale="1" pageWidth="1600" pageHeight="900" background="none" math="0" shadow="0">
      <root>
        <mxCell id="jjo0VNqTlgXzUu83DQo8-0" />
        <mxCell id="jjo0VNqTlgXzUu83DQo8-1" style="locked=1;" parent="jjo0VNqTlgXzUu83DQo8-0" />
        <mxCell id="jjo0VNqTlgXzUu83DQo8-2" value="Header" style="locked=1;" parent="jjo0VNqTlgXzUu83DQo8-0" />
        <mxCell id="jjo0VNqTlgXzUu83DQo8-3" value="LOGO" style="whiteSpace=wrap;html=1;rounded=0;shadow=0;labelBackgroundColor=none;strokeWidth=1;fontFamily=Verdana;fontSize=28;align=center;comic=1;" vertex="1" parent="jjo0VNqTlgXzUu83DQo8-2">
          <mxGeometry x="30" y="20" width="190" height="50" as="geometry" />
        </mxCell>
        <mxCell id="jjo0VNqTlgXzUu83DQo8-4" value="Menu 1" style="text;html=1;points=[];align=left;verticalAlign=top;spacingTop=-4;fontSize=14;fontFamily=Verdana" vertex="1" parent="jjo0VNqTlgXzUu83DQo8-2">
          <mxGeometry x="1290" y="35" width="60" height="20" as="geometry" />
        </mxCell>
        <mxCell id="jjo0VNqTlgXzUu83DQo8-5" value="Menu 2" style="text;html=1;points=[];align=left;verticalAlign=top;spacingTop=-4;fontSize=14;fontFamily=Verdana" vertex="1" parent="jjo0VNqTlgXzUu83DQo8-2">
          <mxGeometry x="1370" y="35" width="60" height="20" as="geometry" />
        </mxCell>
        <mxCell id="jjo0VNqTlgXzUu83DQo8-6" value="Menu 3" style="text;html=1;points=[];align=left;verticalAlign=top;spacingTop=-4;fontSize=14;fontFamily=Verdana" vertex="1" parent="jjo0VNqTlgXzUu83DQo8-2">
          <mxGeometry x="1440" y="35" width="60" height="20" as="geometry" />
        </mxCell>
        <mxCell id="jjo0VNqTlgXzUu83DQo8-7" value="Menu 4" style="text;html=1;points=[];align=left;verticalAlign=top;spacingTop=-4;fontSize=14;fontFamily=Verdana" vertex="1" parent="jjo0VNqTlgXzUu83DQo8-2">
          <mxGeometry x="1510" y="35" width="60" height="20" as="geometry" />
        </mxCell>
        <mxCell id="jjo0VNqTlgXzUu83DQo8-8" value="" style="line;strokeWidth=1;html=1;rounded=0;shadow=0;labelBackgroundColor=none;fillColor=none;fontFamily=Verdana;fontSize=14;fontColor=#000000;align=center;comic=1;" vertex="1" parent="jjo0VNqTlgXzUu83DQo8-2">
          <mxGeometry x="30" y="63" width="1540" height="50" as="geometry" />
        </mxCell>
        <mxCell id="jjo0VNqTlgXzUu83DQo8-9" value="" style="whiteSpace=wrap;html=1;rounded=0;shadow=0;labelBackgroundColor=none;strokeWidth=1;fillColor=none;fontFamily=Verdana;fontSize=12;align=center;comic=1;" vertex="1" parent="jjo0VNqTlgXzUu83DQo8-2">
          <mxGeometry x="280" y="150" width="1040" height="50" as="geometry" />
        </mxCell>
        <mxCell id="jjo0VNqTlgXzUu83DQo8-10" value="HEADER" style="text;html=1;points=[];align=left;verticalAlign=top;spacingTop=-4;fontSize=14;fontFamily=Verdana" vertex="1" parent="jjo0VNqTlgXzUu83DQo8-2">
          <mxGeometry x="770" y="165" width="60" height="20" as="geometry" />
        </mxCell>
        <mxCell id="jjo0VNqTlgXzUu83DQo8-11" value="" style="verticalLabelPosition=bottom;shadow=0;dashed=0;align=center;html=1;verticalAlign=top;strokeWidth=1;shape=mxgraph.mockup.graphics.simpleIcon;strokeColor=#999999;" vertex="1" parent="jjo0VNqTlgXzUu83DQo8-2">
          <mxGeometry x="665" y="210" width="270" height="50" as="geometry" />
        </mxCell>
        <mxCell id="jjo0VNqTlgXzUu83DQo8-12" value="Content" style="locked=1;" parent="jjo0VNqTlgXzUu83DQo8-0" />
        <mxCell id="dX8ZDCf14XXXWfxEG6Ii-0" value="&lt;font style=&quot;font-size: 20px;&quot;&gt;Button 1&lt;/font&gt;" style="whiteSpace=wrap;html=1;rounded=0;shadow=0;labelBackgroundColor=none;strokeWidth=1;fontFamily=Verdana;fontSize=20;align=center;comic=1;verticalAlign=middle;" vertex="1" parent="jjo0VNqTlgXzUu83DQo8-12">
          <mxGeometry x="535" y="460" width="165" height="30" as="geometry" />
        </mxCell>
        <mxCell id="dX8ZDCf14XXXWfxEG6Ii-1" value="&lt;font style=&quot;font-size: 20px;&quot;&gt;Button 2&lt;/font&gt;" style="whiteSpace=wrap;html=1;rounded=0;shadow=0;labelBackgroundColor=none;strokeWidth=1;fontFamily=Verdana;fontSize=20;align=center;comic=1;verticalAlign=middle;" vertex="1" parent="jjo0VNqTlgXzUu83DQo8-12">
          <mxGeometry x="720" y="460" width="165" height="30" as="geometry" />
        </mxCell>
        <mxCell id="dX8ZDCf14XXXWfxEG6Ii-2" value="Option 1" style="strokeWidth=1;shadow=0;dashed=0;align=center;html=1;shape=mxgraph.mockup.text.textBox;fontColor=#666666;align=left;fontSize=17;spacingLeft=4;spacingTop=-3;whiteSpace=wrap;strokeColor=#666666;mainText=;comic=1;fillColor=none;enumerate=0;" vertex="1" parent="jjo0VNqTlgXzUu83DQo8-12">
          <mxGeometry x="535" y="290" width="530" height="30" as="geometry" />
        </mxCell>
        <mxCell id="dX8ZDCf14XXXWfxEG6Ii-3" value="" style="verticalLabelPosition=bottom;shadow=0;dashed=0;align=center;html=1;verticalAlign=top;strokeWidth=1;shape=mxgraph.mockup.graphics.simpleIcon;strokeColor=#999999;" vertex="1" parent="jjo0VNqTlgXzUu83DQo8-12">
          <mxGeometry x="1032.5" y="295" width="25" height="20" as="geometry" />
        </mxCell>
        <mxCell id="dX8ZDCf14XXXWfxEG6Ii-4" value="" style="swimlane;strokeColor=#999999;swimlaneFillColor=#FFFFFF;fillColor=#ffffff;fontColor=#666666;fontStyle=0;childLayout=stackLayout;horizontal=1;startSize=0;horizontalStack=0;resizeParent=1;resizeParentMax=0;resizeLast=0;collapsible=0;marginBottom=0;whiteSpace=wrap;html=1;shadow=0;dashed=0;comic=1;strokeWidth=1;align=left;verticalAlign=middle;spacingLeft=3;fontFamily=Helvetica;fontSize=17;" vertex="1" parent="jjo0VNqTlgXzUu83DQo8-12">
          <mxGeometry x="535" y="330" width="150" height="120" as="geometry" />
        </mxCell>
        <mxCell id="dX8ZDCf14XXXWfxEG6Ii-5" value="Option 1" style="text;strokeColor=none;align=left;verticalAlign=middle;spacingLeft=27;spacingRight=10;overflow=hidden;points=[[0,0.5],[1,0.5]];portConstraint=eastwest;rotatable=0;whiteSpace=wrap;html=1;fillColor=none;fontColor=#666666;fontSize=17;fontFamily=Helvetica;" vertex="1" parent="dX8ZDCf14XXXWfxEG6Ii-4">
          <mxGeometry width="150" height="30" as="geometry" />
        </mxCell>
        <mxCell id="dX8ZDCf14XXXWfxEG6Ii-6" value="" style="resizable=0;fillColor=#EEEEEE;strokeColor=#999999;gradientColor=#cccccc;html=1;shadow=0;dashed=0;comic=1;strokeWidth=1;align=left;verticalAlign=middle;spacingLeft=3;fontFamily=Helvetica;fontSize=17;fontColor=#666666;" vertex="1" parent="dX8ZDCf14XXXWfxEG6Ii-5">
          <mxGeometry y="0.5" width="15" height="15" relative="1" as="geometry">
            <mxPoint x="8" y="-7.5" as="offset" />
          </mxGeometry>
        </mxCell>
        <mxCell id="dX8ZDCf14XXXWfxEG6Ii-7" value="Option 2" style="text;strokeColor=none;align=left;verticalAlign=middle;spacingLeft=27;spacingRight=10;overflow=hidden;points=[[0,0.5],[1,0.5]];portConstraint=eastwest;rotatable=0;whiteSpace=wrap;html=1;rSize=5;fillColor=none;fontColor=#666666;fontSize=17;fontFamily=Helvetica;" vertex="1" parent="dX8ZDCf14XXXWfxEG6Ii-4">
          <mxGeometry y="30" width="150" height="30" as="geometry" />
        </mxCell>
        <mxCell id="dX8ZDCf14XXXWfxEG6Ii-8" value="" style="resizable=0;fillColor=#EEEEEE;strokeColor=#999999;gradientColor=#cccccc;html=1;shadow=0;dashed=0;comic=1;strokeWidth=1;align=left;verticalAlign=middle;spacingLeft=3;fontFamily=Helvetica;fontSize=17;fontColor=#666666;" vertex="1" parent="dX8ZDCf14XXXWfxEG6Ii-7">
          <mxGeometry y="0.5" width="15" height="15" relative="1" as="geometry">
            <mxPoint x="8" y="-7.5" as="offset" />
          </mxGeometry>
        </mxCell>
        <mxCell id="dX8ZDCf14XXXWfxEG6Ii-9" value="Option 3" style="text;strokeColor=none;align=left;verticalAlign=middle;spacingLeft=27;spacingRight=10;overflow=hidden;points=[[0,0.5],[1,0.5]];portConstraint=eastwest;rotatable=0;whiteSpace=wrap;html=1;rSize=5;fillColor=none;fontColor=#666666;fontSize=17;fontFamily=Helvetica;" vertex="1" parent="dX8ZDCf14XXXWfxEG6Ii-4">
          <mxGeometry y="60" width="150" height="30" as="geometry" />
        </mxCell>
        <mxCell id="dX8ZDCf14XXXWfxEG6Ii-10" value="" style="shape=mxgraph.mockup.forms.checkbox;resizable=0;fillColor=#AAAAAA;gradientColor=#666666;strokeColor=#444444;html=1;shadow=0;dashed=0;comic=1;strokeWidth=1;align=left;verticalAlign=middle;spacingLeft=3;fontFamily=Helvetica;fontSize=17;fontColor=#666666;" vertex="1" parent="dX8ZDCf14XXXWfxEG6Ii-9">
          <mxGeometry y="0.5" width="15" height="15" relative="1" as="geometry">
            <mxPoint x="8" y="-7.5" as="offset" />
          </mxGeometry>
        </mxCell>
        <mxCell id="dX8ZDCf14XXXWfxEG6Ii-11" value="Option 4" style="text;strokeColor=none;align=left;verticalAlign=middle;spacingLeft=27;spacingRight=10;overflow=hidden;points=[[0,0.5],[1,0.5]];portConstraint=eastwest;rotatable=0;whiteSpace=wrap;html=1;fillColor=none;fontColor=#666666;fontSize=17;fontFamily=Helvetica;" vertex="1" parent="dX8ZDCf14XXXWfxEG6Ii-4">
          <mxGeometry y="90" width="150" height="30" as="geometry" />
        </mxCell>
        <mxCell id="dX8ZDCf14XXXWfxEG6Ii-12" value="" style="resizable=0;fillColor=#EEEEEE;strokeColor=#999999;gradientColor=#cccccc;html=1;shadow=0;dashed=0;comic=1;strokeWidth=1;align=left;verticalAlign=middle;spacingLeft=3;fontFamily=Helvetica;fontSize=17;fontColor=#666666;" vertex="1" parent="dX8ZDCf14XXXWfxEG6Ii-11">
          <mxGeometry y="0.5" width="15" height="15" relative="1" as="geometry">
            <mxPoint x="8" y="-7.5" as="offset" />
          </mxGeometry>
        </mxCell>
      </root>
    </mxGraphModel>
  </diagram>
  <diagram name="mobile-lista-expert-animal" id="bxsd6sTObNoa7MUR06WJ">
    <mxGraphModel dx="706" dy="862" grid="1" gridSize="10" guides="1" tooltips="1" connect="1" arrows="1" fold="1" page="1" pageScale="1" pageWidth="340" pageHeight="480" background="none" math="0" shadow="0">
      <root>
        <mxCell id="lM20h5C86pUY3JEqbK44-0" />
        <mxCell id="lM20h5C86pUY3JEqbK44-1" style="locked=1;" parent="lM20h5C86pUY3JEqbK44-0" />
        <mxCell id="lM20h5C86pUY3JEqbK44-2" value="Header" style="" parent="lM20h5C86pUY3JEqbK44-0" />
        <mxCell id="lM20h5C86pUY3JEqbK44-3" value="LOGO" style="whiteSpace=wrap;html=1;rounded=0;shadow=0;labelBackgroundColor=none;strokeWidth=1;fontFamily=Verdana;fontSize=28;align=center;comic=1;" parent="lM20h5C86pUY3JEqbK44-2" vertex="1">
          <mxGeometry x="690" y="10" width="190" height="50" as="geometry" />
        </mxCell>
        <mxCell id="lM20h5C86pUY3JEqbK44-4" value="" style="line;strokeWidth=1;html=1;rounded=0;shadow=0;labelBackgroundColor=none;fillColor=none;fontFamily=Verdana;fontSize=14;fontColor=#000000;align=center;comic=1;" parent="lM20h5C86pUY3JEqbK44-2" vertex="1">
          <mxGeometry x="680" y="63" width="340" height="50" as="geometry" />
        </mxCell>
        <mxCell id="lM20h5C86pUY3JEqbK44-5" value="&lt;span style=&quot;font-size: 14px; text-align: left; text-wrap: nowrap;&quot;&gt;HEADER&lt;/span&gt;" style="whiteSpace=wrap;html=1;rounded=0;shadow=0;labelBackgroundColor=none;strokeWidth=1;fillColor=none;fontFamily=Verdana;fontSize=12;align=center;comic=1;" parent="lM20h5C86pUY3JEqbK44-2" vertex="1">
          <mxGeometry x="720" y="110" width="260" height="50" as="geometry" />
        </mxCell>
        <mxCell id="lM20h5C86pUY3JEqbK44-6" value="" style="verticalLabelPosition=bottom;shadow=0;dashed=0;align=center;html=1;verticalAlign=top;strokeWidth=1;shape=mxgraph.mockup.graphics.simpleIcon;strokeColor=#999999;" parent="lM20h5C86pUY3JEqbK44-2" vertex="1">
          <mxGeometry x="752" y="170" width="197" height="20" as="geometry" />
        </mxCell>
        <mxCell id="lM20h5C86pUY3JEqbK44-7" value="" style="editableCssRules=path;shape=image;aspect=fixed;image=data:image/svg+xml,PHN2ZyB4bWxucz0iaHR0cDovL3d3dy53My5vcmcvMjAwMC9zdmciIHZpZXdCb3g9IjAgMCA0NDggNTEyIj48IS0tISBGb250IEF3ZXNvbWUgRnJlZSA2LjEuMSBieSBAZm9udGF3ZXNvbWUgLSBodHRwczovL2ZvbnRhd2Vzb21lLmNvbSBMaWNlbnNlIC0gaHR0cHM6Ly9mb250YXdlc29tZS5jb20vbGljZW5zZS9mcmVlIChJY29uczogQ0MgQlkgNC4wLCBGb250czogU0lMIE9GTCAxLjEsIENvZGU6IE1JVCBMaWNlbnNlKSBDb3B5cmlnaHQgMjAyMiBGb250aWNvbnMsIEluYy4gLS0+PHN0eWxlIHR5cGU9InRleHQvY3NzIj5wYXRoIHsgZmlsbDogcmdiKDI2LCAyNiwgMjYpOyB9IDwvc3R5bGU+PHBhdGggZD0iTTAgOTZDMCA3OC4zMyAxNC4zMyA2NCAzMiA2NEg0MTZDNDMzLjcgNjQgNDQ4IDc4LjMzIDQ0OCA5NkM0NDggMTEzLjcgNDMzLjcgMTI4IDQxNiAxMjhIMzJDMTQuMzMgMTI4IDAgMTEzLjcgMCA5NnpNMCAyNTZDMCAyMzguMyAxNC4zMyAyMjQgMzIgMjI0SDQxNkM0MzMuNyAyMjQgNDQ4IDIzOC4zIDQ0OCAyNTZDNDQ4IDI3My43IDQzMy43IDI4OCA0MTYgMjg4SDMyQzE0LjMzIDI4OCAwIDI3My43IDAgMjU2ek00MTYgNDQ4SDMyQzE0LjMzIDQ0OCAwIDQzMy43IDAgNDE2QzAgMzk4LjMgMTQuMzMgMzg0IDMyIDM4NEg0MTZDNDMzLjcgMzg0IDQ0OCAzOTguMyA0NDggNDE2QzQ0OCA0MzMuNyA0MzMuNyA0NDggNDE2IDQ0OHoiLz48L3N2Zz4=;connectable=0;movable=1;verticalLabelPosition=bottom;resizable=1;rotatable=0;cloneable=0;deletable=1;recursiveResize=0;imageBackground=none;verticalAlign=top;shadow=0;dashed=0;comic=1;strokeColor=default;strokeWidth=1;align=left;spacingLeft=3;fontFamily=Helvetica;fontSize=17;fontColor=#666666;fillColor=default;" parent="lM20h5C86pUY3JEqbK44-2" vertex="1">
          <mxGeometry x="950" y="10" width="53" height="53" as="geometry" />
        </mxCell>
        <mxCell id="lM20h5C86pUY3JEqbK44-8" value="Content" style="locked=1;" parent="lM20h5C86pUY3JEqbK44-0" />
        <mxCell id="UWCxgOFe7nMYwkSKV8DK-10" value="" style="group" parent="lM20h5C86pUY3JEqbK44-8" vertex="1" connectable="0">
          <mxGeometry x="690" y="240" width="320" height="130" as="geometry" />
        </mxCell>
        <mxCell id="UWCxgOFe7nMYwkSKV8DK-0" value="" style="shape=table;startSize=0;container=1;collapsible=0;childLayout=tableLayout;comic=1;fontSize=10;" parent="UWCxgOFe7nMYwkSKV8DK-10" vertex="1">
          <mxGeometry x="72.43243243243244" y="55.28735632183908" width="175.13513513513513" height="74.71264367816092" as="geometry" />
        </mxCell>
        <mxCell id="UWCxgOFe7nMYwkSKV8DK-1" value="" style="shape=tableRow;horizontal=0;startSize=0;swimlaneHead=0;swimlaneBody=0;strokeColor=inherit;top=0;left=0;bottom=0;right=0;collapsible=0;dropTarget=0;fillColor=none;points=[[0,0.5],[1,0.5]];portConstraint=eastwest;fontSize=10;" parent="UWCxgOFe7nMYwkSKV8DK-0" vertex="1">
          <mxGeometry width="175.13513513513513" height="37" as="geometry" />
        </mxCell>
        <mxCell id="UWCxgOFe7nMYwkSKV8DK-2" value="Column 1" style="shape=partialRectangle;html=1;whiteSpace=wrap;connectable=0;strokeColor=inherit;overflow=hidden;fillColor=none;top=0;left=0;bottom=0;right=0;pointerEvents=1;fontSize=10;" parent="UWCxgOFe7nMYwkSKV8DK-1" vertex="1">
          <mxGeometry width="58" height="37" as="geometry">
            <mxRectangle width="58" height="37" as="alternateBounds" />
          </mxGeometry>
        </mxCell>
        <mxCell id="UWCxgOFe7nMYwkSKV8DK-3" value="Column 2" style="shape=partialRectangle;html=1;whiteSpace=wrap;connectable=0;strokeColor=inherit;overflow=hidden;fillColor=none;top=0;left=0;bottom=0;right=0;pointerEvents=1;fontSize=10;" parent="UWCxgOFe7nMYwkSKV8DK-1" vertex="1">
          <mxGeometry x="58" width="58" height="37" as="geometry">
            <mxRectangle width="58" height="37" as="alternateBounds" />
          </mxGeometry>
        </mxCell>
        <mxCell id="UWCxgOFe7nMYwkSKV8DK-4" value="Column 3" style="shape=partialRectangle;html=1;whiteSpace=wrap;connectable=0;strokeColor=inherit;overflow=hidden;fillColor=none;top=0;left=0;bottom=0;right=0;pointerEvents=1;fontSize=10;" parent="UWCxgOFe7nMYwkSKV8DK-1" vertex="1">
          <mxGeometry x="116" width="59" height="37" as="geometry">
            <mxRectangle width="59" height="37" as="alternateBounds" />
          </mxGeometry>
        </mxCell>
        <mxCell id="UWCxgOFe7nMYwkSKV8DK-5" value="" style="shape=tableRow;horizontal=0;startSize=0;swimlaneHead=0;swimlaneBody=0;strokeColor=inherit;top=0;left=0;bottom=0;right=0;collapsible=0;dropTarget=0;fillColor=none;points=[[0,0.5],[1,0.5]];portConstraint=eastwest;fontSize=10;" parent="UWCxgOFe7nMYwkSKV8DK-0" vertex="1">
          <mxGeometry y="37" width="175.13513513513513" height="38" as="geometry" />
        </mxCell>
        <mxCell id="UWCxgOFe7nMYwkSKV8DK-6" value="Row 1" style="shape=partialRectangle;html=1;whiteSpace=wrap;connectable=0;strokeColor=inherit;overflow=hidden;fillColor=none;top=0;left=0;bottom=0;right=0;pointerEvents=1;fontSize=10;" parent="UWCxgOFe7nMYwkSKV8DK-5" vertex="1">
          <mxGeometry width="58" height="38" as="geometry">
            <mxRectangle width="58" height="38" as="alternateBounds" />
          </mxGeometry>
        </mxCell>
        <mxCell id="UWCxgOFe7nMYwkSKV8DK-7" value="Row 1" style="shape=partialRectangle;html=1;whiteSpace=wrap;connectable=0;strokeColor=inherit;overflow=hidden;fillColor=none;top=0;left=0;bottom=0;right=0;pointerEvents=1;fontSize=10;" parent="UWCxgOFe7nMYwkSKV8DK-5" vertex="1">
          <mxGeometry x="58" width="58" height="38" as="geometry">
            <mxRectangle width="58" height="38" as="alternateBounds" />
          </mxGeometry>
        </mxCell>
        <mxCell id="UWCxgOFe7nMYwkSKV8DK-8" value="Row 1" style="shape=partialRectangle;html=1;whiteSpace=wrap;connectable=0;strokeColor=inherit;overflow=hidden;fillColor=none;top=0;left=0;bottom=0;right=0;pointerEvents=1;fontSize=10;" parent="UWCxgOFe7nMYwkSKV8DK-5" vertex="1">
          <mxGeometry x="116" width="59" height="38" as="geometry">
            <mxRectangle width="59" height="38" as="alternateBounds" />
          </mxGeometry>
        </mxCell>
        <mxCell id="UWCxgOFe7nMYwkSKV8DK-9" value="TITLE" style="whiteSpace=wrap;html=1;rounded=0;shadow=0;labelBackgroundColor=none;strokeWidth=1;fillColor=none;fontFamily=Verdana;fontSize=12;align=center;comic=1;" parent="UWCxgOFe7nMYwkSKV8DK-10" vertex="1">
          <mxGeometry width="320" height="37.35632183908046" as="geometry" />
        </mxCell>
      </root>
    </mxGraphModel>
  </diagram>
  <diagram name="desktop-lista-expert-animal" id="Ocu0ei4MOg8sVOTUlNPM">
    <mxGraphModel dx="1980" dy="1300" grid="1" gridSize="10" guides="1" tooltips="1" connect="1" arrows="1" fold="1" page="1" pageScale="1" pageWidth="1600" pageHeight="900" background="none" math="0" shadow="0">
      <root>
        <mxCell id="3tuN44pwI5HbIMHgyI5V-0" />
        <mxCell id="3tuN44pwI5HbIMHgyI5V-1" style="locked=1;" parent="3tuN44pwI5HbIMHgyI5V-0" />
        <mxCell id="3tuN44pwI5HbIMHgyI5V-2" value="Header" style="locked=1;" parent="3tuN44pwI5HbIMHgyI5V-0" />
        <mxCell id="3tuN44pwI5HbIMHgyI5V-3" value="LOGO" style="whiteSpace=wrap;html=1;rounded=0;shadow=0;labelBackgroundColor=none;strokeWidth=1;fontFamily=Verdana;fontSize=28;align=center;comic=1;" parent="3tuN44pwI5HbIMHgyI5V-2" vertex="1">
          <mxGeometry x="30" y="20" width="190" height="50" as="geometry" />
        </mxCell>
        <mxCell id="3tuN44pwI5HbIMHgyI5V-4" value="Menu 1" style="text;html=1;points=[];align=left;verticalAlign=top;spacingTop=-4;fontSize=14;fontFamily=Verdana" parent="3tuN44pwI5HbIMHgyI5V-2" vertex="1">
          <mxGeometry x="1290" y="35" width="60" height="20" as="geometry" />
        </mxCell>
        <mxCell id="3tuN44pwI5HbIMHgyI5V-5" value="Menu 2" style="text;html=1;points=[];align=left;verticalAlign=top;spacingTop=-4;fontSize=14;fontFamily=Verdana" parent="3tuN44pwI5HbIMHgyI5V-2" vertex="1">
          <mxGeometry x="1370" y="35" width="60" height="20" as="geometry" />
        </mxCell>
        <mxCell id="3tuN44pwI5HbIMHgyI5V-6" value="Menu 3" style="text;html=1;points=[];align=left;verticalAlign=top;spacingTop=-4;fontSize=14;fontFamily=Verdana" parent="3tuN44pwI5HbIMHgyI5V-2" vertex="1">
          <mxGeometry x="1440" y="35" width="60" height="20" as="geometry" />
        </mxCell>
        <mxCell id="3tuN44pwI5HbIMHgyI5V-7" value="Menu 4" style="text;html=1;points=[];align=left;verticalAlign=top;spacingTop=-4;fontSize=14;fontFamily=Verdana" parent="3tuN44pwI5HbIMHgyI5V-2" vertex="1">
          <mxGeometry x="1510" y="35" width="60" height="20" as="geometry" />
        </mxCell>
        <mxCell id="3tuN44pwI5HbIMHgyI5V-8" value="" style="line;strokeWidth=1;html=1;rounded=0;shadow=0;labelBackgroundColor=none;fillColor=none;fontFamily=Verdana;fontSize=14;fontColor=#000000;align=center;comic=1;" parent="3tuN44pwI5HbIMHgyI5V-2" vertex="1">
          <mxGeometry x="30" y="63" width="1540" height="50" as="geometry" />
        </mxCell>
        <mxCell id="3tuN44pwI5HbIMHgyI5V-9" value="" style="whiteSpace=wrap;html=1;rounded=0;shadow=0;labelBackgroundColor=none;strokeWidth=1;fillColor=none;fontFamily=Verdana;fontSize=12;align=center;comic=1;" parent="3tuN44pwI5HbIMHgyI5V-2" vertex="1">
          <mxGeometry x="280" y="150" width="1040" height="50" as="geometry" />
        </mxCell>
        <mxCell id="3tuN44pwI5HbIMHgyI5V-10" value="HEADER" style="text;html=1;points=[];align=left;verticalAlign=top;spacingTop=-4;fontSize=14;fontFamily=Verdana" parent="3tuN44pwI5HbIMHgyI5V-2" vertex="1">
          <mxGeometry x="770" y="165" width="60" height="20" as="geometry" />
        </mxCell>
        <mxCell id="3tuN44pwI5HbIMHgyI5V-11" value="" style="verticalLabelPosition=bottom;shadow=0;dashed=0;align=center;html=1;verticalAlign=top;strokeWidth=1;shape=mxgraph.mockup.graphics.simpleIcon;strokeColor=#999999;" parent="3tuN44pwI5HbIMHgyI5V-2" vertex="1">
          <mxGeometry x="665" y="210" width="270" height="50" as="geometry" />
        </mxCell>
        <mxCell id="3tuN44pwI5HbIMHgyI5V-12" value="Content" style="locked=1;" parent="3tuN44pwI5HbIMHgyI5V-0" />
        <mxCell id="bHaT1M0i2fDIqk7YmBy3-0" value="" style="shape=table;startSize=0;container=1;collapsible=0;childLayout=tableLayout;comic=1;" parent="3tuN44pwI5HbIMHgyI5V-12" vertex="1">
          <mxGeometry x="597.5" y="350" width="405" height="100" as="geometry" />
        </mxCell>
        <mxCell id="bHaT1M0i2fDIqk7YmBy3-1" value="" style="shape=tableRow;horizontal=0;startSize=0;swimlaneHead=0;swimlaneBody=0;strokeColor=inherit;top=0;left=0;bottom=0;right=0;collapsible=0;dropTarget=0;fillColor=none;points=[[0,0.5],[1,0.5]];portConstraint=eastwest;" parent="bHaT1M0i2fDIqk7YmBy3-0" vertex="1">
          <mxGeometry width="405" height="50" as="geometry" />
        </mxCell>
        <mxCell id="bHaT1M0i2fDIqk7YmBy3-2" value="Column 1" style="shape=partialRectangle;html=1;whiteSpace=wrap;connectable=0;strokeColor=inherit;overflow=hidden;fillColor=none;top=0;left=0;bottom=0;right=0;pointerEvents=1;" parent="bHaT1M0i2fDIqk7YmBy3-1" vertex="1">
          <mxGeometry width="135" height="50" as="geometry">
            <mxRectangle width="135" height="50" as="alternateBounds" />
          </mxGeometry>
        </mxCell>
        <mxCell id="bHaT1M0i2fDIqk7YmBy3-3" value="Column 2" style="shape=partialRectangle;html=1;whiteSpace=wrap;connectable=0;strokeColor=inherit;overflow=hidden;fillColor=none;top=0;left=0;bottom=0;right=0;pointerEvents=1;" parent="bHaT1M0i2fDIqk7YmBy3-1" vertex="1">
          <mxGeometry x="135" width="135" height="50" as="geometry">
            <mxRectangle width="135" height="50" as="alternateBounds" />
          </mxGeometry>
        </mxCell>
        <mxCell id="bHaT1M0i2fDIqk7YmBy3-4" value="Column 3" style="shape=partialRectangle;html=1;whiteSpace=wrap;connectable=0;strokeColor=inherit;overflow=hidden;fillColor=none;top=0;left=0;bottom=0;right=0;pointerEvents=1;" parent="bHaT1M0i2fDIqk7YmBy3-1" vertex="1">
          <mxGeometry x="270" width="135" height="50" as="geometry">
            <mxRectangle width="135" height="50" as="alternateBounds" />
          </mxGeometry>
        </mxCell>
        <mxCell id="bHaT1M0i2fDIqk7YmBy3-5" value="" style="shape=tableRow;horizontal=0;startSize=0;swimlaneHead=0;swimlaneBody=0;strokeColor=inherit;top=0;left=0;bottom=0;right=0;collapsible=0;dropTarget=0;fillColor=none;points=[[0,0.5],[1,0.5]];portConstraint=eastwest;" parent="bHaT1M0i2fDIqk7YmBy3-0" vertex="1">
          <mxGeometry y="50" width="405" height="50" as="geometry" />
        </mxCell>
        <mxCell id="bHaT1M0i2fDIqk7YmBy3-6" value="Row 1" style="shape=partialRectangle;html=1;whiteSpace=wrap;connectable=0;strokeColor=inherit;overflow=hidden;fillColor=none;top=0;left=0;bottom=0;right=0;pointerEvents=1;" parent="bHaT1M0i2fDIqk7YmBy3-5" vertex="1">
          <mxGeometry width="135" height="50" as="geometry">
            <mxRectangle width="135" height="50" as="alternateBounds" />
          </mxGeometry>
        </mxCell>
        <mxCell id="bHaT1M0i2fDIqk7YmBy3-7" value="Row 1" style="shape=partialRectangle;html=1;whiteSpace=wrap;connectable=0;strokeColor=inherit;overflow=hidden;fillColor=none;top=0;left=0;bottom=0;right=0;pointerEvents=1;" parent="bHaT1M0i2fDIqk7YmBy3-5" vertex="1">
          <mxGeometry x="135" width="135" height="50" as="geometry">
            <mxRectangle width="135" height="50" as="alternateBounds" />
          </mxGeometry>
        </mxCell>
        <mxCell id="bHaT1M0i2fDIqk7YmBy3-8" value="Row 1" style="shape=partialRectangle;html=1;whiteSpace=wrap;connectable=0;strokeColor=inherit;overflow=hidden;fillColor=none;top=0;left=0;bottom=0;right=0;pointerEvents=1;" parent="bHaT1M0i2fDIqk7YmBy3-5" vertex="1">
          <mxGeometry x="270" width="135" height="50" as="geometry">
            <mxRectangle width="135" height="50" as="alternateBounds" />
          </mxGeometry>
        </mxCell>
        <mxCell id="bHaT1M0i2fDIqk7YmBy3-9" value="TITLE" style="whiteSpace=wrap;html=1;rounded=0;shadow=0;labelBackgroundColor=none;strokeWidth=1;fillColor=none;fontFamily=Verdana;fontSize=12;align=center;comic=1;" parent="3tuN44pwI5HbIMHgyI5V-12" vertex="1">
          <mxGeometry x="430" y="276" width="740" height="50" as="geometry" />
        </mxCell>
      </root>
    </mxGraphModel>
  </diagram>
</mxfile>
